{
.appVersion = "1075";
copyright = "Copyright © 2014 by Dharma Type.";
customParameters = (
{
name = description;
value = "Designed by Ryoichi Tsunekawa from Dharma Type in 2014 based on Bebas(2005).";
},
{
name = license;
value = "This Font Software is licensed under the SIL Open Font License, Version 1.1. This license is available with a FAQ at: http://scripts.sil.org/OFL";
},
{
name = licenseURL;
value = "http://scripts.sil.org/OFL";
},
{
name = vendorID;
value = dhrm;
},
{
name = panose;
value = (
4,
5,
6,
3,
2,
11,
2,
2,
2,
4
);
},
{
name = glyphOrder;
value = (
.notdef,
space
);
},
{
name = fsType;
value = (
);
},
{
name = trademark;
value = "Bebas Kai is a trademark of Dharma Type";
},
{
name = note;
value = "Add “Scale to UPM 2048” in Instance before Export for TTF, If necessary.";
}
);
date = "2018-04-04 01:55:09 +0000";
designer = "Ryoichi Tsunekawa";
designerURL = "http://dharmatype.com";
familyName = "Bebas Kai";
featurePrefixes = (
{
automatic = 1;
code = "languagesystem DFLT dflt;\012languagesystem latn dflt;\012languagesystem latn CAT;\012languagesystem latn ROM;\012languagesystem latn MOL;\012languagesystem latn KAZ;\012languagesystem latn TAT;\012languagesystem latn TRK;\012languagesystem latn CRT;\012languagesystem latn AZE;\012";
name = Languagesystems;
}
);
features = (
{
automatic = 1;
code = "feature locl;\012feature subs;\012feature sups;\012feature numr;\012feature dnom;\012feature frac;\012feature ordn;\012feature pnum;\012feature tnum;\012";
name = aalt;
},
{
automatic = 1;

glyphs = (
{
color = 0;
glyphname = .notdef;
lastChange = "2018-04-04 05:25:25 +0000";
layers = (
{
background = {
paths = (
{
closed = 1;
nodes = (
"80 700 LINE",
"80 0 LINE",
"596 0 LINE",
"596 700 LINE"
);
},
{
closed = 1;
nodes = (
"447 84 LINE",
"229 84 LINE",
"338 272 LINE"
);
},
{
closed = 1;
nodes = (
"286 350 LINE",
"165 143 LINE",
"165 557 LINE"
);
},
{
closed = 1;
nodes = (
"511 143 LINE",
"390 350 LINE",
"511 557 LINE"
);
},
{
closed = 1;
nodes = (
"338 428 LINE",
"229 616 LINE",
"447 616 LINE"
);
}
);
};
layerId = "959C6BA0-AD18-4631-88F4-5A4A3C51B359";
paths = (
{
closed = 1;
nodes = (
"80 700 LINE",
"80 0 LINE",
"596 0 LINE",
"596 700 LINE"
);
},
{
closed = 1;
nodes = (
"447 84 LINE",
"229 84 LINE",
"338 272 LINE"
);
},
{
closed = 1;
nodes = (
"286 350 LINE",
"165 143 LINE",
"165 557 LINE"
);
},
{
closed = 1;
nodes = (
"511 143 LINE",
"390 350 LINE",
"511 557 LINE"
);
},
{
closed = 1;
nodes = (
"338 428 LINE",
"229 616 LINE",
"447 616 LINE"
);
}
);
width = 676;
}
);
},
{
color = 0;
glyphname = A;
lastChange = "2018-04-04 05:25:25 +0000";
layers = (
{
anchors = (
{
name = ogonek;
position = "{396, 0}";
},
{
name = top;
position = "{208, 700}";
}
);
background = {
anchors = (
{
name = ogonek;
position = "{396, 0}";
},
{
name = top;
position = "{208, 700}";
}
);
paths = (
{
closed = 1;
nodes = (
"140 700 LINE",
"19 0 LINE",
"125 0 LINE",
"148.424 159 LINE",
"264.576 159 LINE",
"288 0 LINE",
"396 0 LINE",
"275 700 LINE"
);
},
{
closed = 1;
nodes = (
"250.515 255 LINE",
"162.485 255 LINE",
"205 550 LINE",
"208 550 LINE"
);
}
);
};
layerId = "959C6BA0-AD18-4631-88F4-5A4A3C51B359";
paths = (
{
closed = 1;
nodes = (
"140 700 LINE",
"19 0 LINE",
"125 0 LINE",
"148.424 159 LINE",
"264.576 159 LINE",
"288 0 LINE",
"396 0 LINE",
"275 700 LINE"
);
},
{
closed = 1;
nodes = (
"250.515 255 LINE",
"162.485 255 LINE",
"205 550 LINE",
"208 550 LINE"
);
}
);
width = 415;
}
);
leftKerningGroup = A;
rightKerningGroup = A;
unicode = 0041;
},
{
color = 0;
glyphname = Aogonek;
lastChange = "2018-04-04 05:25:25 +0000";
layers = (
{
anchors = (
{
name = ogonek;
position = "{396, 0}";
},
{
name = top;
position = "{208, 700}";
}
);
background = {
anchors = (
{
name = ogonek;
position = "{396, 0}";
},
{
name = top;
position = "{208, 700}";
}
);
paths = (
{
closed = 1;
nodes = (
"140 700 LINE",
"19 0 LINE",
"125 0 LINE",
"148 159 LINE",
"265 159 LINE",
"288 0 LINE",
"305 0 LINE",
"305 -2 LINE",
"260 -26 OFFCURVE",
"241 -54 OFFCURVE",
"241 -86 CURVE SMOOTH",
"241 -126 OFFCURVE",
"272 -147 OFFCURVE",
"328 -147 CURVE SMOOTH",
"353 -147 OFFCURVE",
"373 -143 OFFCURVE",
"396 -131 CURVE",
"391 -70 LINE",
"381 -77 OFFCURVE",
"368 -81 OFFCURVE",
"355 -81 CURVE SMOOTH",
"336 -81 OFFCURVE",
"323 -72 OFFCURVE",
"323 -53 CURVE SMOOTH",
"323 -39 OFFCURVE",
"330 -20 OFFCURVE",
"355 0 CURVE",
"396 0 LINE",
"275 700 LINE"
);
},
{
closed = 1;
nodes = (
"251 255 LINE",
"162 255 LINE",
"205 550 LINE",
"208 550 LINE"
);
}
);
};
layerId = "959C6BA0-AD18-4631-88F4-5A4A3C51B359";
paths = (
{
closed = 1;
nodes = (
"140 700 LINE",
"19 0 LINE",
"125 0 LINE",
"148 159 LINE",
"265 159 LINE",
"288 0 LINE",
"305 0 LINE",
"305 -2 LINE",
"260 -26 OFFCURVE",
"241 -54 OFFCURVE",
"241 -86 CURVE SMOOTH",
"241 -126 OFFCURVE",
"272 -147 OFFCURVE",
"328 -147 CURVE SMOOTH",
"353 -147 OFFCURVE",
"373 -143 OFFCURVE",
"396 -131 CURVE",
"391 -70 LINE",
"381 -77 OFFCURVE",
"368 -81 OFFCURVE",
"355 -81 CURVE SMOOTH",
"336 -81 OFFCURVE",
"323 -72 OFFCURVE",
"323 -53 CURVE SMOOTH",
"323 -39 OFFCURVE",
"330 -20 OFFCURVE",
"355 0 CURVE",
"396 0 LINE",
"275 700 LINE"
);
},
{
closed = 1;
nodes = (
"251 255 LINE",
"162 255 LINE",
"205 550 LINE",
"208 550 LINE"
);
}
);
width = 415;
}
);
leftKerningGroup = A;
rightKerningGroup = A;
unicode = 0104;
},
{
color = 0;
glyphname = AE;
lastChange = "2018-04-04 05:25:25 +0000";
layers = (
{
anchors = (
{
name = top;
position = "{334, 700}";
}
);
background = {
anchors = (
{
name = top;
position = "{334, 700}";
}
);
paths = (
{
closed = 1;
nodes = (
"230 700 LINE",
"11 0 LINE",
"116 0 LINE",
"163 159 LINE",
"281 159 LINE",
"281 0 LINE",
"579 0 LINE",
"579 98 LINE",
"387 98 LINE",
"387 306 LINE",
"542 306 LINE",
"542 404 LINE",
"387 404 LINE",
"387 602 LINE",
"579 602 LINE",
"579 700 LINE"
);
},
{
closed = 1;
nodes = (
"281 255 LINE",
"192 255 LINE",
"279 553 LINE",
"281 553 LINE"
);
}
);
};
layerId = "959C6BA0-AD18-4631-88F4-5A4A3C51B359";
paths = (
{
closed = 1;
nodes = (
"230 700 LINE",
"11 0 LINE",
"116 0 LINE",
"163 159 LINE",
"281 159 LINE",
"281 0 LINE",
"579 0 LINE",
"579 98 LINE",
"387 98 LINE",
"387 306 LINE",
"542 306 LINE",
"542 404 LINE",
"387 404 LINE",
"387 602 LINE",
"579 602 LINE",
"579 700 LINE"
);
},
{
closed = 1;
nodes = (
"281 255 LINE",
"192 255 LINE",
"279 553 LINE",
"281 553 LINE"
);
}
);
width = 612;
}
);
leftKerningGroup = AE;
rightKerningGroup = E;
rightMetricsKey = E;
unicode = 00C6;
},
{
color = 0;
glyphname = B;
lastChange = "2018-04-04 05:25:25 +0000";
layers = (
{
anchors = (
{
name = top;
position = "{187, 700}";
}
);
background = {
anchors = (
{
name = top;
position = "{187, 700}";
}
);
paths = (
{
closed = 1;
nodes = (
"57 700 LINE",
"57 0 LINE",
"213 0 LINE SMOOTH",
"327 0 OFFCURVE",
"389 62 OFFCURVE",
"389 177 CURVE SMOOTH",
"389 201 LINE SMOOTH",
"389 293 OFFCURVE",
"361 345 OFFCURVE",
"295 365 CURVE",
"295 367 LINE",
"351 386 OFFCURVE",
"374 432 OFFCURVE",
"374 510 CURVE SMOOTH",
"374 523 LINE SMOOTH",
"374 638 OFFCURVE",
"315 700 OFFCURVE",
"205 700 CURVE SMOOTH"
);
},
{
closed = 1;
nodes = (
"260 313 OFFCURVE",
"283 285 OFFCURVE",
"283 223 CURVE SMOOTH",
"283 184 LINE SMOOTH",
"283 125 OFFCURVE",
"260 98 OFFCURVE",
"209 98 CURVE SMOOTH",
"163 98 LINE",
"163 313 LINE",
"204 313 LINE SMOOTH"
);
},
{
closed = 1;
nodes = (
"247 602 OFFCURVE",
"268 576 OFFCURVE",
"268 519 CURVE SMOOTH",
"268 496 LINE SMOOTH",
"268 437 OFFCURVE",
"247 411 OFFCURVE",
"196 411 CURVE SMOOTH",
"163 411 LINE",
"163 602 LINE",
"201 602 LINE SMOOTH"
);
}
);
};
layerId = "959C6BA0-AD18-4631-88F4-5A4A3C51B359";
paths = (
{
closed = 1;
nodes = (
"57 700 LINE",
"57 0 LINE",
"213 0 LINE SMOOTH",
"327 0 OFFCURVE",
"389 62 OFFCURVE",
"389 177 CURVE SMOOTH",
"389 201 LINE SMOOTH",
"389 293 OFFCURVE",
"361 345 OFFCURVE",
"295 365 CURVE",
"295 367 LINE",
"351 386 OFFCURVE",
"374 432 OFFCURVE",
"374 510 CURVE SMOOTH",
"374 523 LINE SMOOTH",
"374 638 OFFCURVE",
"315 700 OFFCURVE",
"205 700 CURVE SMOOTH"
);
},
{
closed = 1;
nodes = (
"260 313 OFFCURVE",
"283 285 OFFCURVE",
"283 223 CURVE SMOOTH",
"283 184 LINE SMOOTH",
"283 125 OFFCURVE",
"260 98 OFFCURVE",
"209 98 CURVE SMOOTH",
"163 98 LINE",
"163 313 LINE",
"204 313 LINE SMOOTH"
);
},
{
closed = 1;
nodes = (
"247 602 OFFCURVE",
"268 576 OFFCURVE",
"268 519 CURVE SMOOTH",
"268 496 LINE SMOOTH",
"268 437 OFFCURVE",
"247 411 OFFCURVE",
"196 411 CURVE SMOOTH",
"163 411 LINE",
"163 602 LINE",
"201 602 LINE SMOOTH"
);
}
);
width = 417;
},
{
associatedMasterId = "959C6BA0-AD18-4631-88F4-5A4A3C51B359";
background = {
paths = (
{
closed = 1;
nodes = (
"36 0 LINE",
"36 700 LINE",
"194 700 LINE SMOOTH",
"277 700 OFFCURVE",
"344 658 OFFCURVE",
"368 580 CURVE SMOOTH",
"375 560 OFFCURVE",
"378 535 OFFCURVE",
"378 506 CURVE SMOOTH",
"378 459 OFFCURVE",
"366 422 OFFCURVE",
"341 393 CURVE SMOOTH",
"330 382 OFFCURVE",
"318 372 OFFCURVE",
"304 366 CURVE",
"351 348 OFFCURVE",
"377 300 OFFCURVE",
"388 244 CURVE SMOOTH",
"391 229 OFFCURVE",
"392 213 OFFCURVE",
"392 195 CURVE SMOOTH",
"392 107 OFFCURVE",
"359 54 OFFCURVE",
"311 25 CURVE SMOOTH",
"285 8 OFFCURVE",
"258 0 OFFCURVE",
"232 0 CURVE SMOOTH"
);
},
{
closed = 1;
nodes = (
"150 104 LINE",
"194 104 LINE SMOOTH",
"230 104 OFFCURVE",
"254 123 OFFCURVE",
"268 160 CURVE SMOOTH",
"273 172 OFFCURVE",
"276 187 OFFCURVE",
"276 203 CURVE SMOOTH",
"276 281 OFFCURVE",
"246 313 OFFCURVE",
"194 313 CURVE SMOOTH",
"150 313 LINE"
);
},
{
closed = 1;
nodes = (
"150 414 LINE",
"194 414 LINE SMOOTH",
"227 414 OFFCURVE",
"249 430 OFFCURVE",
"260 462 CURVE SMOOTH",
"264 474 OFFCURVE",
"266 489 OFFCURVE",
"266 506 CURVE SMOOTH",
"266 564 OFFCURVE",
"236 593 OFFCURVE",
"194 593 CURVE SMOOTH",
"150 593 LINE"
);
}
);
};
layerId = "3EB8E0CE-5F31-42FB-8F48-6BECEA00E6A7";
name = "Regular Oct 22 14, 08:55";
paths = (
{
closed = 1;
nodes = (
"36 0 LINE",
"36 700 LINE",
"186 700 LINE SMOOTH",
"316 700 OFFCURVE",
"370 609 OFFCURVE",
"370 506 CURVE SMOOTH",
"370 426 OFFCURVE",
"331 356 OFFCURVE",
"266 356 CURVE",
"266 369 LINE",
"332 362 OFFCURVE",
"367 307 OFFCURVE",
"380 240 CURVE SMOOTH",
"383 225 OFFCURVE",
"384 213 OFFCURVE",
"384 195 CURVE SMOOTH",
"384 107 OFFCURVE",
"351 54 OFFCURVE",
"303 25 CURVE SMOOTH",
"277 8 OFFCURVE",
"250 0 OFFCURVE",
"224 0 CURVE SMOOTH"
);
},
{
closed = 1;
nodes = (
"142 102 LINE",
"186 102 LINE SMOOTH",
"222 102 OFFCURVE",
"246 121 OFFCURVE",
"260 160 CURVE SMOOTH",
"264 172 OFFCURVE",
"268 187 OFFCURVE",
"268 203 CURVE SMOOTH",
"268 277 OFFCURVE",
"238 308 OFFCURVE",
"186 308 CURVE SMOOTH",
"142 308 LINE"
);
},
{
closed = 1;
nodes = (
"142 410 LINE",
"186 410 LINE SMOOTH",
"219 410 OFFCURVE",
"241 426 OFFCURVE",
"252 458 CURVE SMOOTH",
"256 470 OFFCURVE",
"258 489 OFFCURVE",
"258 506 CURVE SMOOTH",
"258 564 OFFCURVE",
"228 598 OFFCURVE",
"186 598 CURVE SMOOTH",
"142 598 LINE"
);
}
);
width = 420;
}
);
leftMetricsKey = H;
rightKerningGroup = B;
unicode = 0042;
},
{
color = 0;
glyphname = C;
lastChange = "2018-04-04 05:25:25 +0000";
layers = (
{
anchors = (
{
name = bottom;
position = "{209, 0}";
},
{
name = top;
position = "{208, 700}";
}
);
background = {
anchors = (
{
name = bottom;
position = "{209, 0}";
},
{
name = top;
position = "{208, 700}";
}
);
paths = (
{
closed = 1;
nodes = (
"106 710 OFFCURVE",
"46 648 OFFCURVE",
"46 542 CURVE SMOOTH",
"46 158 LINE SMOOTH",
"46 52 OFFCURVE",
"106 -10 OFFCURVE",
"209 -10 CURVE SMOOTH",
"313 -10 OFFCURVE",
"374 52 OFFCURVE",
"374 158 CURVE SMOOTH",
"374 242 LINE",
"272 247 LINE",
"272 169 LINE SMOOTH",
"272 113 OFFCURVE",
"251 88 OFFCURVE",
"212 88 CURVE SMOOTH",
"173 88 OFFCURVE",
"152 113 OFFCURVE",
"152 159 CURVE SMOOTH",
"152 541 LINE SMOOTH",
"152 587 OFFCURVE",
"173 612 OFFCURVE",
"212 612 CURVE SMOOTH",
"251 612 OFFCURVE",
"272 587 OFFCURVE",
"272 531 CURVE SMOOTH",
"272 474 LINE",
"374 479 LINE",
"374 542 LINE SMOOTH",
"374 648 OFFCURVE",
"313 710 OFFCURVE",
"209 710 CURVE SMOOTH"
);
}
);
};
layerId = "959C6BA0-AD18-4631-88F4-5A4A3C51B359";
paths = (
{
closed = 1;
nodes = (
"106 710 OFFCURVE",
"46 648 OFFCURVE",
"46 542 CURVE SMOOTH",
"46 158 LINE SMOOTH",
"46 52 OFFCURVE",
"106 -10 OFFCURVE",
"209 -10 CURVE SMOOTH",
"313 -10 OFFCURVE",
"374 52 OFFCURVE",
"374 158 CURVE SMOOTH",
"374 242 LINE",
"272 247 LINE",
"272 169 LINE SMOOTH",
"272 113 OFFCURVE",
"251 88 OFFCURVE",
"212 88 CURVE SMOOTH",
"173 88 OFFCURVE",
"152 113 OFFCURVE",
"152 159 CURVE SMOOTH",
"152 541 LINE SMOOTH",
"152 587 OFFCURVE",
"173 612 OFFCURVE",
"212 612 CURVE SMOOTH",
"251 612 OFFCURVE",
"272 587 OFFCURVE",
"272 531 CURVE SMOOTH",
"272 474 LINE",
"374 479 LINE",
"374 542 LINE SMOOTH",
"374 648 OFFCURVE",
"313 710 OFFCURVE",
"209 710 CURVE SMOOTH"
);
}
);
width = 407;
}
);
leftKerningGroup = O;
leftMetricsKey = O;
rightKerningGroup = C;
unicode = 0043;
},
{
color = 0;
glyphname = Ccedilla;
lastChange = "2018-04-04 05:25:25 +0000";
layers = (
{
anchors = (
{
name = bottom;
position = "{209, 0}";
},
{
name = top;
position = "{208, 700}";
}
);
background = {
anchors = (
{
name = bottom;
position = "{209, 0}";
},
{
name = top;
position = "{208, 700}";
}
);
paths = (
{
closed = 1;
nodes = (
"106 710 OFFCURVE",
"46 648 OFFCURVE",
"46 542 CURVE SMOOTH",
"46 158 LINE SMOOTH",
"46 60 OFFCURVE",
"97 0 OFFCURVE",
"186 -9 CURVE",
"186 -53 LINE",
"196 -53 LINE SMOOTH",
"222 -53 OFFCURVE",
"231 -61 OFFCURVE",
"231 -83 CURVE SMOOTH",
"231 -99 OFFCURVE",
"223 -107 OFFCURVE",
"208 -107 CURVE SMOOTH",
"193 -107 OFFCURVE",
"185 -99 OFFCURVE",
"185 -83 CURVE SMOOTH",
"185 -75 LINE",
"111 -79 LINE",
"111 -85 LINE SMOOTH",
"111 -126 OFFCURVE",
"144 -147 OFFCURVE",
"207 -147 CURVE SMOOTH",
"276 -147 OFFCURVE",
"308 -128 OFFCURVE",
"308 -88 CURVE SMOOTH",
"308 -52 OFFCURVE",
"284 -35 OFFCURVE",
"234 -35 CURVE",
"234 -9 LINE",
"323 1 OFFCURVE",
"374 61 OFFCURVE",
"374 158 CURVE SMOOTH",
"374 242 LINE",
"272 247 LINE",
"272 169 LINE SMOOTH",
"272 113 OFFCURVE",
"251 88 OFFCURVE",
"212 88 CURVE SMOOTH",
"173 88 OFFCURVE",
"152 113 OFFCURVE",
"152 159 CURVE SMOOTH",
"152 541 LINE SMOOTH",
"152 587 OFFCURVE",
"173 612 OFFCURVE",
"212 612 CURVE SMOOTH",
"251 612 OFFCURVE",
"272 587 OFFCURVE",
"272 531 CURVE SMOOTH",
"272 474 LINE",
"374 479 LINE",
"374 542 LINE SMOOTH",
"374 648 OFFCURVE",
"313 710 OFFCURVE",
"209 710 CURVE SMOOTH"
);
}
);
};
layerId = "959C6BA0-AD18-4631-88F4-5A4A3C51B359";
paths = (
{
closed = 1;
nodes = (
"106 710 OFFCURVE",
"46 648 OFFCURVE",
"46 542 CURVE SMOOTH",
"46 158 LINE SMOOTH",
"46 60 OFFCURVE",
"97 0 OFFCURVE",
"186 -9 CURVE",
"186 -53 LINE",
"196 -53 LINE SMOOTH",
"222 -53 OFFCURVE",
"231 -61 OFFCURVE",
"231 -83 CURVE SMOOTH",
"231 -99 OFFCURVE",
"223 -107 OFFCURVE",
"208 -107 CURVE SMOOTH",
"193 -107 OFFCURVE",
"185 -99 OFFCURVE",
"185 -83 CURVE SMOOTH",
"185 -75 LINE",
"111 -79 LINE",
"111 -85 LINE SMOOTH",
"111 -126 OFFCURVE",
"144 -147 OFFCURVE",
"207 -147 CURVE SMOOTH",
"276 -147 OFFCURVE",
"308 -128 OFFCURVE",
"308 -88 CURVE SMOOTH",
"308 -52 OFFCURVE",
"284 -35 OFFCURVE",
"234 -35 CURVE",
"234 -9 LINE",
"323 1 OFFCURVE",
"374 61 OFFCURVE",
"374 158 CURVE SMOOTH",
"374 242 LINE",
"272 247 LINE",
"272 169 LINE SMOOTH",
"272 113 OFFCURVE",
"251 88 OFFCURVE",
"212 88 CURVE SMOOTH",
"173 88 OFFCURVE",
"152 113 OFFCURVE",
"152 159 CURVE SMOOTH",
"152 541 LINE SMOOTH",
"152 587 OFFCURVE",
"173 612 OFFCURVE",
"212 612 CURVE SMOOTH",
"251 612 OFFCURVE",
"272 587 OFFCURVE",
"272 531 CURVE SMOOTH",
"272 474 LINE",
"374 479 LINE",
"374 542 LINE SMOOTH",
"374 648 OFFCURVE",
"313 710 OFFCURVE",
"209 710 CURVE SMOOTH"
);
}
);
width = 407;
}
);
leftKerningGroup = O;
rightKerningGroup = C;
unicode = 00C7;
},
{
color = 0;
glyphname = D;
lastChange = "2018-04-04 05:25:25 +0000";
layers = (
{
anchors = (
{
name = center;
position = "{215, 350}";
},
{
name = top;
position = "{197, 700}";
}
);
background = {
anchors = (
{
name = center;
position = "{215, 350}";
},
{
name = top;
position = "{197, 700}";
}
);
paths = (
{
closed = 1;
nodes = (
"57 700 LINE",
"57 0 LINE",
"209 0 LINE SMOOTH",
"323 0 OFFCURVE",
"385 62 OFFCURVE",
"385 177 CURVE SMOOTH",
"385 523 LINE SMOOTH",
"385 638 OFFCURVE",
"323 700 OFFCURVE",
"209 700 CURVE SMOOTH"
);
},
{
closed = 1;
nodes = (
"256 602 OFFCURVE",
"279 575 OFFCURVE",
"279 516 CURVE SMOOTH",
"279 184 LINE SMOOTH",
"279 125 OFFCURVE",
"256 98 OFFCURVE",
"205 98 CURVE SMOOTH",
"163 98 LINE",
"163 602 LINE",
"205 602 LINE SMOOTH"
);
}
);
};
layerId = "959C6BA0-AD18-4631-88F4-5A4A3C51B359";
paths = (
{
closed = 1;
nodes = (
"57 700 LINE",
"57 0 LINE",
"209 0 LINE SMOOTH",
"323 0 OFFCURVE",
"385 62 OFFCURVE",
"385 177 CURVE SMOOTH",
"385 523 LINE SMOOTH",
"385 638 OFFCURVE",
"323 700 OFFCURVE",
"209 700 CURVE SMOOTH"
);
},
{
closed = 1;
nodes = (
"256 602 OFFCURVE",
"279 575 OFFCURVE",
"279 516 CURVE SMOOTH",
"279 184 LINE SMOOTH",
"279 125 OFFCURVE",
"256 98 OFFCURVE",
"205 98 CURVE SMOOTH",
"163 98 LINE",
"163 602 LINE",
"205 602 LINE SMOOTH"
);
}
);
width = 431;
}
);
leftMetricsKey = H;
rightKerningGroup = O;
rightMetricsKey = O;
unicode = 0044;
},
{
color = 0;
glyphname = Eth;
lastChange = "2018-04-04 05:25:25 +0000";
layers = (
{
anchors = (
{
name = center;
position = "{222, 350}";
},
{
name = top;
position = "{200, 700}";
}
);
background = {
anchors = (
{
name = center;
position = "{222, 350}";
},
{
name = top;
position = "{200, 700}";
}
);
paths = (
{
closed = 1;
nodes = (
"64 700 LINE",
"64 398 LINE",
"20 398 LINE",
"20 300 LINE",
"64 300 LINE",
"64 0 LINE",
"216 0 LINE SMOOTH",
"330 0 OFFCURVE",
"392 62 OFFCURVE",
"392 177 CURVE SMOOTH",
"392 523 LINE SMOOTH",
"392 638 OFFCURVE",
"330 700 OFFCURVE",
"216 700 CURVE SMOOTH"
);
},
{
closed = 1;
nodes = (
"263 602 OFFCURVE",
"286 575 OFFCURVE",
"286 516 CURVE SMOOTH",
"286 184 LINE SMOOTH",
"286 125 OFFCURVE",
"263 98 OFFCURVE",
"212 98 CURVE SMOOTH",
"170 98 LINE",
"170 300 LINE",
"233 300 LINE",
"233 398 LINE",
"170 398 LINE",
"170 602 LINE",
"212 602 LINE SMOOTH"
);
}
);
};
layerId = "959C6BA0-AD18-4631-88F4-5A4A3C51B359";
paths = (
{
closed = 1;
nodes = (
"64 700 LINE",
"64 398 LINE",
"20 398 LINE",
"20 300 LINE",
"64 300 LINE",
"64 0 LINE",
"216 0 LINE SMOOTH",
"330 0 OFFCURVE",
"392 62 OFFCURVE",
"392 177 CURVE SMOOTH",
"392 523 LINE SMOOTH",
"392 638 OFFCURVE",
"330 700 OFFCURVE",
"216 700 CURVE SMOOTH"
);
},
{
closed = 1;
nodes = (
"263 602 OFFCURVE",
"286 575 OFFCURVE",
"286 516 CURVE SMOOTH",
"286 184 LINE SMOOTH",
"286 125 OFFCURVE",
"263 98 OFFCURVE",
"212 98 CURVE SMOOTH",
"170 98 LINE",
"170 300 LINE",
"233 300 LINE",
"233 398 LINE",
"170 398 LINE",
"170 602 LINE",
"212 602 LINE SMOOTH"
);
}
);
width = 438;
}
);
rightKerningGroup = O;
rightMetricsKey = D;
unicode = 00D0;
},
{
color = 0;
glyphname = E;
lastChange = "2018-04-04 05:25:25 +0000";
layers = (
{
anchors = (
{
name = bottom;
position = "{195, 0}";
},
{
name = ogonek;
position = "{355, 0}";
},
{
name = top;
position = "{205, 700}";
}
);
background = {
anchors = (
{
name = bottom;
position = "{195, 0}";
},
{
name = ogonek;
position = "{355, 0}";
},
{
name = top;
position = "{205, 700}";
}
);
paths = (
{
closed = 1;
nodes = (
"57 700 LINE",
"57 0 LINE",
"355 0 LINE",
"355 98 LINE",
"163 98 LINE",
"163 306 LINE",
"318 306 LINE",
"318 404 LINE",
"163 404 LINE",
"163 602 LINE",
"355 602 LINE",
"355 700 LINE"
);
}
);
};
layerId = "959C6BA0-AD18-4631-88F4-5A4A3C51B359";
paths = (
{
closed = 1;
nodes = (
"57 700 LINE",
"57 0 LINE",
"355 0 LINE",
"355 98 LINE",
"163 98 LINE",
"163 306 LINE",
"318 306 LINE",
"318 404 LINE",
"163 404 LINE",
"163 602 LINE",
"355 602 LINE",
"355 700 LINE"
);
}
);
width = 388;
}
);
leftMetricsKey = H;
rightKerningGroup = E;
unicode = 0045;
},
{
color = 0;
glyphname = Eogonek;
lastChange = "2018-04-04 05:25:25 +0000";
layers = (
{
anchors = (
{
name = bottom;
position = "{195, 0}";
},
{
name = ogonek;
position = "{355, 0}";
},
{
name = top;
position = "{205, 700}";
}
);
background = {
anchors = (
{
name = bottom;
position = "{195, 0}";
},
{
name = ogonek;
position = "{355, 0}";
},
{
name = top;
position = "{205, 700}";
}
);
paths = (
{
closed = 1;
nodes = (
"57 700 LINE",
"57 0 LINE",
"264 0 LINE",
"264 -2 LINE",
"220 -26 OFFCURVE",
"200 -55 OFFCURVE",
"200 -86 CURVE SMOOTH",
"200 -126 OFFCURVE",
"231 -147 OFFCURVE",
"287 -147 CURVE SMOOTH",
"312 -147 OFFCURVE",
"332 -143 OFFCURVE",
"355 -131 CURVE",
"350 -70 LINE",
"340 -77 OFFCURVE",
"327 -81 OFFCURVE",
"314 -81 CURVE SMOOTH",
"295 -81 OFFCURVE",
"282 -72 OFFCURVE",
"282 -53 CURVE SMOOTH",
"282 -39 OFFCURVE",
"289 -20 OFFCURVE",
"314 0 CURVE",
"355 0 LINE",
"355 98 LINE",
"163 98 LINE",
"163 306 LINE",
"318 306 LINE",
"318 404 LINE",
"163 404 LINE",
"163 602 LINE",
"355 602 LINE",
"355 700 LINE"
);
}
);
};
layerId = "959C6BA0-AD18-4631-88F4-5A4A3C51B359";
paths = (
{
closed = 1;
nodes = (
"57 700 LINE",
"57 0 LINE",
"264 0 LINE",
"264 -2 LINE",
"220 -26 OFFCURVE",
"200 -55 OFFCURVE",
"200 -86 CURVE SMOOTH",
"200 -126 OFFCURVE",
"231 -147 OFFCURVE",
"287 -147 CURVE SMOOTH",
"312 -147 OFFCURVE",
"332 -143 OFFCURVE",
"355 -131 CURVE",
"350 -70 LINE",
"340 -77 OFFCURVE",
"327 -81 OFFCURVE",
"314 -81 CURVE SMOOTH",
"295 -81 OFFCURVE",
"282 -72 OFFCURVE",
"282 -53 CURVE SMOOTH",
"282 -39 OFFCURVE",
"289 -20 OFFCURVE",
"314 0 CURVE",
"355 0 LINE",
"355 98 LINE",
"163 98 LINE",
"163 306 LINE",
"318 306 LINE",
"318 404 LINE",
"163 404 LINE",
"163 602 LINE",
"355 602 LINE",
"355 700 LINE"
);
}
);
width = 388;
}
);
leftMetricsKey = H;
rightKerningGroup = E;
rightMetricsKey = E;
unicode = 0118;
},
{
color = 0;
glyphname = F;
lastChange = "2018-04-04 05:25:25 +0000";
layers = (
{
anchors = (
{
name = top;
position = "{196, 700}";
}
);
background = {
anchors = (
{
name = top;
position = "{196, 700}";
}
);
paths = (
{
closed = 1;
nodes = (
"57 700 LINE",
"57 0 LINE",
"163 0 LINE",
"163 306 LINE",
"313 306 LINE",
"313 404 LINE",
"163 404 LINE",
"163 602 LINE",
"350 602 LINE",
"350 700 LINE"
);
}
);
};
layerId = "959C6BA0-AD18-4631-88F4-5A4A3C51B359";
paths = (
{
closed = 1;
nodes = (
"57 700 LINE",
"57 0 LINE",
"163 0 LINE",
"163 306 LINE",
"313 306 LINE",
"313 404 LINE",
"163 404 LINE",
"163 602 LINE",
"350 602 LINE",
"350 700 LINE"
);
}
);
width = 363;
}
);
leftMetricsKey = H;
rightKerningGroup = F;
unicode = 0046;
},
{
color = 0;
glyphname = G;
lastChange = "2018-04-04 05:25:25 +0000";
layers = (
{
anchors = (
{
name = bottom;
position = "{211, 0}";
},
{
name = top;
position = "{211, 700}";
}
);
background = {
anchors = (
{
name = bottom;
position = "{211, 0}";
},
{
name = top;
position = "{211, 700}";
}
);
paths = (
{
closed = 1;
nodes = (
"106 710 OFFCURVE",
"46 648 OFFCURVE",
"46 542 CURVE SMOOTH",
"46 158 LINE SMOOTH",
"46 52 OFFCURVE",
"106 -10 OFFCURVE",
"211 -10 CURVE SMOOTH",
"317 -10 OFFCURVE",
"378 52 OFFCURVE",
"378 158 CURVE SMOOTH",
"378 387 LINE",
"214 387 LINE",
"214 289 LINE",
"274 289 LINE",
"274 169 LINE SMOOTH",
"274 113 OFFCURVE",
"254 88 OFFCURVE",
"213 88 CURVE SMOOTH",
"172 88 OFFCURVE",
"152 113 OFFCURVE",
"152 159 CURVE SMOOTH",
"152 541 LINE SMOOTH",
"152 587 OFFCURVE",
"173 612 OFFCURVE",
"214 612 CURVE SMOOTH",
"255 612 OFFCURVE",
"276 587 OFFCURVE",
"276 531 CURVE SMOOTH",
"276 489 LINE",
"378 494 LINE",
"378 542 LINE SMOOTH",
"378 648 OFFCURVE",
"317 710 OFFCURVE",
"211 710 CURVE SMOOTH"
);
}
);
};
layerId = "959C6BA0-AD18-4631-88F4-5A4A3C51B359";
paths = (
{
closed = 1;
nodes = (
"106 710 OFFCURVE",
"46 648 OFFCURVE",
"46 542 CURVE SMOOTH",
"46 158 LINE SMOOTH",
"46 52 OFFCURVE",
"106 -10 OFFCURVE",
"211 -10 CURVE SMOOTH",
"317 -10 OFFCURVE",
"378 52 OFFCURVE",
"378 158 CURVE SMOOTH",
"378 387 LINE",
"214 387 LINE",
"214 289 LINE",
"274 289 LINE",
"274 169 LINE SMOOTH",
"274 113 OFFCURVE",
"254 88 OFFCURVE",
"213 88 CURVE SMOOTH",
"172 88 OFFCURVE",
"152 113 OFFCURVE",
"152 159 CURVE SMOOTH",
"152 541 LINE SMOOTH",
"152 587 OFFCURVE",
"173 612 OFFCURVE",
"214 612 CURVE SMOOTH",
"255 612 OFFCURVE",
"276 587 OFFCURVE",
"276 531 CURVE SMOOTH",
"276 489 LINE",
"378 494 LINE",
"378 542 LINE SMOOTH",
"378 648 OFFCURVE",
"317 710 OFFCURVE",
"211 710 CURVE SMOOTH"
);
}
);
width = 421;
}
);
leftKerningGroup = O;
leftMetricsKey = O;
rightKerningGroup = G;
unicode = 0047;
},
{
color = 0;
glyphname = H;
lastChange = "2018-04-04 05:25:25 +0000";
layers = (
{
anchors = (
{
name = center;
position = "{226, 350}";
},
{
name = top;
position = "{226, 700}";
}
);
background = {
anchors = (
{
name = center;
position = "{226, 350}";
},
{
name = top;
position = "{226, 700}";
}
);
paths = (
{
closed = 1;
nodes = (
"289 700 LINE",
"289 405 LINE",
"163 405 LINE",
"163 700 LINE",
"57 700 LINE",
"57 0 LINE",
"163 0 LINE",
"163 305 LINE",
"289 305 LINE",
"289 0 LINE",
"395 0 LINE",
"395 700 LINE"
);
}
);
};
layerId = "959C6BA0-AD18-4631-88F4-5A4A3C51B359";
paths = (
{
closed = 1;
nodes = (
"289 700 LINE",
"289 405 LINE",
"163 405 LINE",
"163 700 LINE",
"57 700 LINE",
"57 0 LINE",
"163 0 LINE",
"163 305 LINE",
"289 305 LINE",
"289 0 LINE",
"395 0 LINE",
"395 700 LINE"
);
}
);
width = 452;
}
);
unicode = 0048;
},
{
color = 0;
glyphname = Hbar;
lastChange = "2018-04-04 05:25:25 +0000";
layers = (
{
anchors = (
{
name = center;
position = "{231, 350}";
},
{
name = top;
position = "{231, 700}";
}
);
background = {
anchors = (
{
name = center;
position = "{231, 350}";
},
{
name = top;
position = "{231, 700}";
}
);
paths = (
{
closed = 1;
nodes = (
"294 700 LINE",
"294 601 LINE",
"168 601 LINE",
"168 700 LINE",
"62 700 LINE",
"62 601 LINE",
"18 601 LINE",
"18 509 LINE",
"62 509 LINE",
"62 0 LINE",
"168 0 LINE",
"168 305 LINE",
"294 305 LINE",
"294 0 LINE",
"400 0 LINE",
"400 509 LINE",
"444 509 LINE",
"444 601 LINE",
"400 601 LINE",
"400 700 LINE"
);
},
{
closed = 1;
nodes = (
"294 405 LINE",
"168 405 LINE",
"168 509 LINE",
"294 509 LINE"
);
}
);
};
layerId = "959C6BA0-AD18-4631-88F4-5A4A3C51B359";
paths = (
{
closed = 1;
nodes = (
"294 700 LINE",
"294 601 LINE",
"168 601 LINE",
"168 700 LINE",
"62 700 LINE",
"62 601 LINE",
"18 601 LINE",
"18 509 LINE",
"62 509 LINE",
"62 0 LINE",
"168 0 LINE",
"168 305 LINE",
"294 305 LINE",
"294 0 LINE",
"400 0 LINE",
"400 509 LINE",
"444 509 LINE",
"444 601 LINE",
"400 601 LINE",
"400 700 LINE"
);
},
{
closed = 1;
nodes = (
"294 405 LINE",
"168 405 LINE",
"168 509 LINE",
"294 509 LINE"
);
}
);
width = 462;
}
);
unicode = 0126;
},
{
color = 0;
glyphname = I;
lastChange = "2018-04-04 05:25:25 +0000";
layers = (
{
anchors = (
{
name = ogonek;
position = "{185, 0}";
},
{
name = top;
position = "{110, 700}";
}
);
background = {
anchors = (
{
name = ogonek;
position = "{185, 0}";
},
{
name = top;
position = "{110, 700}";
}
);
paths = (
{
closed = 1;
nodes = (
"57 700 LINE",
"57 0 LINE",
"163 0 LINE",
"163 700 LINE"
);
}
);
};
layerId = "959C6BA0-AD18-4631-88F4-5A4A3C51B359";
paths = (
{
closed = 1;
nodes = (
"57 700 LINE",
"57 0 LINE",
"163 0 LINE",
"163 700 LINE"
);
}
);
width = 220;
}
);
leftMetricsKey = H;
rightMetricsKey = H;
unicode = 0049;
},
{
color = 0;
glyphname = Iogonek;
lastChange = "2018-04-04 05:25:25 +0000";
layers = (
{
anchors = (
{
name = ogonek;
position = "{185, 0}";
},
{
name = top;
position = "{110, 700}";
}
);
background = {
anchors = (
{
name = ogonek;
position = "{185, 0}";
},
{
name = top;
position = "{110, 700}";
}
);
paths = (
{
closed = 1;
nodes = (
"57 700 LINE",
"57 0 LINE",
"94 0 LINE",
"94 -2 LINE",
"50 -26 OFFCURVE",
"30 -55 OFFCURVE",
"30 -86 CURVE SMOOTH",
"30 -126 OFFCURVE",
"61 -147 OFFCURVE",
"117 -147 CURVE SMOOTH",
"142 -147 OFFCURVE",
"162 -143 OFFCURVE",
"185 -131 CURVE",
"180 -70 LINE",
"170 -77 OFFCURVE",
"157 -81 OFFCURVE",
"144 -81 CURVE SMOOTH",
"125 -81 OFFCURVE",
"112 -72 OFFCURVE",
"112 -53 CURVE SMOOTH",
"112 -39 OFFCURVE",
"119 -20 OFFCURVE",
"144 0 CURVE",
"163 0 LINE",
"163 700 LINE"
);
}
);
};
layerId = "959C6BA0-AD18-4631-88F4-5A4A3C51B359";
paths = (
{
closed = 1;
nodes = (
"57 700 LINE",
"57 0 LINE",
"94 0 LINE",
"94 -2 LINE",
"50 -26 OFFCURVE",
"30 -55 OFFCURVE",
"30 -86 CURVE SMOOTH",
"30 -126 OFFCURVE",
"61 -147 OFFCURVE",
"117 -147 CURVE SMOOTH",
"142 -147 OFFCURVE",
"162 -143 OFFCURVE",
"185 -131 CURVE",
"180 -70 LINE",
"170 -77 OFFCURVE",
"157 -81 OFFCURVE",
"144 -81 CURVE SMOOTH",
"125 -81 OFFCURVE",
"112 -72 OFFCURVE",
"112 -53 CURVE SMOOTH",
"112 -39 OFFCURVE",
"119 -20 OFFCURVE",
"144 0 CURVE",
"163 0 LINE",
"163 700 LINE"
);
}
);
width = 220;
}
);
widthMetricsKey = I;
unicode = 012E;
},
{
color = 0;
glyphname = J;
lastChange = "2018-04-04 05:25:25 +0000";
layers = (
{
anchors = (
{
name = top;
position = "{196, 700}";
}
);
background = {
anchors = (
{
name = top;
position = "{196, 700}";
}
);
paths = (
{
closed = 1;
nodes = (
"143 700 LINE",
"143 166 LINE SMOOTH",
"143 112 OFFCURVE",
"122 88 OFFCURVE",
"73 88 CURVE SMOOTH",
"52 88 OFFCURVE",
"34 92 OFFCURVE",
"21 96 CURVE",
"15 -1 LINE",
"37 -7 OFFCURVE",
"61 -10 OFFCURVE",
"86 -10 CURVE SMOOTH",
"196 -10 OFFCURVE",
"249 51 OFFCURVE",
"249 163 CURVE SMOOTH",
"249 700 LINE"
);
}
);
};
layerId = "959C6BA0-AD18-4631-88F4-5A4A3C51B359";
paths = (
{
closed = 1;
nodes = (
"143 700 LINE",
"143 166 LINE SMOOTH",
"143 112 OFFCURVE",
"122 88 OFFCURVE",
"73 88 CURVE SMOOTH",
"52 88 OFFCURVE",
"34 92 OFFCURVE",
"21 96 CURVE",
"15 -1 LINE",
"37 -7 OFFCURVE",
"61 -10 OFFCURVE",
"86 -10 CURVE SMOOTH",
"196 -10 OFFCURVE",
"249 51 OFFCURVE",
"249 163 CURVE SMOOTH",
"249 700 LINE"
);
}
);
width = 301;
}
);
leftKerningGroup = J;
rightKerningGroup = U;
unicode = 004A;
},
{
color = 0;
glyphname = K;
lastChange = "2018-04-04 05:25:25 +0000";
layers = (
{
anchors = (
{
name = bottom;
position = "{235, 0}";
},
{
name = top;
position = "{222, 700}";
}
);
background = {
anchors = (
{
name = bottom;
position = "{235, 0}";
},
{
name = top;
position = "{222, 700}";
}
);
paths = (
{
closed = 1;
nodes = (
"312 700 LINE",
"165 408 LINE",
"163 408 LINE",
"163 700 LINE",
"57 700 LINE",
"57 0 LINE",
"163 0 LINE",
"163 216 LINE",
"209 306 LINE",
"313 0 LINE",
"426 0 LINE",
"279 422 LINE",
"423 700 LINE"
);
}
);
};
layerId = "959C6BA0-AD18-4631-88F4-5A4A3C51B359";
paths = (
{
closed = 1;
nodes = (
"312 700 LINE",
"165 408 LINE",
"163 408 LINE",
"163 700 LINE",
"57 700 LINE",
"57 0 LINE",
"163 0 LINE",
"163 216 LINE",
"209 306 LINE",
"313 0 LINE",
"426 0 LINE",
"279 422 LINE",
"423 700 LINE"
);
}
);
width = 432;
}
);
leftMetricsKey = H;
rightKerningGroup = K;
unicode = 004B;
},
{
color = 0;
glyphname = L;
lastChange = "2018-04-04 05:25:25 +0000";
layers = (
{
anchors = (
{
name = bottom;
position = "{200, 0}";
},
{
name = top;
position = "{110, 700}";
},
{
name = topright;
position = "{336, 700}";
}
);
background = {
anchors = (
{
name = bottom;
position = "{200, 0}";
},
{
name = top;
position = "{110, 700}";
},
{
name = topright;
position = "{336, 700}";
}
);
paths = (
{
closed = 1;
nodes = (
"57 700 LINE",
"57 0 LINE",
"340 0 LINE",
"340 100 LINE",
"163 100 LINE",
"163 700 LINE"
);
}
);
};
layerId = "959C6BA0-AD18-4631-88F4-5A4A3C51B359";
paths = (
{
closed = 1;
nodes = (
"57 700 LINE",
"57 0 LINE",
"340 0 LINE",
"340 100 LINE",
"163 100 LINE",
"163 700 LINE"
);
}
);
width = 351;
}
);
leftMetricsKey = H;
rightKerningGroup = L;
unicode = 004C;
},
{
color = 0;
glyphname = Lcaron;
lastChange = "2018-04-04 05:25:25 +0000";
layers = (
{
background = {
components = (
{
name = L;
}
);
paths = (
{
closed = 1;
nodes = (
"214 700 LINE",
"214 608 LINE",
"247 608 LINE",
"214 536 LINE",
"264 536 LINE",
"316 617 LINE",
"316 700 LINE"
);
}
);
};
components = (
{
name = L;
}
);
layerId = "959C6BA0-AD18-4631-88F4-5A4A3C51B359";
paths = (
{
closed = 1;
nodes = (
"214 700 LINE",
"214 608 LINE",
"247 608 LINE",
"214 536 LINE",
"264 536 LINE",
"316 617 LINE",
"316 700 LINE"
);
}
);
width = 351;
}
);
leftMetricsKey = H;
rightMetricsKey = L;
unicode = 013D;
},
{
color = 0;
glyphname = Lslash;
lastChange = "2018-04-04 05:25:25 +0000";
layers = (
{
anchors = (
{
name = bottom;
position = "{207, 0}";
},
{
name = top;
position = "{117, 700}";
},
{
name = topright;
position = "{343, 700}";
}
);
background = {
anchors = (
{
name = bottom;
position = "{207, 0}";
},
{
name = top;
position = "{117, 700}";
},
{
name = topright;
position = "{343, 700}";
}
);
paths = (
{
closed = 1;
nodes = (
"64 700 LINE",
"64 351 LINE",
"21 320 LINE",
"21 220 LINE",
"64 251 LINE",
"64 0 LINE",
"347 0 LINE",
"347 100 LINE",
"170 100 LINE",
"170 327 LINE",
"299 420 LINE",
"299 520 LINE",
"170 427 LINE",
"170 700 LINE"
);
}
);
};
layerId = "959C6BA0-AD18-4631-88F4-5A4A3C51B359";
paths = (
{
closed = 1;
nodes = (
"64 700 LINE",
"64 351 LINE",
"21 320 LINE",
"21 220 LINE",
"64 251 LINE",
"64 0 LINE",
"347 0 LINE",
"347 100 LINE",
"170 100 LINE",
"170 327 LINE",
"299 420 LINE",
"299 520 LINE",
"170 427 LINE",
"170 700 LINE"
);
}
);
width = 358;
}
);
rightMetricsKey = L;
unicode = 0141;
},
{
color = 0;
glyphname = M;
lastChange = "2018-04-04 05:25:25 +0000";
layers = (
{
background = {
paths = (
{
closed = 1;
nodes = (
"363 700 LINE",
"281 324 LINE",
"279 324 LINE",
"196 700 LINE",
"57 700 LINE",
"57 0 LINE",
"157 0 LINE",
"157 486 LINE",
"159 486 LINE",
"247 100 LINE",
"310 100 LINE",
"398 486 LINE",
"400 486 LINE",
"400 0 LINE",
"506 0 LINE",
"506 700 LINE"
);
}
);
};
layerId = "959C6BA0-AD18-4631-88F4-5A4A3C51B359";
paths = (
{
closed = 1;
nodes = (
"363 700 LINE",
"281 324 LINE",
"279 324 LINE",
"196 700 LINE",
"57 700 LINE",
"57 0 LINE",
"157 0 LINE",
"157 486 LINE",
"159 486 LINE",
"247 100 LINE",
"310 100 LINE",
"398 486 LINE",
"400 486 LINE",
"400 0 LINE",
"506 0 LINE",
"506 700 LINE"
);
}
);
width = 563;
}
);
leftMetricsKey = H;
rightMetricsKey = H;
unicode = 004D;
},
{
color = 0;
glyphname = N;
lastChange = "2018-04-04 05:25:25 +0000";
layers = (
{
anchors = (
{
name = bottom;
position = "{230, 0}";
},
{
name = top;
position = "{230, 700}";
}
);
background = {
anchors = (
{
name = bottom;
position = "{230, 0}";
},
{
name = top;
position = "{230, 700}";
}
);
paths = (
{
closed = 1;
nodes = (
"302 700 LINE",
"302 283 LINE",
"300 283 LINE",
"175 700 LINE",
"57 700 LINE",
"57 0 LINE",
"157 0 LINE",
"157 464 LINE",
"159 464 LINE",
"298 0 LINE",
"402 0 LINE",
"402 700 LINE"
);
}
);
};
layerId = "959C6BA0-AD18-4631-88F4-5A4A3C51B359";
paths = (
{
closed = 1;
nodes = (
"302 700 LINE",
"302 283 LINE",
"300 283 LINE",
"175 700 LINE",
"57 700 LINE",
"57 0 LINE",
"157 0 LINE",
"157 464 LINE",
"159 464 LINE",
"298 0 LINE",
"402 0 LINE",
"402 700 LINE"
);
}
);
width = 459;
}
);
leftMetricsKey = H;
rightMetricsKey = H;
unicode = 004E;
},
{
color = 0;
glyphname = Eng;
lastChange = "2018-04-04 05:25:25 +0000";
layers = (
{
anchors = (
{
name = bottom;
position = "{230, 0}";
}
);
background = {
anchors = (
{
name = bottom;
position = "{230, 0}";
}
);
paths = (
{
closed = 1;
nodes = (
"302 700 LINE",
"302 283 LINE",
"300 283 LINE",
"175 700 LINE",
"57 700 LINE",
"57 0 LINE",
"157 0 LINE",
"157 464 LINE",
"159 464 LINE",
"296 6 LINE",
"296 3 LINE SMOOTH",
"296 -51 OFFCURVE",
"275 -75 OFFCURVE",
"226 -75 CURVE SMOOTH",
"205 -75 OFFCURVE",
"187 -71 OFFCURVE",
"174 -67 CURVE",
"168 -164 LINE",
"190 -170 OFFCURVE",
"214 -173 OFFCURVE",
"239 -173 CURVE SMOOTH",
"349 -173 OFFCURVE",
"402 -112 OFFCURVE",
"402 0 CURVE SMOOTH",
"402 700 LINE"
);
}
);
};
layerId = "959C6BA0-AD18-4631-88F4-5A4A3C51B359";
paths = (
{
closed = 1;
nodes = (
"302 700 LINE",
"302 283 LINE",
"300 283 LINE",
"175 700 LINE",
"57 700 LINE",
"57 0 LINE",
"157 0 LINE",
"157 464 LINE",
"159 464 LINE",
"296 6 LINE",
"296 3 LINE SMOOTH",
"296 -51 OFFCURVE",
"275 -75 OFFCURVE",
"226 -75 CURVE SMOOTH",
"205 -75 OFFCURVE",
"187 -71 OFFCURVE",
"174 -67 CURVE",
"168 -164 LINE",
"190 -170 OFFCURVE",
"214 -173 OFFCURVE",
"239 -173 CURVE SMOOTH",
"349 -173 OFFCURVE",
"402 -112 OFFCURVE",
"402 0 CURVE SMOOTH",
"402 700 LINE"
);
}
);
width = 459;
}
);
leftMetricsKey = H;
rightMetricsKey = H;
unicode = 014A;
},
{
color = 0;
glyphname = O;
lastChange = "2018-04-04 05:25:25 +0000";
layers = (
{
anchors = (
{
name = top;
position = "{217, 700}";
}
);
background = {
anchors = (
{
name = top;
position = "{217, 700}";
}
);
paths = (
{
closed = 1;
nodes = (
"111 710 OFFCURVE",
"46 643 OFFCURVE",
"46 533 CURVE SMOOTH",
"46 167 LINE SMOOTH",
"46 57 OFFCURVE",
"111 -10 OFFCURVE",
"217 -10 CURVE SMOOTH",
"323 -10 OFFCURVE",
"388 57 OFFCURVE",
"388 167 CURVE SMOOTH",
"388 533 LINE SMOOTH",
"388 643 OFFCURVE",
"323 710 OFFCURVE",
"217 710 CURVE SMOOTH"
);
},
{
closed = 1;
nodes = (
"259 612 OFFCURVE",
"282 584 OFFCURVE",
"282 532 CURVE SMOOTH",
"282 168 LINE SMOOTH",
"282 116 OFFCURVE",
"259 88 OFFCURVE",
"217 88 CURVE SMOOTH",
"175 88 OFFCURVE",
"152 116 OFFCURVE",
"152 168 CURVE SMOOTH",
"152 532 LINE SMOOTH",
"152 584 OFFCURVE",
"175 612 OFFCURVE",
"217 612 CURVE SMOOTH"
);
}
);
};
layerId = "959C6BA0-AD18-4631-88F4-5A4A3C51B359";
paths = (
{
closed = 1;
nodes = (
"111 710 OFFCURVE",
"46 643 OFFCURVE",
"46 533 CURVE SMOOTH",
"46 167 LINE SMOOTH",
"46 57 OFFCURVE",
"111 -10 OFFCURVE",
"217 -10 CURVE SMOOTH",
"323 -10 OFFCURVE",
"388 57 OFFCURVE",
"388 167 CURVE SMOOTH",
"388 533 LINE SMOOTH",
"388 643 OFFCURVE",
"323 710 OFFCURVE",
"217 710 CURVE SMOOTH"
);
},
{
closed = 1;
nodes = (
"259 612 OFFCURVE",
"282 584 OFFCURVE",
"282 532 CURVE SMOOTH",
"282 168 LINE SMOOTH",
"282 116 OFFCURVE",
"259 88 OFFCURVE",
"217 88 CURVE SMOOTH",
"175 88 OFFCURVE",
"152 116 OFFCURVE",
"152 168 CURVE SMOOTH",
"152 532 LINE SMOOTH",
"152 584 OFFCURVE",
"175 612 OFFCURVE",
"217 612 CURVE SMOOTH"
);
}
);
width = 434;
}
);
leftKerningGroup = O;
rightKerningGroup = O;
unicode = 004F;
},
{
color = 0;
glyphname = Oslash;
lastChange = "2018-04-04 05:25:25 +0000";
layers = (
{
anchors = (
{
name = top;
position = "{217, 700}";
}
);
background = {
anchors = (
{
name = top;
position = "{217, 700}";
}
);
paths = (
{
closed = 1;
nodes = (
"316 684 LINE",
"290 701 OFFCURVE",
"256 710 OFFCURVE",
"217 710 CURVE SMOOTH",
"111 710 OFFCURVE",
"46 643 OFFCURVE",
"46 533 CURVE SMOOTH",
"46 167 LINE SMOOTH",
"46 132 OFFCURVE",
"53 101 OFFCURVE",
"65 75 CURVE",
"41 17 LINE",
"107 -10 LINE",
"118 16 LINE",
"144 -1 OFFCURVE",
"178 -10 OFFCURVE",
"217 -10 CURVE SMOOTH",
"323 -10 OFFCURVE",
"388 57 OFFCURVE",
"388 167 CURVE SMOOTH",
"388 533 LINE SMOOTH",
"388 568 OFFCURVE",
"381 599 OFFCURVE",
"369 625 CURVE",
"393 683 LINE",
"327 710 LINE"
);
},
{
closed = 1;
nodes = (
"282 168 LINE SMOOTH",
"282 116 OFFCURVE",
"259 88 OFFCURVE",
"217 88 CURVE SMOOTH",
"190 88 OFFCURVE",
"171 99 OFFCURVE",
"161 121 CURVE",
"281 412 LINE",
"282 412 LINE"
);
},
{
closed = 1;
nodes = (
"244 612 OFFCURVE",
"263 601 OFFCURVE",
"273 579 CURVE",
"153 288 LINE",
"152 288 LINE",
"152 532 LINE SMOOTH",
"152 584 OFFCURVE",
"175 612 OFFCURVE",
"217 612 CURVE SMOOTH"
);
}
);
};
layerId = "959C6BA0-AD18-4631-88F4-5A4A3C51B359";
paths = (
{
closed = 1;
nodes = (
"316 684 LINE",
"290 701 OFFCURVE",
"256 710 OFFCURVE",
"217 710 CURVE SMOOTH",
"111 710 OFFCURVE",
"46 643 OFFCURVE",
"46 533 CURVE SMOOTH",
"46 167 LINE SMOOTH",
"46 132 OFFCURVE",
"53 101 OFFCURVE",
"65 75 CURVE",
"41 17 LINE",
"107 -10 LINE",
"118 16 LINE",
"144 -1 OFFCURVE",
"178 -10 OFFCURVE",
"217 -10 CURVE SMOOTH",
"323 -10 OFFCURVE",
"388 57 OFFCURVE",
"388 167 CURVE SMOOTH",
"388 533 LINE SMOOTH",
"388 568 OFFCURVE",
"381 599 OFFCURVE",
"369 625 CURVE",
"393 683 LINE",
"327 710 LINE"
);
},
{
closed = 1;
nodes = (
"282 168 LINE SMOOTH",
"282 116 OFFCURVE",
"259 88 OFFCURVE",
"217 88 CURVE SMOOTH",
"190 88 OFFCURVE",
"171 99 OFFCURVE",
"161 121 CURVE",
"281 412 LINE",
"282 412 LINE"
);
},
{
closed = 1;
nodes = (
"244 612 OFFCURVE",
"263 601 OFFCURVE",
"273 579 CURVE",
"153 288 LINE",
"152 288 LINE",
"152 532 LINE SMOOTH",
"152 584 OFFCURVE",
"175 612 OFFCURVE",
"217 612 CURVE SMOOTH"
);
}
);
width = 434;
}
);
leftKerningGroup = O;
widthMetricsKey = O;
rightKerningGroup = O;
unicode = 00D8;
},
{
color = 0;
glyphname = OE;
lastChange = "2018-04-04 05:25:25 +0000";
layers = (
{
anchors = (
{
name = bottom;
position = "{406, 0}";
},
{
name = ogonek;
position = "{566, 0}";
},
{
name = top;
position = "{321, 700}";
}
);
background = {
anchors = (
{
name = bottom;
position = "{406, 0}";
},
{
name = ogonek;
position = "{566, 0}";
},
{
name = top;
position = "{321, 700}";
}
);
paths = (
{
closed = 1;
nodes = (
"222 700 LINE SMOOTH",
"108 700 OFFCURVE",
"46 638 OFFCURVE",
"46 523 CURVE SMOOTH",
"46 177 LINE SMOOTH",
"46 62 OFFCURVE",
"108 0 OFFCURVE",
"222 0 CURVE SMOOTH",
"566 0 LINE",
"566 98 LINE",
"374 98 LINE",
"374 306 LINE",
"529 306 LINE",
"529 404 LINE",
"374 404 LINE",
"374 602 LINE",
"566 602 LINE",
"566 700 LINE"
);
},
{
closed = 1;
nodes = (
"268 98 LINE",
"226 98 LINE SMOOTH",
"175 98 OFFCURVE",
"152 125 OFFCURVE",
"152 184 CURVE SMOOTH",
"152 516 LINE SMOOTH",
"152 575 OFFCURVE",
"175 602 OFFCURVE",
"226 602 CURVE SMOOTH",
"268 602 LINE"
);
}
);
};
layerId = "959C6BA0-AD18-4631-88F4-5A4A3C51B359";
paths = (
{
closed = 1;
nodes = (
"222 700 LINE SMOOTH",
"108 700 OFFCURVE",
"46 638 OFFCURVE",
"46 523 CURVE SMOOTH",
"46 177 LINE SMOOTH",
"46 62 OFFCURVE",
"108 0 OFFCURVE",
"222 0 CURVE SMOOTH",
"566 0 LINE",
"566 98 LINE",
"374 98 LINE",
"374 306 LINE",
"529 306 LINE",
"529 404 LINE",
"374 404 LINE",
"374 602 LINE",
"566 602 LINE",
"566 700 LINE"
);
},
{
closed = 1;
nodes = (
"268 98 LINE",
"226 98 LINE SMOOTH",
"175 98 OFFCURVE",
"152 125 OFFCURVE",
"152 184 CURVE SMOOTH",
"152 516 LINE SMOOTH",
"152 575 OFFCURVE",
"175 602 OFFCURVE",
"226 602 CURVE SMOOTH",
"268 602 LINE"
);
}
);
width = 599;
}
);
leftKerningGroup = O;
leftMetricsKey = O;
rightKerningGroup = E;
rightMetricsKey = E;
unicode = 0152;
},
{
color = 0;
glyphname = P;
lastChange = "2018-04-04 05:25:25 +0000";
layers = (
{
background = {
paths = (
{
closed = 1;
nodes = (
"57 700 LINE",
"57 0 LINE",
"163 0 LINE",
"163 290 LINE",
"210 290 LINE SMOOTH",
"324 290 OFFCURVE",
"386 352 OFFCURVE",
"386 467 CURVE SMOOTH",
"386 523 LINE SMOOTH",
"386 638 OFFCURVE",
"324 700 OFFCURVE",
"210 700 CURVE SMOOTH"
);
},
{
closed = 1;
nodes = (
"257 602 OFFCURVE",
"280 575 OFFCURVE",
"280 516 CURVE SMOOTH",
"280 474 LINE SMOOTH",
"280 415 OFFCURVE",
"257 388 OFFCURVE",
"206 388 CURVE SMOOTH",
"163 388 LINE",
"163 602 LINE",
"206 602 LINE SMOOTH"
);
}
);
};
layerId = "959C6BA0-AD18-4631-88F4-5A4A3C51B359";
paths = (
{
closed = 1;
nodes = (
"57 700 LINE",
"57 0 LINE",
"163 0 LINE",
"163 290 LINE",
"210 290 LINE SMOOTH",
"324 290 OFFCURVE",
"386 352 OFFCURVE",
"386 467 CURVE SMOOTH",
"386 523 LINE SMOOTH",
"386 638 OFFCURVE",
"324 700 OFFCURVE",
"210 700 CURVE SMOOTH"
);
},
{
closed = 1;
nodes = (
"257 602 OFFCURVE",
"280 575 OFFCURVE",
"280 516 CURVE SMOOTH",
"280 474 LINE SMOOTH",
"280 415 OFFCURVE",
"257 388 OFFCURVE",
"206 388 CURVE SMOOTH",
"163 388 LINE",
"163 602 LINE",
"206 602 LINE SMOOTH"
);
}
);
width = 407;
}
);
leftMetricsKey = H;
rightKerningGroup = P;
unicode = 0050;
},
{
color = 0;
glyphname = Thorn;
lastChange = "2018-04-04 05:25:25 +0000";
layers = (
{
background = {
paths = (
{
closed = 1;
nodes = (
"57 700 LINE",
"57 0 LINE",
"163 0 LINE",
"163 190 LINE",
"210 190 LINE SMOOTH",
"324 190 OFFCURVE",
"386 252 OFFCURVE",
"386 367 CURVE SMOOTH",
"386 423 LINE SMOOTH",
"386 538 OFFCURVE",
"324 600 OFFCURVE",
"210 600 CURVE SMOOTH",
"163 600 LINE",
"163 700 LINE"
);
},
{
closed = 1;
nodes = (
"257 502 OFFCURVE",
"280 475 OFFCURVE",
"280 416 CURVE SMOOTH",
"280 374 LINE SMOOTH",
"280 315 OFFCURVE",
"257 288 OFFCURVE",
"206 288 CURVE SMOOTH",
"163 288 LINE",
"163 502 LINE",
"206 502 LINE SMOOTH"
);
}
);
};
layerId = "959C6BA0-AD18-4631-88F4-5A4A3C51B359";
paths = (
{
closed = 1;
nodes = (
"57 700 LINE",
"57 0 LINE",
"163 0 LINE",
"163 190 LINE",
"210 190 LINE SMOOTH",
"324 190 OFFCURVE",
"386 252 OFFCURVE",
"386 367 CURVE SMOOTH",
"386 423 LINE SMOOTH",
"386 538 OFFCURVE",
"324 600 OFFCURVE",
"210 600 CURVE SMOOTH",
"163 600 LINE",
"163 700 LINE"
);
},
{
closed = 1;
nodes = (
"257 502 OFFCURVE",
"280 475 OFFCURVE",
"280 416 CURVE SMOOTH",
"280 374 LINE SMOOTH",
"280 315 OFFCURVE",
"257 288 OFFCURVE",
"206 288 CURVE SMOOTH",
"163 288 LINE",
"163 502 LINE",
"206 502 LINE SMOOTH"
);
}
);
width = 407;
}
);
leftMetricsKey = H;
rightKerningGroup = Thorn;
rightMetricsKey = P;
unicode = 00DE;
},
{
color = 0;
glyphname = Q;
lastChange = "2018-04-04 05:25:25 +0000";
layers = (
{
anchors = (
{
name = top;
position = "{217, 700}";
}
);
background = {
anchors = (
{
name = top;
position = "{217, 700}";
}
);
paths = (
{
closed = 1;
nodes = (
"111 710 OFFCURVE",
"46 643 OFFCURVE",
"46 533 CURVE SMOOTH",
"46 167 LINE SMOOTH",
"46 57 OFFCURVE",
"111 -10 OFFCURVE",
"217 -10 CURVE SMOOTH",
"242 -10 OFFCURVE",
"266 -6 OFFCURVE",
"286 1 CURVE",
"311 -40 OFFCURVE",
"351 -57 OFFCURVE",
"403 -57 CURVE",
"413 41 LINE",
"390 41 OFFCURVE",
"371 45 OFFCURVE",
"359 58 CURVE",
"378 87 OFFCURVE",
"388 124 OFFCURVE",
"388 167 CURVE SMOOTH",
"388 533 LINE SMOOTH",
"388 643 OFFCURVE",
"323 710 OFFCURVE",
"217 710 CURVE SMOOTH"
);
},
{
closed = 1;
nodes = (
"259 612 OFFCURVE",
"282 584 OFFCURVE",
"282 532 CURVE SMOOTH",
"282 168 LINE SMOOTH",
"282 116 OFFCURVE",
"259 88 OFFCURVE",
"217 88 CURVE SMOOTH",
"175 88 OFFCURVE",
"152 116 OFFCURVE",
"152 168 CURVE SMOOTH",
"152 532 LINE SMOOTH",
"152 584 OFFCURVE",
"175 612 OFFCURVE",
"217 612 CURVE SMOOTH"
);
}
);
};
layerId = "959C6BA0-AD18-4631-88F4-5A4A3C51B359";
paths = (
{
closed = 1;
nodes = (
"111 710 OFFCURVE",
"46 643 OFFCURVE",
"46 533 CURVE SMOOTH",
"46 167 LINE SMOOTH",
"46 57 OFFCURVE",
"111 -10 OFFCURVE",
"217 -10 CURVE SMOOTH",
"242 -10 OFFCURVE",
"266 -6 OFFCURVE",
"286 1 CURVE",
"311 -40 OFFCURVE",
"351 -57 OFFCURVE",
"403 -57 CURVE",
"413 41 LINE",
"390 41 OFFCURVE",
"371 45 OFFCURVE",
"359 58 CURVE",
"378 87 OFFCURVE",
"388 124 OFFCURVE",
"388 167 CURVE SMOOTH",
"388 533 LINE SMOOTH",
"388 643 OFFCURVE",
"323 710 OFFCURVE",
"217 710 CURVE SMOOTH"
);
},
{
closed = 1;
nodes = (
"259 612 OFFCURVE",
"282 584 OFFCURVE",
"282 532 CURVE SMOOTH",
"282 168 LINE SMOOTH",
"282 116 OFFCURVE",
"259 88 OFFCURVE",
"217 88 CURVE SMOOTH",
"175 88 OFFCURVE",
"152 116 OFFCURVE",
"152 168 CURVE SMOOTH",
"152 532 LINE SMOOTH",
"152 584 OFFCURVE",
"175 612 OFFCURVE",
"217 612 CURVE SMOOTH"
);
}
);
width = 434;
}
);
leftKerningGroup = O;
leftMetricsKey = O;
widthMetricsKey = O;
rightKerningGroup = O;
unicode = 0051;
},
{
color = 0;
glyphname = R;
lastChange = "2018-04-04 05:25:25 +0000";
layers = (
{
anchors = (
{
name = bottom;
position = "{227, 0}";
},
{
name = top;
position = "{198, 700}";
}
);
background = {
anchors = (
{
name = bottom;
position = "{227, 0}";
},
{
name = top;
position = "{198, 700}";
}
);
paths = (
{
closed = 1;
nodes = (
"257 602 OFFCURVE",
"280 575 OFFCURVE",
"280 516 CURVE SMOOTH",
"280 480 LINE SMOOTH",
"280 421 OFFCURVE",
"257 394 OFFCURVE",
"206 394 CURVE SMOOTH",
"163 394 LINE",
"163 602 LINE",
"206 602 LINE SMOOTH"
);
},
{
closed = 1;
nodes = (
"311 319 LINE",
"360 347 OFFCURVE",
"386 399 OFFCURVE",
"386 473 CURVE SMOOTH",
"386 523 LINE SMOOTH",
"386 638 OFFCURVE",
"324 700 OFFCURVE",
"210 700 CURVE SMOOTH",
"57 700 LINE",
"57 0 LINE",
"163 0 LINE",
"163 296 LINE",
"212 296 LINE",
"296 0 LINE",
"408 0 LINE"
);
}
);
};
layerId = "959C6BA0-AD18-4631-88F4-5A4A3C51B359";
paths = (
{
closed = 1;
nodes = (
"257 602 OFFCURVE",
"280 575 OFFCURVE",
"280 516 CURVE SMOOTH",
"280 480 LINE SMOOTH",
"280 421 OFFCURVE",
"257 394 OFFCURVE",
"206 394 CURVE SMOOTH",
"163 394 LINE",
"163 602 LINE",
"206 602 LINE SMOOTH"
);
},
{
closed = 1;
nodes = (
"311 319 LINE",
"360 347 OFFCURVE",
"386 399 OFFCURVE",
"386 473 CURVE SMOOTH",
"386 523 LINE SMOOTH",
"386 638 OFFCURVE",
"324 700 OFFCURVE",
"210 700 CURVE SMOOTH",
"57 700 LINE",
"57 0 LINE",
"163 0 LINE",
"163 296 LINE",
"212 296 LINE",
"296 0 LINE",
"408 0 LINE"
);
}
);
width = 428;
}
);
leftMetricsKey = H;
rightKerningGroup = R;
unicode = 0052;
},
{
color = 0;
glyphname = S;
lastChange = "2018-04-04 05:25:25 +0000";
layers = (
{
anchors = (
{
name = bottom;
position = "{183, 0}";
},
{
name = top;
position = "{183, 700}";
}
);
background = {
anchors = (
{
name = bottom;
position = "{183, 0}";
},
{
name = top;
position = "{183, 700}";
}
);
paths = (
{
closed = 1;
nodes = (
"80 710 OFFCURVE",
"23 653 OFFCURVE",
"23 553 CURVE SMOOTH",
"23 538 LINE SMOOTH",
"23 456 OFFCURVE",
"56 398 OFFCURVE",
"153 316 CURVE SMOOTH",
"224 256 OFFCURVE",
"245 221 OFFCURVE",
"245 177 CURVE SMOOTH",
"245 154 LINE SMOOTH",
"245 110 OFFCURVE",
"225 88 OFFCURVE",
"185 88 CURVE SMOOTH",
"145 88 OFFCURVE",
"125 110 OFFCURVE",
"125 154 CURVE SMOOTH",
"125 204 LINE",
"23 194 LINE",
"23 147 LINE SMOOTH",
"23 47 OFFCURVE",
"82 -10 OFFCURVE",
"187 -10 CURVE SMOOTH",
"292 -10 OFFCURVE",
"351 47 OFFCURVE",
"351 147 CURVE SMOOTH",
"351 182 LINE SMOOTH",
"351 266 OFFCURVE",
"315 324 OFFCURVE",
"218 406 CURVE SMOOTH",
"147 466 OFFCURVE",
"129 501 OFFCURVE",
"129 542 CURVE SMOOTH",
"129 551 LINE SMOOTH",
"129 591 OFFCURVE",
"148 612 OFFCURVE",
"183 612 CURVE SMOOTH",
"218 612 OFFCURVE",
"237 591 OFFCURVE",
"237 551 CURVE SMOOTH",
"237 525 LINE",
"339 535 LINE",
"339 553 LINE SMOOTH",
"339 653 OFFCURVE",
"282 710 OFFCURVE",
"181 710 CURVE SMOOTH"
);
}
);
};
layerId = "959C6BA0-AD18-4631-88F4-5A4A3C51B359";
paths = (
{
closed = 1;
nodes = (
"80 710 OFFCURVE",
"23 653 OFFCURVE",
"23 553 CURVE SMOOTH",
"23 538 LINE SMOOTH",
"23 456 OFFCURVE",
"56 398 OFFCURVE",
"153 316 CURVE SMOOTH",
"224 256 OFFCURVE",
"245 221 OFFCURVE",
"245 177 CURVE SMOOTH",
"245 154 LINE SMOOTH",
"245 110 OFFCURVE",
"225 88 OFFCURVE",
"185 88 CURVE SMOOTH",
"145 88 OFFCURVE",
"125 110 OFFCURVE",
"125 154 CURVE SMOOTH",
"125 204 LINE",
"23 194 LINE",
"23 147 LINE SMOOTH",
"23 47 OFFCURVE",
"82 -10 OFFCURVE",
"187 -10 CURVE SMOOTH",
"292 -10 OFFCURVE",
"351 47 OFFCURVE",
"351 147 CURVE SMOOTH",
"351 182 LINE SMOOTH",
"351 266 OFFCURVE",
"315 324 OFFCURVE",
"218 406 CURVE SMOOTH",
"147 466 OFFCURVE",
"129 501 OFFCURVE",
"129 542 CURVE SMOOTH",
"129 551 LINE SMOOTH",
"129 591 OFFCURVE",
"148 612 OFFCURVE",
"183 612 CURVE SMOOTH",
"218 612 OFFCURVE",
"237 591 OFFCURVE",
"237 551 CURVE SMOOTH",
"237 525 LINE",
"339 535 LINE",
"339 553 LINE SMOOTH",
"339 653 OFFCURVE",
"282 710 OFFCURVE",
"181 710 CURVE SMOOTH"
);
}
);
width = 358;
},
{
associatedMasterId = "959C6BA0-AD18-4631-88F4-5A4A3C51B359";
background = {
paths = (
{
closed = 1;
nodes = (
"349 157 LINE",
"349 54 OFFCURVE",
"284 -10 OFFCURVE",
"183 -10 CURVE SMOOTH",
"82 -10 OFFCURVE",
"17 54 OFFCURVE",
"17 157 CURVE",
"121 157 LINE",
"121 117 OFFCURVE",
"147 90 OFFCURVE",
"182 90 CURVE SMOOTH",
"217 90 OFFCURVE",
"243 117 OFFCURVE",
"243 157 CURVE SMOOTH",
"243 176 LINE SMOOTH",
"243 290 OFFCURVE",
"22 348 OFFCURVE",
"22 521 CURVE SMOOTH",
"22 543 LINE",
"22 646 OFFCURVE",
"82 710 OFFCURVE",
"183 710 CURVE SMOOTH",
"284 710 OFFCURVE",
"344 646 OFFCURVE",
"344 543 CURVE",
"240 543 LINE",
"240 583 OFFCURVE",
"219 610 OFFCURVE",
"184 610 CURVE SMOOTH",
"149 610 OFFCURVE",
"128 583 OFFCURVE",
"128 543 CURVE SMOOTH",
"128 524 LINE SMOOTH",
"128 403 OFFCURVE",
"349 364 OFFCURVE",
"349 179 CURVE SMOOTH"
);
},
{
closed = 1;
nodes = (
"17 157 LINE",
"121 157 LINE",
"121 187 LINE",
"17 177 LINE"
);
},
{
closed = 1;
nodes = (
"240 525 LINE",
"344 535 LINE",
"344 543 LINE",
"240 543 LINE"
);
}
);
};
layerId = "F7E6EC94-D8AA-4996-B0EA-6919972B4D83";
name = "Regular Oct 22 14, 10:47";
paths = (
{
closed = 1;
nodes = (
"363 76 OFFCURVE",
"312 19 OFFCURVE",
"250 -1 CURVE SMOOTH",
"233 -6 OFFCURVE",
"213 -8 OFFCURVE",
"191 -8 CURVE SMOOTH",
"108 -8 OFFCURVE",
"61 33 OFFCURVE",
"35 91 CURVE SMOOTH",
"21 119 OFFCURVE",
"14 152 OFFCURVE",
"11 190 CURVE",
"112 197 LINE",
"116 156 OFFCURVE",
"127 127 OFFCURVE",
"144 109 CURVE SMOOTH",
"169 81 OFFCURVE",
"215 79 OFFCURVE",
"243 123 CURVE",
"250 134 OFFCURVE",
"253 150 OFFCURVE",
"253 170 CURVE SMOOTH",
"253 279 OFFCURVE",
"22 353 OFFCURVE",
"22 516 CURVE SMOOTH",
"22 533 LINE",
"22 646 OFFCURVE",
"82 710 OFFCURVE",
"188 710 CURVE SMOOTH",
"294 710 OFFCURVE",
"354 646 OFFCURVE",
"354 533 CURVE",
"250 533 LINE",
"250 583 OFFCURVE",
"229 610 OFFCURVE",
"189 610 CURVE SMOOTH",
"149 610 OFFCURVE",
"128 583 OFFCURVE",
"128 533 CURVE SMOOTH",
"128 519 LINE SMOOTH",
"128 403 OFFCURVE",
"354 349 OFFCURVE",
"360 174 CURVE SMOOTH"
);
}
);
width = 366;
}
);
leftKerningGroup = S;
rightKerningGroup = S;
unicode = 0053;
},
{
color = 0;
glyphname = Scedilla;
lastChange = "2018-04-04 05:25:25 +0000";
layers = (
{
anchors = (
{
name = bottom;
position = "{183, 0}";
},
{
name = top;
position = "{183, 700}";
}
);
background = {
anchors = (
{
name = bottom;
position = "{183, 0}";
},
{
name = top;
position = "{183, 700}";
}
);
paths = (
{
closed = 1;
nodes = (
"83 710 OFFCURVE",
"23 653 OFFCURVE",
"23 550 CURVE SMOOTH",
"23 534 LINE SMOOTH",
"23 458 OFFCURVE",
"56 402 OFFCURVE",
"151 316 CURVE SMOOTH",
"221 253 OFFCURVE",
"242 223 OFFCURVE",
"242 179 CURVE SMOOTH",
"242 157 LINE SMOOTH",
"242 107 OFFCURVE",
"217 88 OFFCURVE",
"185 88 CURVE SMOOTH",
"147 88 OFFCURVE",
"124 108 OFFCURVE",
"124 155 CURVE SMOOTH",
"124 206 LINE",
"22 196 LINE",
"22 146 LINE SMOOTH",
"22 52.728 OFFCURVE",
"76.123 0.457 OFFCURVE",
"159.119 -8.584 CURVE",
"160 -53 LINE",
"170 -53 LINE SMOOTH",
"196 -53 OFFCURVE",
"205 -61 OFFCURVE",
"205 -83 CURVE SMOOTH",
"205 -99 OFFCURVE",
"197 -107 OFFCURVE",
"182 -107 CURVE SMOOTH",
"167 -107 OFFCURVE",
"159 -99 OFFCURVE",
"159 -83 CURVE SMOOTH",
"159 -75 LINE",
"85 -79 LINE",
"85 -85 LINE SMOOTH",
"85 -126 OFFCURVE",
"118 -147 OFFCURVE",
"181 -147 CURVE SMOOTH",
"250 -147 OFFCURVE",
"282 -128 OFFCURVE",
"282 -88 CURVE SMOOTH",
"282 -52 OFFCURVE",
"258 -35 OFFCURVE",
"208 -35 CURVE",
"208 -9 LINE",
"292.732 -0.841 OFFCURVE",
"348 55.023 OFFCURVE",
"348 150 CURVE SMOOTH",
"348 183 LINE SMOOTH",
"348 264 OFFCURVE",
"315 320 OFFCURVE",
"220 406 CURVE SMOOTH",
"150 469 OFFCURVE",
"129 499 OFFCURVE",
"129 538 CURVE SMOOTH",
"129 553 LINE SMOOTH",
"129 593 OFFCURVE",
"151 612 OFFCURVE",
"182 612 CURVE SMOOTH",
"219 612 OFFCURVE",
"237 593 OFFCURVE",
"237 545 CURVE SMOOTH",
"237 523 LINE",
"339 533 LINE",
"339 554 LINE SMOOTH",
"339 657 OFFCURVE",
"279 710 OFFCURVE",
"181 710 CURVE SMOOTH"
);
}
);
};
layerId = "959C6BA0-AD18-4631-88F4-5A4A3C51B359";
paths = (
{
closed = 1;
nodes = (
"83 710 OFFCURVE",
"23 653 OFFCURVE",
"23 550 CURVE SMOOTH",
"23 534 LINE SMOOTH",
"23 458 OFFCURVE",
"56 402 OFFCURVE",
"151 316 CURVE SMOOTH",
"221 253 OFFCURVE",
"242 223 OFFCURVE",
"242 179 CURVE SMOOTH",
"242 157 LINE SMOOTH",
"242 107 OFFCURVE",
"217 88 OFFCURVE",
"185 88 CURVE SMOOTH",
"147 88 OFFCURVE",
"124 108 OFFCURVE",
"124 155 CURVE SMOOTH",
"124 206 LINE",
"22 196 LINE",
"22 146 LINE SMOOTH",
"22 52.728 OFFCURVE",
"76.123 0.457 OFFCURVE",
"159.119 -8.584 CURVE",
"160 -53 LINE",
"170 -53 LINE SMOOTH",
"196 -53 OFFCURVE",
"205 -61 OFFCURVE",
"205 -83 CURVE SMOOTH",
"205 -99 OFFCURVE",
"197 -107 OFFCURVE",
"182 -107 CURVE SMOOTH",
"167 -107 OFFCURVE",
"159 -99 OFFCURVE",
"159 -83 CURVE SMOOTH",
"159 -75 LINE",
"85 -79 LINE",
"85 -85 LINE SMOOTH",
"85 -126 OFFCURVE",
"118 -147 OFFCURVE",
"181 -147 CURVE SMOOTH",
"250 -147 OFFCURVE",
"282 -128 OFFCURVE",
"282 -88 CURVE SMOOTH",
"282 -52 OFFCURVE",
"258 -35 OFFCURVE",
"208 -35 CURVE",
"208 -9 LINE",
"292.732 -0.841 OFFCURVE",
"348 55.023 OFFCURVE",
"348 150 CURVE SMOOTH",
"348 183 LINE SMOOTH",
"348 264 OFFCURVE",
"315 320 OFFCURVE",
"220 406 CURVE SMOOTH",
"150 469 OFFCURVE",
"129 499 OFFCURVE",
"129 538 CURVE SMOOTH",
"129 553 LINE SMOOTH",
"129 593 OFFCURVE",
"151 612 OFFCURVE",
"182 612 CURVE SMOOTH",
"219 612 OFFCURVE",
"237 593 OFFCURVE",
"237 545 CURVE SMOOTH",
"237 523 LINE",
"339 533 LINE",
"339 554 LINE SMOOTH",
"339 657 OFFCURVE",
"279 710 OFFCURVE",
"181 710 CURVE SMOOTH"
);
}
);
width = 357;
}
);
leftKerningGroup = S;
rightKerningGroup = S;
unicode = 015E;
},
{
color = 0;
glyphname = T;
lastChange = "2018-04-04 05:25:25 +0000";
layers = (
{
anchors = (
{
name = bottom;
position = "{177, 0}";
},
{
name = center;
position = "{177, 350}";
},
{
name = top;
position = "{177, 700}";
}
);
background = {
anchors = (
{
name = bottom;
position = "{177, 0}";
},
{
name = center;
position = "{177, 350}";
},
{
name = top;
position = "{177, 700}";
}
);
paths = (
{
closed = 1;
nodes = (
"11 700 LINE",
"11 600 LINE",
"124 600 LINE",
"124 0 LINE",
"230 0 LINE",
"230 600 LINE",
"343 600 LINE",
"343 700 LINE"
);
}
);
};
layerId = "959C6BA0-AD18-4631-88F4-5A4A3C51B359";
paths = (
{
closed = 1;
nodes = (
"11 700 LINE",
"11 600 LINE",
"124 600 LINE",
"124 0 LINE",
"230 0 LINE",
"230 600 LINE",
"343 600 LINE",
"343 700 LINE"
);
}
);
width = 354;
}
);
leftKerningGroup = T;
rightKerningGroup = T;
unicode = 0054;
},
{
color = 0;
glyphname = Tbar;
lastChange = "2018-04-04 05:25:25 +0000";
layers = (
{
anchors = (
{
name = bottom;
position = "{177, 0}";
},
{
name = center;
position = "{177, 350}";
},
{
name = top;
position = "{177, 700}";
}
);
background = {
anchors = (
{
name = bottom;
position = "{177, 0}";
},
{
name = center;
position = "{177, 350}";
},
{
name = top;
position = "{177, 700}";
}
);
paths = (
{
closed = 1;
nodes = (
"11 700 LINE",
"11 600 LINE",
"124 600 LINE",
"124 395 LINE",
"49 395 LINE",
"49 303 LINE",
"124 303 LINE",
"124 0 LINE",
"230 0 LINE",
"230 303 LINE",
"305 303 LINE",
"305 395 LINE",
"230 395 LINE",
"230 600 LINE",
"343 600 LINE",
"343 700 LINE"
);
}
);
};
layerId = "959C6BA0-AD18-4631-88F4-5A4A3C51B359";
paths = (
{
closed = 1;
nodes = (
"11 700 LINE",
"11 600 LINE",
"124 600 LINE",
"124 395 LINE",
"49 395 LINE",
"49 303 LINE",
"124 303 LINE",
"124 0 LINE",
"230 0 LINE",
"230 303 LINE",
"305 303 LINE",
"305 395 LINE",
"230 395 LINE",
"230 600 LINE",
"343 600 LINE",
"343 700 LINE"
);
}
);
width = 354;
}
);
leftKerningGroup = T;
leftMetricsKey = T;
rightKerningGroup = T;
rightMetricsKey = T;
unicode = 0166;
},
{
color = 0;
glyphname = Tcedilla;
lastChange = "2018-04-04 05:25:25 +0000";
layers = (
{
anchors = (
{
name = bottom;
position = "{176, 0}";
},
{
name = center;
position = "{176, 350}";
},
{
name = top;
position = "{176, 700}";
}
);
background = {
anchors = (
{
name = bottom;
position = "{176, 0}";
},
{
name = center;
position = "{176, 350}";
},
{
name = top;
position = "{176, 700}";
}
);
paths = (
{
closed = 1;
nodes = (
"10 700 LINE",
"10 600 LINE",
"123 600 LINE",
"123 0 LINE",
"153 0 LINE",
"153 -53 LINE",
"163 -53 LINE SMOOTH",
"189 -53 OFFCURVE",
"198 -61 OFFCURVE",
"198 -83 CURVE SMOOTH",
"198 -99 OFFCURVE",
"190 -107 OFFCURVE",
"175 -107 CURVE SMOOTH",
"160 -107 OFFCURVE",
"152 -99 OFFCURVE",
"152 -83 CURVE SMOOTH",
"152 -75 LINE",
"78 -79 LINE",
"78 -85 LINE SMOOTH",
"78 -126 OFFCURVE",
"111 -147 OFFCURVE",
"174 -147 CURVE SMOOTH",
"243 -147 OFFCURVE",
"275 -128 OFFCURVE",
"275 -88 CURVE SMOOTH",
"275 -52 OFFCURVE",
"251 -35 OFFCURVE",
"201 -35 CURVE",
"201 0 LINE",
"229 0 LINE",
"229 600 LINE",
"342 600 LINE",
"342 700 LINE"
);
}
);
};
layerId = "959C6BA0-AD18-4631-88F4-5A4A3C51B359";
paths = (
{
closed = 1;
nodes = (
"10 700 LINE",
"10 600 LINE",
"123 600 LINE",
"123 0 LINE",
"153 0 LINE",
"153 -53 LINE",
"163 -53 LINE SMOOTH",
"189 -53 OFFCURVE",
"198 -61 OFFCURVE",
"198 -83 CURVE SMOOTH",
"198 -99 OFFCURVE",
"190 -107 OFFCURVE",
"175 -107 CURVE SMOOTH",
"160 -107 OFFCURVE",
"152 -99 OFFCURVE",
"152 -83 CURVE SMOOTH",
"152 -75 LINE",
"78 -79 LINE",
"78 -85 LINE SMOOTH",
"78 -126 OFFCURVE",
"111 -147 OFFCURVE",
"174 -147 CURVE SMOOTH",
"243 -147 OFFCURVE",
"275 -128 OFFCURVE",
"275 -88 CURVE SMOOTH",
"275 -52 OFFCURVE",
"251 -35 OFFCURVE",
"201 -35 CURVE",
"201 0 LINE",
"229 0 LINE",
"229 600 LINE",
"342 600 LINE",
"342 700 LINE"
);
}
);
width = 352;
}
);
leftKerningGroup = T;
rightKerningGroup = T;
unicode = 0162;
},
{
color = 0;
glyphname = U;
lastChange = "2018-04-04 05:25:25 +0000";
layers = (
{
anchors = (
{
name = ogonek;
position = "{327, 0}";
},
{
name = top;
position = "{215, 700}";
}
);
background = {
anchors = (
{
name = ogonek;
position = "{327, 0}";
},
{
name = top;
position = "{215, 700}";
}
);
paths = (
{
closed = 1;
nodes = (
"273 700 LINE",
"273 160 LINE SMOOTH",
"273 109 OFFCURVE",
"250 90 OFFCURVE",
"213 90 CURVE SMOOTH",
"176 90 OFFCURVE",
"153 109 OFFCURVE",
"153 160 CURVE SMOOTH",
"153 700 LINE",
"51 700 LINE",
"51 157 LINE SMOOTH",
"51 47 OFFCURVE",
"114 -10 OFFCURVE",
"214 -10 CURVE SMOOTH",
"316 -10 OFFCURVE",
"379 47 OFFCURVE",
"379 157 CURVE SMOOTH",
"379 700 LINE"
);
}
);
};
layerId = "959C6BA0-AD18-4631-88F4-5A4A3C51B359";
paths = (
{
closed = 1;
nodes = (
"273 700 LINE",
"273 160 LINE SMOOTH",
"273 109 OFFCURVE",
"250 90 OFFCURVE",
"213 90 CURVE SMOOTH",
"176 90 OFFCURVE",
"153 109 OFFCURVE",
"153 160 CURVE SMOOTH",
"153 700 LINE",
"51 700 LINE",
"51 157 LINE SMOOTH",
"51 47 OFFCURVE",
"114 -10 OFFCURVE",
"214 -10 CURVE SMOOTH",
"316 -10 OFFCURVE",
"379 47 OFFCURVE",
"379 157 CURVE SMOOTH",
"379 700 LINE"
);
}
);
width = 430;
}
);
leftKerningGroup = U;
rightKerningGroup = U;
unicode = 0055;
},
{
color = 0;
glyphname = Uogonek;
lastChange = "2018-04-04 05:25:25 +0000";
layers = (
{
anchors = (
{
name = ogonek;
position = "{327, 0}";
},
{
name = top;
position = "{215, 700}";
}
);
background = {
anchors = (
{
name = ogonek;
position = "{327, 0}";
},
{
name = top;
position = "{215, 700}";
}
);
paths = (
{
closed = 1;
nodes = (
"273 700 LINE",
"273 160 LINE SMOOTH",
"273 109 OFFCURVE",
"250 90 OFFCURVE",
"213 90 CURVE SMOOTH",
"176 90 OFFCURVE",
"153 109 OFFCURVE",
"153 160 CURVE SMOOTH",
"153 700 LINE",
"51 700 LINE",
"51 157 LINE SMOOTH",
"51 47 OFFCURVE",
"114 -10 OFFCURVE",
"214 -10 CURVE SMOOTH",
"220 -10 LINE",
"220 -12 LINE",
"187 -34 OFFCURVE",
"172 -59 OFFCURVE",
"172 -86 CURVE SMOOTH",
"172 -126 OFFCURVE",
"203 -147 OFFCURVE",
"259 -147 CURVE SMOOTH",
"284 -147 OFFCURVE",
"304 -143 OFFCURVE",
"327 -131 CURVE",
"322 -70 LINE",
"312 -77 OFFCURVE",
"299 -81 OFFCURVE",
"286 -81 CURVE SMOOTH",
"267 -81 OFFCURVE",
"254 -72 OFFCURVE",
"254 -53 CURVE SMOOTH",
"254 -38 OFFCURVE",
"262 -18 OFFCURVE",
"290 3 CURVE",
"346 26 OFFCURVE",
"379 78 OFFCURVE",
"379 157 CURVE SMOOTH",
"379 700 LINE"
);
}
);
};
layerId = "959C6BA0-AD18-4631-88F4-5A4A3C51B359";
paths = (
{
closed = 1;
nodes = (
"273 700 LINE",
"273 160 LINE SMOOTH",
"273 109 OFFCURVE",
"250 90 OFFCURVE",
"213 90 CURVE SMOOTH",
"176 90 OFFCURVE",
"153 109 OFFCURVE",
"153 160 CURVE SMOOTH",
"153 700 LINE",
"51 700 LINE",
"51 157 LINE SMOOTH",
"51 47 OFFCURVE",
"114 -10 OFFCURVE",
"214 -10 CURVE SMOOTH",
"220 -10 LINE",
"220 -12 LINE",
"187 -34 OFFCURVE",
"172 -59 OFFCURVE",
"172 -86 CURVE SMOOTH",
"172 -126 OFFCURVE",
"203 -147 OFFCURVE",
"259 -147 CURVE SMOOTH",
"284 -147 OFFCURVE",
"304 -143 OFFCURVE",
"327 -131 CURVE",
"322 -70 LINE",
"312 -77 OFFCURVE",
"299 -81 OFFCURVE",
"286 -81 CURVE SMOOTH",
"267 -81 OFFCURVE",
"254 -72 OFFCURVE",
"254 -53 CURVE SMOOTH",
"254 -38 OFFCURVE",
"262 -18 OFFCURVE",
"290 3 CURVE",
"346 26 OFFCURVE",
"379 78 OFFCURVE",
"379 157 CURVE SMOOTH",
"379 700 LINE"
);
}
);
width = 430;
}
);
leftKerningGroup = U;
rightKerningGroup = U;
unicode = 0172;
},
{
color = 0;
glyphname = V;
lastChange = "2018-04-04 05:25:25 +0000";
layers = (
{
background = {
paths = (
{
closed = 1;
nodes = (
"286 700 LINE",
"208 166 LINE",
"206 166 LINE",
"127 700 LINE",
"19 700 LINE",
"137 0 LINE",
"274 0 LINE",
"392 700 LINE"
);
}
);
};
layerId = "959C6BA0-AD18-4631-88F4-5A4A3C51B359";
paths = (
{
closed = 1;
nodes = (
"286 700 LINE",
"208 166 LINE",
"206 166 LINE",
"127 700 LINE",
"19 700 LINE",
"137 0 LINE",
"274 0 LINE",
"392 700 LINE"
);
}
);
width = 411;
}
);
leftKerningGroup = V;
leftMetricsKey = A;
rightKerningGroup = V;
rightMetricsKey = A;
unicode = 0056;
},
{
color = 0;
glyphname = W;
lastChange = "2018-04-04 05:25:25 +0000";
layers = (
{
anchors = (
{
name = top;
position = "{297, 700}";
}
);
background = {
anchors = (
{
name = top;
position = "{297, 700}";
}
);
paths = (
{
closed = 1;
nodes = (
"468 700 LINE",
"407 236 LINE",
"405 236 LINE",
"345 700 LINE",
"251 700 LINE",
"191 236 LINE",
"189 236 LINE",
"128 700 LINE",
"19 700 LINE",
"127 0 LINE",
"235 0 LINE",
"296 417 LINE",
"298 417 LINE",
"358 0 LINE",
"466 0 LINE",
"574 700 LINE"
);
}
);
};
layerId = "959C6BA0-AD18-4631-88F4-5A4A3C51B359";
paths = (
{
closed = 1;
nodes = (
"468 700 LINE",
"407 236 LINE",
"405 236 LINE",
"345 700 LINE",
"251 700 LINE",
"191 236 LINE",
"189 236 LINE",
"128 700 LINE",
"19 700 LINE",
"127 0 LINE",
"235 0 LINE",
"296 417 LINE",
"298 417 LINE",
"358 0 LINE",
"466 0 LINE",
"574 700 LINE"
);
}
);
width = 593;
}
);
leftKerningGroup = V;
rightKerningGroup = V;
unicode = 0057;
},
{
color = 0;
glyphname = X;
lastChange = "2018-04-04 05:25:25 +0000";
layers = (
{
background = {
paths = (
{
closed = 1;
nodes = (
"284 700 LINE",
"209 477 LINE",
"207 477 LINE",
"129 700 LINE",
"17 700 LINE",
"143 363 LINE",
"9 0 LINE",
"119 0 LINE",
"201 246 LINE",
"203 246 LINE",
"290 0 LINE",
"402 0 LINE",
"268 359 LINE",
"394 700 LINE"
);
}
);
};
layerId = "959C6BA0-AD18-4631-88F4-5A4A3C51B359";
paths = (
{
closed = 1;
nodes = (
"284 700 LINE",
"209 477 LINE",
"207 477 LINE",
"129 700 LINE",
"17 700 LINE",
"143 363 LINE",
"9 0 LINE",
"119 0 LINE",
"201 246 LINE",
"203 246 LINE",
"290 0 LINE",
"402 0 LINE",
"268 359 LINE",
"394 700 LINE"
);
}
);
width = 411;
}
);
leftKerningGroup = X;
rightKerningGroup = X;
unicode = 0058;
},
{
color = 0;
glyphname = Y;
lastChange = "2018-04-04 05:25:25 +0000";
layers = (
{
anchors = (
{
name = top;
position = "{188, 700}";
}
);
background = {
anchors = (
{
name = top;
position = "{188, 700}";
}
);
paths = (
{
closed = 1;
nodes = (
"277 700 LINE",
"192 452 LINE",
"190 452 LINE",
"101 700 LINE",
"-11 700 LINE",
"136 317 LINE",
"136 0 LINE",
"242 0 LINE",
"242 316 LINE",
"387 700 LINE"
);
}
);
};
layerId = "959C6BA0-AD18-4631-88F4-5A4A3C51B359";
paths = (
{
closed = 1;
nodes = (
"277 700 LINE",
"192 452 LINE",
"190 452 LINE",
"101 700 LINE",
"-11 700 LINE",
"136 317 LINE",
"136 0 LINE",
"242 0 LINE",
"242 316 LINE",
"387 700 LINE"
);
}
);
width = 376;
}
);
leftKerningGroup = Y;
rightKerningGroup = Y;
unicode = 0059;
},
{
color = 0;
glyphname = Z;
lastChange = "2018-04-04 05:25:25 +0000";
layers = (
{
anchors = (
{
name = top;
position = "{177, 700}";
}
);
background = {
anchors = (
{
name = top;
position = "{177, 700}";
}
);
paths = (
{
closed = 1;
nodes = (
"29 700 LINE",
"29 602 LINE",
"214 602 LINE",
"19 88 LINE",
"19 0 LINE",
"329 0 LINE",
"329 98 LINE",
"134 98 LINE",
"329 612 LINE",
"329 700 LINE"
);
}
);
};
layerId = "959C6BA0-AD18-4631-88F4-5A4A3C51B359";
paths = (
{
closed = 1;
nodes = (
"29 700 LINE",
"29 602 LINE",
"214 602 LINE",
"19 88 LINE",
"19 0 LINE",
"329 0 LINE",
"329 98 LINE",
"134 98 LINE",
"329 612 LINE",
"329 700 LINE"
);
}
);
width = 350;
}
);
leftKerningGroup = Z;
rightKerningGroup = Z;
unicode = 005A;
},
{
color = 0;
glyphname = ordfeminine;
lastChange = "2018-04-04 05:25:25 +0000";
layers = (
{
background = {
paths = (
{
closed = 1;
nodes = (
"62 710 OFFCURVE",
"24 673 OFFCURVE",
"24 609 CURVE SMOOTH",
"24 605 LINE",
"88 602 LINE",
"88 608 LINE SMOOTH",
"88 634 OFFCURVE",
"101 648 OFFCURVE",
"123 648 CURVE SMOOTH",
"145 648 OFFCURVE",
"158 634 OFFCURVE",
"158 610 CURVE SMOOTH",
"158 579 LINE",
"119 579 LINE SMOOTH",
"58 579 OFFCURVE",
"20 545 OFFCURVE",
"20 489 CURVE SMOOTH",
"20 476 LINE SMOOTH",
"20 424 OFFCURVE",
"55 392 OFFCURVE",
"104 392 CURVE SMOOTH",
"134 392 OFFCURVE",
"158 404 OFFCURVE",
"170 430 CURVE",
"172 430 LINE",
"178 397 LINE",
"226 397 LINE",
"226 607 LINE SMOOTH",
"226 672 OFFCURVE",
"189 710 OFFCURVE",
"125 710 CURVE SMOOTH"
);
},
{
closed = 1;
nodes = (
"20 322 LINE",
"20 261 LINE",
"226 261 LINE",
"226 322 LINE"
);
},
{
closed = 1;
nodes = (
"158 494 LINE SMOOTH",
"158 467 OFFCURVE",
"144 452 OFFCURVE",
"120 452 CURVE SMOOTH",
"100 452 OFFCURVE",
"88 462 OFFCURVE",
"88 480 CURVE SMOOTH",
"88 492 LINE SMOOTH",
"88 511 OFFCURVE",
"101 523 OFFCURVE",
"123 523 CURVE SMOOTH",
"158 523 LINE"
);
}
);
};
layerId = "959C6BA0-AD18-4631-88F4-5A4A3C51B359";
paths = (
{
closed = 1;
nodes = (
"62 710 OFFCURVE",
"24 673 OFFCURVE",
"24 609 CURVE SMOOTH",
"24 605 LINE",
"88 602 LINE",
"88 608 LINE SMOOTH",
"88 634 OFFCURVE",
"101 648 OFFCURVE",
"123 648 CURVE SMOOTH",
"145 648 OFFCURVE",
"158 634 OFFCURVE",
"158 610 CURVE SMOOTH",
"158 579 LINE",
"119 579 LINE SMOOTH",
"58 579 OFFCURVE",
"20 545 OFFCURVE",
"20 489 CURVE SMOOTH",
"20 476 LINE SMOOTH",
"20 424 OFFCURVE",
"55 392 OFFCURVE",
"104 392 CURVE SMOOTH",
"134 392 OFFCURVE",
"158 404 OFFCURVE",
"170 430 CURVE",
"172 430 LINE",
"178 397 LINE",
"226 397 LINE",
"226 607 LINE SMOOTH",
"226 672 OFFCURVE",
"189 710 OFFCURVE",
"125 710 CURVE SMOOTH"
);
},
{
closed = 1;
nodes = (
"20 322 LINE",
"20 261 LINE",
"226 261 LINE",
"226 322 LINE"
);
},
{
closed = 1;
nodes = (
"158 494 LINE SMOOTH",
"158 467 OFFCURVE",
"144 452 OFFCURVE",
"120 452 CURVE SMOOTH",
"100 452 OFFCURVE",
"88 462 OFFCURVE",
"88 480 CURVE SMOOTH",
"88 492 LINE SMOOTH",
"88 511 OFFCURVE",
"101 523 OFFCURVE",
"123 523 CURVE SMOOTH",
"158 523 LINE"
);
}
);
width = 264;
}
);
unicode = 00AA;
},
{
color = 0;
glyphname = ordmasculine;
lastChange = "2018-04-04 05:25:25 +0000";
layers = (
{
background = {
paths = (
{
closed = 1;
nodes = (
"75 710 OFFCURVE",
"37 670 OFFCURVE",
"37 602 CURVE SMOOTH",
"37 500 LINE SMOOTH",
"37 432 OFFCURVE",
"75 392 OFFCURVE",
"141 392 CURVE SMOOTH",
"207 392 OFFCURVE",
"245 432 OFFCURVE",
"245 500 CURVE SMOOTH",
"245 602 LINE SMOOTH",
"245 670 OFFCURVE",
"207 710 OFFCURVE",
"141 710 CURVE SMOOTH"
);
},
{
closed = 1;
nodes = (
"37 322 LINE",
"37 261 LINE",
"245 261 LINE",
"245 322 LINE"
);
},
{
closed = 1;
nodes = (
"165 648 OFFCURVE",
"178 633 OFFCURVE",
"178 605 CURVE SMOOTH",
"178 497 LINE SMOOTH",
"178 469 OFFCURVE",
"165 454 OFFCURVE",
"141 454 CURVE SMOOTH",
"117 454 OFFCURVE",
"104 469 OFFCURVE",
"104 497 CURVE SMOOTH",
"104 605 LINE SMOOTH",
"104 633 OFFCURVE",
"117 648 OFFCURVE",
"141 648 CURVE SMOOTH"
);
}
);
};
layerId = "959C6BA0-AD18-4631-88F4-5A4A3C51B359";
paths = (
{
closed = 1;
nodes = (
"75 710 OFFCURVE",
"37 670 OFFCURVE",
"37 602 CURVE SMOOTH",
"37 500 LINE SMOOTH",
"37 432 OFFCURVE",
"75 392 OFFCURVE",
"141 392 CURVE SMOOTH",
"207 392 OFFCURVE",
"245 432 OFFCURVE",
"245 500 CURVE SMOOTH",
"245 602 LINE SMOOTH",
"245 670 OFFCURVE",
"207 710 OFFCURVE",
"141 710 CURVE SMOOTH"
);
},
{
closed = 1;
nodes = (
"37 322 LINE",
"37 261 LINE",
"245 261 LINE",
"245 322 LINE"
);
},
{
closed = 1;
nodes = (
"165 648 OFFCURVE",
"178 633 OFFCURVE",
"178 605 CURVE SMOOTH",
"178 497 LINE SMOOTH",
"178 469 OFFCURVE",
"165 454 OFFCURVE",
"141 454 CURVE SMOOTH",
"117 454 OFFCURVE",
"104 469 OFFCURVE",
"104 497 CURVE SMOOTH",
"104 605 LINE SMOOTH",
"104 633 OFFCURVE",
"117 648 OFFCURVE",
"141 648 CURVE SMOOTH"
);
}
);
width = 282;
}
);
unicode = 00BA;
},
{
color = 0;
glyphname = zero;
lastChange = "2018-04-04 05:25:25 +0000";
layers = (
{
background = {
paths = (
{
closed = 1;
nodes = (
"111 710 OFFCURVE",
"46 643 OFFCURVE",
"46 533 CURVE SMOOTH",
"46 167 LINE SMOOTH",
"46 57 OFFCURVE",
"111 -10 OFFCURVE",
"217 -10 CURVE SMOOTH",
"323 -10 OFFCURVE",
"388 57 OFFCURVE",
"388 167 CURVE SMOOTH",
"388 533 LINE SMOOTH",
"388 643 OFFCURVE",
"323 710 OFFCURVE",
"217 710 CURVE SMOOTH"
);
},
{
closed = 1;
nodes = (
"259 612 OFFCURVE",
"282 584 OFFCURVE",
"282 532 CURVE SMOOTH",
"282 168 LINE SMOOTH",
"282 116 OFFCURVE",
"259 88 OFFCURVE",
"217 88 CURVE SMOOTH",
"175 88 OFFCURVE",
"152 116 OFFCURVE",
"152 168 CURVE SMOOTH",
"152 532 LINE SMOOTH",
"152 584 OFFCURVE",
"175 612 OFFCURVE",
"217 612 CURVE SMOOTH"
);
}
);
};
layerId = "959C6BA0-AD18-4631-88F4-5A4A3C51B359";
paths = (
{
closed = 1;
nodes = (
"111 710 OFFCURVE",
"46 643 OFFCURVE",
"46 533 CURVE SMOOTH",
"46 167 LINE SMOOTH",
"46 57 OFFCURVE",
"111 -10 OFFCURVE",
"217 -10 CURVE SMOOTH",
"323 -10 OFFCURVE",
"388 57 OFFCURVE",
"388 167 CURVE SMOOTH",
"388 533 LINE SMOOTH",
"388 643 OFFCURVE",
"323 710 OFFCURVE",
"217 710 CURVE SMOOTH"
);
},
{
closed = 1;
nodes = (
"259 612 OFFCURVE",
"282 584 OFFCURVE",
"282 532 CURVE SMOOTH",
"282 168 LINE SMOOTH",
"282 116 OFFCURVE",
"259 88 OFFCURVE",
"217 88 CURVE SMOOTH",
"175 88 OFFCURVE",
"152 116 OFFCURVE",
"152 168 CURVE SMOOTH",
"152 532 LINE SMOOTH",
"152 584 OFFCURVE",
"175 612 OFFCURVE",
"217 612 CURVE SMOOTH"
);
}
);
width = 434;
}
);
leftKerningGroup = zero;
rightKerningGroup = zero;
unicode = 0030;
},
{
color = 0;
glyphname = one;
lastChange = "2018-04-04 05:25:25 +0000";
layers = (
{
background = {
paths = (
{
closed = 1;
nodes = (
"200 700 LINE",
"178 647 OFFCURVE",
"107 618 OFFCURVE",
"22 612 CURVE",
"22 538 LINE",
"168 538 LINE",
"168 0 LINE",
"274 0 LINE",
"274 700 LINE"
);
}
);
};
layerId = "959C6BA0-AD18-4631-88F4-5A4A3C51B359";
paths = (
{
closed = 1;
nodes = (
"200 700 LINE",
"178 647 OFFCURVE",
"107 618 OFFCURVE",
"22 612 CURVE",
"22 538 LINE",
"168 538 LINE",
"168 0 LINE",
"274 0 LINE",
"274 700 LINE"
);
}
);
width = 337;
}
);
unicode = 0031;
},
{
color = 0;
glyphname = two;
lastChange = "2018-04-04 05:25:25 +0000";
layers = (
{
background = {
paths = (
{
closed = 1;
nodes = (
"86 710 OFFCURVE",
"25 650 OFFCURVE",
"25 547 CURVE SMOOTH",
"25 499 LINE",
"127 494 LINE",
"127 529 LINE SMOOTH",
"127 588 OFFCURVE",
"147 612 OFFCURVE",
"186 612 CURVE SMOOTH",
"225 612 OFFCURVE",
"245 588 OFFCURVE",
"245 542 CURVE SMOOTH",
"245 528 LINE SMOOTH",
"245 471 OFFCURVE",
"231 422 OFFCURVE",
"182 343 CURVE SMOOTH",
"25 90 LINE",
"25 0 LINE",
"351 0 LINE",
"351 100 LINE",
"146 100 LINE",
"264 289 LINE SMOOTH",
"331 397 OFFCURVE",
"351 456 OFFCURVE",
"351 524 CURVE SMOOTH",
"351 550 LINE SMOOTH",
"351 651 OFFCURVE",
"290 710 OFFCURVE",
"188 710 CURVE SMOOTH"
);
}
);
};
layerId = "959C6BA0-AD18-4631-88F4-5A4A3C51B359";
paths = (
{
closed = 1;
nodes = (
"86 710 OFFCURVE",
"25 650 OFFCURVE",
"25 547 CURVE SMOOTH",
"25 499 LINE",
"127 494 LINE",
"127 529 LINE SMOOTH",
"127 588 OFFCURVE",
"147 612 OFFCURVE",
"186 612 CURVE SMOOTH",
"225 612 OFFCURVE",
"245 588 OFFCURVE",
"245 542 CURVE SMOOTH",
"245 528 LINE SMOOTH",
"245 471 OFFCURVE",
"231 422 OFFCURVE",
"182 343 CURVE SMOOTH",
"25 90 LINE",
"25 0 LINE",
"351 0 LINE",
"351 100 LINE",
"146 100 LINE",
"264 289 LINE SMOOTH",
"331 397 OFFCURVE",
"351 456 OFFCURVE",
"351 524 CURVE SMOOTH",
"351 550 LINE SMOOTH",
"351 651 OFFCURVE",
"290 710 OFFCURVE",
"188 710 CURVE SMOOTH"
);
}
);
width = 381;
}
);
unicode = 0032;
},
{
color = 0;
glyphname = three;
lastChange = "2018-04-04 05:25:25 +0000";
layers = (
{
background = {
paths = (
{
closed = 1;
nodes = (
"91 710 OFFCURVE",
"30 648 OFFCURVE",
"30 542 CURVE SMOOTH",
"30 499 LINE",
"132 494 LINE",
"132 529 LINE SMOOTH",
"132 586 OFFCURVE",
"152 612 OFFCURVE",
"193 612 CURVE SMOOTH",
"234 612 OFFCURVE",
"256 584 OFFCURVE",
"256 534 CURVE SMOOTH",
"256 496 LINE SMOOTH",
"256 437 OFFCURVE",
"235 411 OFFCURVE",
"186 411 CURVE SMOOTH",
"142 411 LINE",
"142 313 LINE",
"186 313 LINE SMOOTH",
"240 313 OFFCURVE",
"263 285 OFFCURVE",
"263 223 CURVE SMOOTH",
"263 169 LINE SMOOTH",
"263 117 OFFCURVE",
"241 88 OFFCURVE",
"196 88 CURVE SMOOTH",
"152 88 OFFCURVE",
"131 114 OFFCURVE",
"131 171 CURVE SMOOTH",
"131 206 LINE",
"29 201 LINE",
"29 158 LINE SMOOTH",
"29 52 OFFCURVE",
"91 -10 OFFCURVE",
"199 -10 CURVE SMOOTH",
"307 -10 OFFCURVE",
"369 54 OFFCURVE",
"369 162 CURVE SMOOTH",
"369 215 LINE SMOOTH",
"369 292 OFFCURVE",
"341 342 OFFCURVE",
"285 365 CURVE",
"285 367 LINE",
"337 388 OFFCURVE",
"362 432 OFFCURVE",
"362 498 CURVE SMOOTH",
"362 538 LINE SMOOTH",
"362 646 OFFCURVE",
"301 710 OFFCURVE",
"196 710 CURVE SMOOTH"
);
}
);
};
layerId = "959C6BA0-AD18-4631-88F4-5A4A3C51B359";
paths = (
{
closed = 1;
nodes = (
"91 710 OFFCURVE",
"30 648 OFFCURVE",
"30 542 CURVE SMOOTH",
"30 499 LINE",
"132 494 LINE",
"132 529 LINE SMOOTH",
"132 586 OFFCURVE",
"152 612 OFFCURVE",
"193 612 CURVE SMOOTH",
"234 612 OFFCURVE",
"256 584 OFFCURVE",
"256 534 CURVE SMOOTH",
"256 496 LINE SMOOTH",
"256 437 OFFCURVE",
"235 411 OFFCURVE",
"186 411 CURVE SMOOTH",
"142 411 LINE",
"142 313 LINE",
"186 313 LINE SMOOTH",
"240 313 OFFCURVE",
"263 285 OFFCURVE",
"263 223 CURVE SMOOTH",
"263 169 LINE SMOOTH",
"263 117 OFFCURVE",
"241 88 OFFCURVE",
"196 88 CURVE SMOOTH",
"152 88 OFFCURVE",
"131 114 OFFCURVE",
"131 171 CURVE SMOOTH",
"131 206 LINE",
"29 201 LINE",
"29 158 LINE SMOOTH",
"29 52 OFFCURVE",
"91 -10 OFFCURVE",
"199 -10 CURVE SMOOTH",
"307 -10 OFFCURVE",
"369 54 OFFCURVE",
"369 162 CURVE SMOOTH",
"369 215 LINE SMOOTH",
"369 292 OFFCURVE",
"341 342 OFFCURVE",
"285 365 CURVE",
"285 367 LINE",
"337 388 OFFCURVE",
"362 432 OFFCURVE",
"362 498 CURVE SMOOTH",
"362 538 LINE SMOOTH",
"362 646 OFFCURVE",
"301 710 OFFCURVE",
"196 710 CURVE SMOOTH"
);
}
);
width = 400;
}
);
rightKerningGroup = eight;
unicode = 0033;
},
{
color = 0;
glyphname = four;
lastChange = "2018-04-04 05:25:25 +0000";
layers = (
{
background = {
paths = (
{
closed = 1;
nodes = (
"237 700 LINE",
"14 236 LINE",
"14 148 LINE",
"236 148 LINE",
"236 0 LINE",
"342 0 LINE",
"342 148 LINE",
"391 148 LINE",
"391 246 LINE",
"342 246 LINE",
"342 700 LINE"
);
},
{
closed = 1;
nodes = (
"236 246 LINE",
"118 246 LINE",
"234 496 LINE",
"236 496 LINE"
);
}
);
};
layerId = "959C6BA0-AD18-4631-88F4-5A4A3C51B359";
paths = (
{
closed = 1;
nodes = (
"237 700 LINE",
"14 236 LINE",
"14 148 LINE",
"236 148 LINE",
"236 0 LINE",
"342 0 LINE",
"342 148 LINE",
"391 148 LINE",
"391 246 LINE",
"342 246 LINE",
"342 700 LINE"
);
},
{
closed = 1;
nodes = (
"236 246 LINE",
"118 246 LINE",
"234 496 LINE",
"236 496 LINE"
);
}
);
width = 411;
}
);
unicode = 0034;
},
{
color = 5;
glyphname = five;
lastChange = "2018-04-04 05:25:41 +0000";
layers = (
{
background = {
hints = (
{
origin = "{0, 9}";
target = "{0, 26}";
},
{
origin = "{0, 19}";
target = "{0, 16}";
},
{
horizontal = 1;
origin = "{0, 22}";
target = "{0, 13}";
},
{
horizontal = 1;
origin = "{0, 6}";
target = "{0, 29}";
},
{
horizontal = 1;
origin = "{0, 36}";
target = "{0, 35}";
}
);
paths = (
{
closed = 1;
nodes = (
"59 700 LINE",
"37 299 LINE",
"135 295 LINE",
"136 309 LINE SMOOTH",
"140 347 OFFCURVE",
"163 368 OFFCURVE",
"199 368 CURVE SMOOTH",
"242 368 OFFCURVE",
"265 339 OFFCURVE",
"265 287 CURVE SMOOTH",
"265 169 LINE SMOOTH",
"265 117 OFFCURVE",
"243 88 OFFCURVE",
"199 88 CURVE SMOOTH",
"157 88 OFFCURVE",
"135 114 OFFCURVE",
"135 171 CURVE SMOOTH",
"135 190 LINE",
"33 185 LINE",
"33 158 LINE SMOOTH",
"33 52 OFFCURVE",
"96 -10 OFFCURVE",
"202 -10 CURVE SMOOTH",
"308 -10 OFFCURVE",
"371 54 OFFCURVE",
"371 162 CURVE SMOOTH",
"371 294 LINE SMOOTH",
"371 404 OFFCURVE",
"316 466 OFFCURVE",
"228 466 CURVE SMOOTH",
"186 466 OFFCURVE",
"160 452 OFFCURVE",
"145 435 CURVE",
"143 435 LINE",
"152 600 LINE",
"345 600 LINE",
"345 700 LINE"
);
}
);
};
hints = (
{
origin = "{0, 23}";
target = "{0, 3}";
},
{
origin = "{0, 33}";
target = "{0, 30}";
},
{
horizontal = 1;
origin = "{0, 36}";
target = "{0, 27}";
},
{
horizontal = 1;
origin = "{0, 20}";
target = "{0, 6}";
},
{
horizontal = 1;
origin = "{0, 13}";
target = "{0, 12}";
}
);
layerId = "959C6BA0-AD18-4631-88F4-5A4A3C51B359";
paths = (
{
closed = 1;
nodes = (
"308 -10 OFFCURVE",
"371 54 OFFCURVE",
"371 162 CURVE SMOOTH",
"371 294 LINE SMOOTH",
"371 404 OFFCURVE",
"316 466 OFFCURVE",
"228 466 CURVE SMOOTH",
"186 466 OFFCURVE",
"160 452 OFFCURVE",
"145 435 CURVE",
"143 435 LINE",
"152 600 LINE",
"345 600 LINE",
"345 700 LINE",
"59 700 LINE",
"37 299 LINE",
"135 295 LINE",
"136 309 LINE SMOOTH",
"140 347 OFFCURVE",
"163 368 OFFCURVE",
"199 368 CURVE SMOOTH",
"242 368 OFFCURVE",
"265 339 OFFCURVE",
"265 287 CURVE SMOOTH",
"265 169 LINE SMOOTH",
"265 117 OFFCURVE",
"243 88 OFFCURVE",
"199 88 CURVE SMOOTH",
"157 88 OFFCURVE",
"135 114 OFFCURVE",
"135 171 CURVE SMOOTH",
"135 190 LINE",
"33 185 LINE",
"33 158 LINE SMOOTH",
"33 52 OFFCURVE",
"96 -10 OFFCURVE",
"202 -10 CURVE SMOOTH"
);
}
);
width = 400;
}
);
unicode = 0035;
},
{
color = 0;
glyphname = six;
lastChange = "2018-04-04 05:25:25 +0000";
layers = (
{
background = {
paths = (
{
closed = 1;
nodes = (
"109 710 OFFCURVE",
"46 647 OFFCURVE",
"46 541 CURVE SMOOTH",
"46 167 LINE SMOOTH",
"46 57 OFFCURVE",
"111 -10 OFFCURVE",
"215 -10 CURVE SMOOTH",
"321 -10 OFFCURVE",
"386 57 OFFCURVE",
"386 167 CURVE SMOOTH",
"386 262 LINE SMOOTH",
"386 377 OFFCURVE",
"324 433 OFFCURVE",
"246 433 CURVE SMOOTH",
"202 433 OFFCURVE",
"171 415 OFFCURVE",
"154 395 CURVE",
"152 395 LINE",
"152 540 LINE SMOOTH",
"152 588 OFFCURVE",
"174 612 OFFCURVE",
"216 612 CURVE SMOOTH",
"258 612 OFFCURVE",
"278 587 OFFCURVE",
"278 534 CURVE SMOOTH",
"278 509 LINE",
"380 514 LINE",
"380 545 LINE SMOOTH",
"380 651 OFFCURVE",
"319 710 OFFCURVE",
"214 710 CURVE SMOOTH"
);
},
{
closed = 1;
nodes = (
"257 335 OFFCURVE",
"280 307 OFFCURVE",
"280 255 CURVE SMOOTH",
"280 168 LINE SMOOTH",
"280 116 OFFCURVE",
"257 88 OFFCURVE",
"216 88 CURVE SMOOTH",
"175 88 OFFCURVE",
"152 116 OFFCURVE",
"152 168 CURVE SMOOTH",
"152 255 LINE SMOOTH",
"152 307 OFFCURVE",
"175 335 OFFCURVE",
"216 335 CURVE SMOOTH"
);
}
);
};
layerId = "959C6BA0-AD18-4631-88F4-5A4A3C51B359";
paths = (
{
closed = 1;
nodes = (
"109 710 OFFCURVE",
"46 647 OFFCURVE",
"46 541 CURVE SMOOTH",
"46 167 LINE SMOOTH",
"46 57 OFFCURVE",
"111 -10 OFFCURVE",
"215 -10 CURVE SMOOTH",
"321 -10 OFFCURVE",
"386 57 OFFCURVE",
"386 167 CURVE SMOOTH",
"386 262 LINE SMOOTH",
"386 377 OFFCURVE",
"324 433 OFFCURVE",
"246 433 CURVE SMOOTH",
"202 433 OFFCURVE",
"171 415 OFFCURVE",
"154 395 CURVE",
"152 395 LINE",
"152 540 LINE SMOOTH",
"152 588 OFFCURVE",
"174 612 OFFCURVE",
"216 612 CURVE SMOOTH",
"258 612 OFFCURVE",
"278 587 OFFCURVE",
"278 534 CURVE SMOOTH",
"278 509 LINE",
"380 514 LINE",
"380 545 LINE SMOOTH",
"380 651 OFFCURVE",
"319 710 OFFCURVE",
"214 710 CURVE SMOOTH"
);
},
{
closed = 1;
nodes = (
"257 335 OFFCURVE",
"280 307 OFFCURVE",
"280 255 CURVE SMOOTH",
"280 168 LINE SMOOTH",
"280 116 OFFCURVE",
"257 88 OFFCURVE",
"216 88 CURVE SMOOTH",
"175 88 OFFCURVE",
"152 116 OFFCURVE",
"152 168 CURVE SMOOTH",
"152 255 LINE SMOOTH",
"152 307 OFFCURVE",
"175 335 OFFCURVE",
"216 335 CURVE SMOOTH"
);
}
);
width = 423;
}
);
leftKerningGroup = zero;
unicode = 0036;
},
{
color = 0;
glyphname = seven;
lastChange = "2018-04-04 05:25:25 +0000";
layers = (
{
background = {
paths = (
{
closed = 1;
nodes = (
"13 700 LINE",
"13 596 LINE",
"233 596 LINE",
"36 0 LINE",
"145 0 LINE",
"341 606 LINE",
"341 700 LINE"
);
}
);
};
layerId = "959C6BA0-AD18-4631-88F4-5A4A3C51B359";
paths = (
{
closed = 1;
nodes = (
"13 700 LINE",
"13 596 LINE",
"233 596 LINE",
"36 0 LINE",
"145 0 LINE",
"341 606 LINE",
"341 700 LINE"
);
}
);
width = 350;
}
);
unicode = 0037;
},
{
color = 0;
glyphname = eight;
lastChange = "2018-04-04 05:25:25 +0000";
layers = (
{
background = {
paths = (
{
closed = 1;
nodes = (
"100 710 OFFCURVE",
"37 646 OFFCURVE",
"37 538 CURVE SMOOTH",
"37 498 LINE SMOOTH",
"37 432 OFFCURVE",
"62 388 OFFCURVE",
"113 367 CURVE",
"113 365 LINE",
"58 342 OFFCURVE",
"31 291 OFFCURVE",
"31 215 CURVE SMOOTH",
"31 162 LINE SMOOTH",
"31 54 OFFCURVE",
"96 -10 OFFCURVE",
"206 -10 CURVE SMOOTH",
"316 -10 OFFCURVE",
"381 54 OFFCURVE",
"381 162 CURVE SMOOTH",
"381 215 LINE SMOOTH",
"381 291 OFFCURVE",
"354 342 OFFCURVE",
"299 365 CURVE",
"299 367 LINE",
"350 388 OFFCURVE",
"375 432 OFFCURVE",
"375 498 CURVE SMOOTH",
"375 538 LINE SMOOTH",
"375 646 OFFCURVE",
"312 710 OFFCURVE",
"206 710 CURVE SMOOTH"
);
},
{
closed = 1;
nodes = (
"249 313 OFFCURVE",
"275 284 OFFCURVE",
"275 232 CURVE SMOOTH",
"275 169 LINE SMOOTH",
"275 117 OFFCURVE",
"249 88 OFFCURVE",
"206 88 CURVE SMOOTH",
"163 88 OFFCURVE",
"137 117 OFFCURVE",
"137 169 CURVE SMOOTH",
"137 232 LINE SMOOTH",
"137 284 OFFCURVE",
"163 313 OFFCURVE",
"206 313 CURVE SMOOTH"
);
},
{
closed = 1;
nodes = (
"246 612 OFFCURVE",
"269 585 OFFCURVE",
"269 537 CURVE SMOOTH",
"269 486 LINE SMOOTH",
"269 438 OFFCURVE",
"246 411 OFFCURVE",
"206 411 CURVE SMOOTH",
"166 411 OFFCURVE",
"143 438 OFFCURVE",
"143 486 CURVE SMOOTH",
"143 537 LINE SMOOTH",
"143 585 OFFCURVE",
"166 612 OFFCURVE",
"206 612 CURVE SMOOTH"
);
}
);
};
layerId = "959C6BA0-AD18-4631-88F4-5A4A3C51B359";
paths = (
{
closed = 1;
nodes = (
"100 710 OFFCURVE",
"37 646 OFFCURVE",
"37 538 CURVE SMOOTH",
"37 498 LINE SMOOTH",
"37 432 OFFCURVE",
"62 388 OFFCURVE",
"113 367 CURVE",
"113 365 LINE",
"58 342 OFFCURVE",
"31 291 OFFCURVE",
"31 215 CURVE SMOOTH",
"31 162 LINE SMOOTH",
"31 54 OFFCURVE",
"96 -10 OFFCURVE",
"206 -10 CURVE SMOOTH",
"316 -10 OFFCURVE",
"381 54 OFFCURVE",
"381 162 CURVE SMOOTH",
"381 215 LINE SMOOTH",
"381 291 OFFCURVE",
"354 342 OFFCURVE",
"299 365 CURVE",
"299 367 LINE",
"350 388 OFFCURVE",
"375 432 OFFCURVE",
"375 498 CURVE SMOOTH",
"375 538 LINE SMOOTH",
"375 646 OFFCURVE",
"312 710 OFFCURVE",
"206 710 CURVE SMOOTH"
);
},
{
closed = 1;
nodes = (
"249 313 OFFCURVE",
"275 284 OFFCURVE",
"275 232 CURVE SMOOTH",
"275 169 LINE SMOOTH",
"275 117 OFFCURVE",
"249 88 OFFCURVE",
"206 88 CURVE SMOOTH",
"163 88 OFFCURVE",
"137 117 OFFCURVE",
"137 169 CURVE SMOOTH",
"137 232 LINE SMOOTH",
"137 284 OFFCURVE",
"163 313 OFFCURVE",
"206 313 CURVE SMOOTH"
);
},
{
closed = 1;
nodes = (
"246 612 OFFCURVE",
"269 585 OFFCURVE",
"269 537 CURVE SMOOTH",
"269 486 LINE SMOOTH",
"269 438 OFFCURVE",
"246 411 OFFCURVE",
"206 411 CURVE SMOOTH",
"166 411 OFFCURVE",
"143 438 OFFCURVE",
"143 486 CURVE SMOOTH",
"143 537 LINE SMOOTH",
"143 585 OFFCURVE",
"166 612 OFFCURVE",
"206 612 CURVE SMOOTH"
);
}
);
width = 412;
}
);
leftKerningGroup = eight;
rightKerningGroup = eight;
unicode = 0038;
},
{
color = 0;
glyphname = one.tf;
lastChange = "2018-04-04 05:25:25 +0000";
layers = (
{
background = {
paths = (
{
closed = 1;
nodes = (
"266 700 LINE",
"244 647 OFFCURVE",
"173 618 OFFCURVE",
"78 612 CURVE",
"78 538 LINE",
"234 538 LINE",
"234 0 LINE",
"340 0 LINE",
"340 700 LINE"
);
}
);
};
layerId = "959C6BA0-AD18-4631-88F4-5A4A3C51B359";
paths = (
{
closed = 1;
nodes = (
"266 700 LINE",
"244 647 OFFCURVE",
"173 618 OFFCURVE",
"78 612 CURVE",
"78 538 LINE",
"234 538 LINE",
"234 0 LINE",
"340 0 LINE",
"340 700 LINE"
);
}
);
width = 430;
}
);
},
{
color = 0;
glyphname = two.tf;
lastChange = "2018-04-04 05:25:25 +0000";
layers = (
{
background = {
paths = (
{
closed = 1;
nodes = (
"108 710 OFFCURVE",
"47 650 OFFCURVE",
"47 547 CURVE SMOOTH",
"47 499 LINE",
"149 494 LINE",
"149 529 LINE SMOOTH",
"149 588 OFFCURVE",
"169 612 OFFCURVE",
"211 612 CURVE SMOOTH",
"253 612 OFFCURVE",
"273 588 OFFCURVE",
"273 542 CURVE SMOOTH",
"273 528 LINE SMOOTH",
"273 471 OFFCURVE",
"257 422 OFFCURVE",
"207 343 CURVE SMOOTH",
"47 90 LINE",
"47 0 LINE",
"379 0 LINE",
"379 100 LINE",
"168 100 LINE",
"289 289 LINE SMOOTH",
"358 396 OFFCURVE",
"379 456 OFFCURVE",
"379 524 CURVE SMOOTH",
"379 550 LINE SMOOTH",
"379 651 OFFCURVE",
"318 710 OFFCURVE",
"213 710 CURVE SMOOTH"
);
}
);
};
layerId = "959C6BA0-AD18-4631-88F4-5A4A3C51B359";
paths = (
{
closed = 1;
nodes = (
"108 710 OFFCURVE",
"47 650 OFFCURVE",
"47 547 CURVE SMOOTH",
"47 499 LINE",
"149 494 LINE",
"149 529 LINE SMOOTH",
"149 588 OFFCURVE",
"169 612 OFFCURVE",
"211 612 CURVE SMOOTH",
"253 612 OFFCURVE",
"273 588 OFFCURVE",
"273 542 CURVE SMOOTH",
"273 528 LINE SMOOTH",
"273 471 OFFCURVE",
"257 422 OFFCURVE",
"207 343 CURVE SMOOTH",
"47 90 LINE",
"47 0 LINE",
"379 0 LINE",
"379 100 LINE",
"168 100 LINE",
"289 289 LINE SMOOTH",
"358 396 OFFCURVE",
"379 456 OFFCURVE",
"379 524 CURVE SMOOTH",
"379 550 LINE SMOOTH",
"379 651 OFFCURVE",
"318 710 OFFCURVE",
"213 710 CURVE SMOOTH"
);
}
);
width = 430;
}
);
},
{
color = 0;
glyphname = three.tf;
lastChange = "2018-04-04 05:25:25 +0000";
layers = (
{
background = {
paths = (
{
closed = 1;
nodes = (
"104 710 OFFCURVE",
"43 648 OFFCURVE",
"43 542 CURVE SMOOTH",
"43 499 LINE",
"145 494 LINE",
"145 529 LINE SMOOTH",
"145 586 OFFCURVE",
"165 612 OFFCURVE",
"209 612 CURVE SMOOTH",
"254 612 OFFCURVE",
"276 584 OFFCURVE",
"276 534 CURVE SMOOTH",
"276 496 LINE SMOOTH",
"276 437 OFFCURVE",
"255 411 OFFCURVE",
"202 411 CURVE SMOOTH",
"155 411 LINE",
"155 313 LINE",
"202 313 LINE SMOOTH",
"260 313 OFFCURVE",
"283 285 OFFCURVE",
"283 223 CURVE SMOOTH",
"283 169 LINE SMOOTH",
"283 117 OFFCURVE",
"261 88 OFFCURVE",
"212 88 CURVE SMOOTH",
"165 88 OFFCURVE",
"144 114 OFFCURVE",
"144 171 CURVE SMOOTH",
"144 206 LINE",
"42 201 LINE",
"42 158 LINE SMOOTH",
"42 52 OFFCURVE",
"104 -10 OFFCURVE",
"215 -10 CURVE SMOOTH",
"327 -10 OFFCURVE",
"389 54 OFFCURVE",
"389 162 CURVE SMOOTH",
"389 215 LINE SMOOTH",
"389 292 OFFCURVE",
"361 342 OFFCURVE",
"305 365 CURVE",
"305 367 LINE",
"357 388 OFFCURVE",
"382 432 OFFCURVE",
"382 498 CURVE SMOOTH",
"382 538 LINE SMOOTH",
"382 646 OFFCURVE",
"321 710 OFFCURVE",
"212 710 CURVE SMOOTH"
);
}
);
};
layerId = "959C6BA0-AD18-4631-88F4-5A4A3C51B359";
paths = (
{
closed = 1;
nodes = (
"104 710 OFFCURVE",
"43 648 OFFCURVE",
"43 542 CURVE SMOOTH",
"43 499 LINE",
"145 494 LINE",
"145 529 LINE SMOOTH",
"145 586 OFFCURVE",
"165 612 OFFCURVE",
"209 612 CURVE SMOOTH",
"254 612 OFFCURVE",
"276 584 OFFCURVE",
"276 534 CURVE SMOOTH",
"276 496 LINE SMOOTH",
"276 437 OFFCURVE",
"255 411 OFFCURVE",
"202 411 CURVE SMOOTH",
"155 411 LINE",
"155 313 LINE",
"202 313 LINE SMOOTH",
"260 313 OFFCURVE",
"283 285 OFFCURVE",
"283 223 CURVE SMOOTH",
"283 169 LINE SMOOTH",
"283 117 OFFCURVE",
"261 88 OFFCURVE",
"212 88 CURVE SMOOTH",
"165 88 OFFCURVE",
"144 114 OFFCURVE",
"144 171 CURVE SMOOTH",
"144 206 LINE",
"42 201 LINE",
"42 158 LINE SMOOTH",
"42 52 OFFCURVE",
"104 -10 OFFCURVE",
"215 -10 CURVE SMOOTH",
"327 -10 OFFCURVE",
"389 54 OFFCURVE",
"389 162 CURVE SMOOTH",
"389 215 LINE SMOOTH",
"389 292 OFFCURVE",
"361 342 OFFCURVE",
"305 365 CURVE",
"305 367 LINE",
"357 388 OFFCURVE",
"382 432 OFFCURVE",
"382 498 CURVE SMOOTH",
"382 538 LINE SMOOTH",
"382 646 OFFCURVE",
"321 710 OFFCURVE",
"212 710 CURVE SMOOTH"
);
}
);
width = 430;
}
);
},
{
color = 0;
glyphname = four.tf;
lastChange = "2018-04-04 05:25:25 +0000";
layers = (
{
background = {
paths = (
{
closed = 1;
nodes = (
"249 700 LINE",
"22 236 LINE",
"22 148 LINE",
"248 148 LINE",
"248 0 LINE",
"354 0 LINE",
"354 148 LINE",
"403 148 LINE",
"403 246 LINE",
"354 246 LINE",
"354 700 LINE"
);
},
{
closed = 1;
nodes = (
"248 246 LINE",
"126 246 LINE",
"246 496 LINE",
"248 496 LINE"
);
}
);
};
layerId = "959C6BA0-AD18-4631-88F4-5A4A3C51B359";
paths = (
{
closed = 1;
nodes = (
"249 700 LINE",
"22 236 LINE",
"22 148 LINE",
"248 148 LINE",
"248 0 LINE",
"354 0 LINE",
"354 148 LINE",
"403 148 LINE",
"403 246 LINE",
"354 246 LINE",
"354 700 LINE"
);
},
{
closed = 1;
nodes = (
"248 246 LINE",
"126 246 LINE",
"246 496 LINE",
"248 496 LINE"
);
}
);
width = 430;
}
);
},
{
color = 0;
glyphname = five.tf;
lastChange = "2018-04-04 05:25:25 +0000";
layers = (
{
background = {
hints = (
{
origin = "{0, 9}";
target = "{0, 26}";
},
{
origin = "{0, 19}";
target = "{0, 16}";
},
{
horizontal = 1;
origin = "{0, 22}";
target = "{0, 13}";
},
{
horizontal = 1;
origin = "{0, 6}";
target = "{0, 29}";
},
{
horizontal = 1;
origin = "{0, 36}";
target = "{0, 35}";
}
);
paths = (
{
closed = 1;
nodes = (
"70 700 LINE",
"48 299 LINE",
"146 295 LINE",
"147 309 LINE SMOOTH",
"151 347 OFFCURVE",
"174 368 OFFCURVE",
"214 368 CURVE SMOOTH",
"261 368 OFFCURVE",
"284 339 OFFCURVE",
"284 287 CURVE SMOOTH",
"284 169 LINE SMOOTH",
"284 117 OFFCURVE",
"262 88 OFFCURVE",
"214 88 CURVE SMOOTH",
"168 88 OFFCURVE",
"146 114 OFFCURVE",
"146 171 CURVE SMOOTH",
"146 190 LINE",
"44 185 LINE",
"44 158 LINE SMOOTH",
"44 52 OFFCURVE",
"107 -10 OFFCURVE",
"217 -10 CURVE SMOOTH",
"327 -10 OFFCURVE",
"390 54 OFFCURVE",
"390 162 CURVE SMOOTH",
"390 294 LINE SMOOTH",
"390 404 OFFCURVE",
"335 466 OFFCURVE",
"243 466 CURVE SMOOTH",
"197 466 OFFCURVE",
"171 452 OFFCURVE",
"156 435 CURVE",
"154 435 LINE",
"163 600 LINE",
"364 600 LINE",
"364 700 LINE"
);
}
);
};
hints = (
{
origin = "{0, 9}";
target = "{0, 26}";
},
{
origin = "{0, 19}";
target = "{0, 16}";
},
{
horizontal = 1;
origin = "{0, 22}";
target = "{0, 13}";
},
{
horizontal = 1;
origin = "{0, 6}";
target = "{0, 29}";
},
{
horizontal = 1;
origin = "{0, 36}";
target = "{0, 35}";
}
);
layerId = "959C6BA0-AD18-4631-88F4-5A4A3C51B359";
paths = (
{
closed = 1;
nodes = (
"70 700 LINE",
"48 299 LINE",
"146 295 LINE",
"147 309 LINE SMOOTH",
"151 347 OFFCURVE",
"174 368 OFFCURVE",
"214 368 CURVE SMOOTH",
"261 368 OFFCURVE",
"284 339 OFFCURVE",
"284 287 CURVE SMOOTH",
"284 169 LINE SMOOTH",
"284 117 OFFCURVE",
"262 88 OFFCURVE",
"214 88 CURVE SMOOTH",
"168 88 OFFCURVE",
"146 114 OFFCURVE",
"146 171 CURVE SMOOTH",
"146 190 LINE",
"44 185 LINE",
"44 158 LINE SMOOTH",
"44 52 OFFCURVE",
"107 -10 OFFCURVE",
"217 -10 CURVE SMOOTH",
"327 -10 OFFCURVE",
"390 54 OFFCURVE",
"390 162 CURVE SMOOTH",
"390 294 LINE SMOOTH",
"390 404 OFFCURVE",
"335 466 OFFCURVE",
"243 466 CURVE SMOOTH",
"197 466 OFFCURVE",
"171 452 OFFCURVE",
"156 435 CURVE",
"154 435 LINE",
"163 600 LINE",
"364 600 LINE",
"364 700 LINE"
);
}
);
width = 430;
}
);
},
{
color = 0;
glyphname = six.tf;
lastChange = "2018-04-04 05:25:25 +0000";
layers = (
{
background = {
paths = (
{
closed = 1;
nodes = (
"109 710 OFFCURVE",
"46 647 OFFCURVE",
"46 541 CURVE SMOOTH",
"46 167 LINE SMOOTH",
"46 57 OFFCURVE",
"111 -10 OFFCURVE",
"218 -10 CURVE SMOOTH",
"327 -10 OFFCURVE",
"392 57 OFFCURVE",
"392 167 CURVE SMOOTH",
"392 262 LINE SMOOTH",
"392 377 OFFCURVE",
"330 433 OFFCURVE",
"249 433 CURVE SMOOTH",
"202 433 OFFCURVE",
"171 415 OFFCURVE",
"154 395 CURVE",
"152 395 LINE",
"152 540 LINE SMOOTH",
"152 588 OFFCURVE",
"174 612 OFFCURVE",
"219 612 CURVE SMOOTH",
"264 612 OFFCURVE",
"284 587 OFFCURVE",
"284 534 CURVE SMOOTH",
"284 509 LINE",
"386 514 LINE",
"386 545 LINE SMOOTH",
"386 651 OFFCURVE",
"325 710 OFFCURVE",
"217 710 CURVE SMOOTH"
);
},
{
closed = 1;
nodes = (
"263 335 OFFCURVE",
"286 307 OFFCURVE",
"286 255 CURVE SMOOTH",
"286 168 LINE SMOOTH",
"286 116 OFFCURVE",
"263 88 OFFCURVE",
"219 88 CURVE SMOOTH",
"175 88 OFFCURVE",
"152 116 OFFCURVE",
"152 168 CURVE SMOOTH",
"152 255 LINE SMOOTH",
"152 307 OFFCURVE",
"175 335 OFFCURVE",
"219 335 CURVE SMOOTH"
);
}
);
};
layerId = "959C6BA0-AD18-4631-88F4-5A4A3C51B359";
paths = (
{
closed = 1;
nodes = (
"109 710 OFFCURVE",
"46 647 OFFCURVE",
"46 541 CURVE SMOOTH",
"46 167 LINE SMOOTH",
"46 57 OFFCURVE",
"111 -10 OFFCURVE",
"218 -10 CURVE SMOOTH",
"327 -10 OFFCURVE",
"392 57 OFFCURVE",
"392 167 CURVE SMOOTH",
"392 262 LINE SMOOTH",
"392 377 OFFCURVE",
"330 433 OFFCURVE",
"249 433 CURVE SMOOTH",
"202 433 OFFCURVE",
"171 415 OFFCURVE",
"154 395 CURVE",
"152 395 LINE",
"152 540 LINE SMOOTH",
"152 588 OFFCURVE",
"174 612 OFFCURVE",
"219 612 CURVE SMOOTH",
"264 612 OFFCURVE",
"284 587 OFFCURVE",
"284 534 CURVE SMOOTH",
"284 509 LINE",
"386 514 LINE",
"386 545 LINE SMOOTH",
"386 651 OFFCURVE",
"325 710 OFFCURVE",
"217 710 CURVE SMOOTH"
);
},
{
closed = 1;
nodes = (
"263 335 OFFCURVE",
"286 307 OFFCURVE",
"286 255 CURVE SMOOTH",
"286 168 LINE SMOOTH",
"286 116 OFFCURVE",
"263 88 OFFCURVE",
"219 88 CURVE SMOOTH",
"175 88 OFFCURVE",
"152 116 OFFCURVE",
"152 168 CURVE SMOOTH",
"152 255 LINE SMOOTH",
"152 307 OFFCURVE",
"175 335 OFFCURVE",
"219 335 CURVE SMOOTH"
);
}
);
width = 430;
}
);
},
{
color = 0;
glyphname = seven.tf;
lastChange = "2018-04-04 05:25:25 +0000";
layers = (
{
background = {
paths = (
{
closed = 1;
nodes = (
"43 700 LINE",
"43 596 LINE",
"283 596 LINE",
"76 0 LINE",
"185 0 LINE",
"391 606 LINE",
"391 700 LINE"
);
}
);
};
layerId = "959C6BA0-AD18-4631-88F4-5A4A3C51B359";
paths = (
{
closed = 1;
nodes = (
"43 700 LINE",
"43 596 LINE",
"283 596 LINE",
"76 0 LINE",
"185 0 LINE",
"391 606 LINE",
"391 700 LINE"
);
}
);
width = 430;
}
);
},
{
color = 0;
glyphname = eight.tf;
lastChange = "2018-04-04 05:25:25 +0000";
layers = (
{
background = {
paths = (
{
closed = 1;
nodes = (
"106 710 OFFCURVE",
"43 646 OFFCURVE",
"43 538 CURVE SMOOTH",
"43 498 LINE SMOOTH",
"43 432 OFFCURVE",
"68 388 OFFCURVE",
"119 367 CURVE",
"119 365 LINE",
"64 342 OFFCURVE",
"37 291 OFFCURVE",
"37 215 CURVE SMOOTH",
"37 162 LINE SMOOTH",
"37 54 OFFCURVE",
"102 -10 OFFCURVE",
"215 -10 CURVE SMOOTH",
"328 -10 OFFCURVE",
"393 54 OFFCURVE",
"393 162 CURVE SMOOTH",
"393 215 LINE SMOOTH",
"393 291 OFFCURVE",
"366 342 OFFCURVE",
"311 365 CURVE",
"311 367 LINE",
"362 388 OFFCURVE",
"387 432 OFFCURVE",
"387 498 CURVE SMOOTH",
"387 538 LINE SMOOTH",
"387 646 OFFCURVE",
"324 710 OFFCURVE",
"215 710 CURVE SMOOTH"
);
},
{
closed = 1;
nodes = (
"261 313 OFFCURVE",
"287 284 OFFCURVE",
"287 232 CURVE SMOOTH",
"287 169 LINE SMOOTH",
"287 117 OFFCURVE",
"261 88 OFFCURVE",
"215 88 CURVE SMOOTH",
"169 88 OFFCURVE",
"143 117 OFFCURVE",
"143 169 CURVE SMOOTH",
"143 232 LINE SMOOTH",
"143 284 OFFCURVE",
"169 313 OFFCURVE",
"215 313 CURVE SMOOTH"
);
},
{
closed = 1;
nodes = (
"258 612 OFFCURVE",
"281 585 OFFCURVE",
"281 537 CURVE SMOOTH",
"281 486 LINE SMOOTH",
"281 438 OFFCURVE",
"258 411 OFFCURVE",
"215 411 CURVE SMOOTH",
"172 411 OFFCURVE",
"149 438 OFFCURVE",
"149 486 CURVE SMOOTH",
"149 537 LINE SMOOTH",
"149 585 OFFCURVE",
"172 612 OFFCURVE",
"215 612 CURVE SMOOTH"
);
}
);
};
layerId = "959C6BA0-AD18-4631-88F4-5A4A3C51B359";
paths = (
{
closed = 1;
nodes = (
"106 710 OFFCURVE",
"43 646 OFFCURVE",
"43 538 CURVE SMOOTH",
"43 498 LINE SMOOTH",
"43 432 OFFCURVE",
"68 388 OFFCURVE",
"119 367 CURVE",
"119 365 LINE",
"64 342 OFFCURVE",
"37 291 OFFCURVE",
"37 215 CURVE SMOOTH",
"37 162 LINE SMOOTH",
"37 54 OFFCURVE",
"102 -10 OFFCURVE",
"215 -10 CURVE SMOOTH",
"328 -10 OFFCURVE",
"393 54 OFFCURVE",
"393 162 CURVE SMOOTH",
"393 215 LINE SMOOTH",
"393 291 OFFCURVE",
"366 342 OFFCURVE",
"311 365 CURVE",
"311 367 LINE",
"362 388 OFFCURVE",
"387 432 OFFCURVE",
"387 498 CURVE SMOOTH",
"387 538 LINE SMOOTH",
"387 646 OFFCURVE",
"324 710 OFFCURVE",
"215 710 CURVE SMOOTH"
);
},
{
closed = 1;
nodes = (
"261 313 OFFCURVE",
"287 284 OFFCURVE",
"287 232 CURVE SMOOTH",
"287 169 LINE SMOOTH",
"287 117 OFFCURVE",
"261 88 OFFCURVE",
"215 88 CURVE SMOOTH",
"169 88 OFFCURVE",
"143 117 OFFCURVE",
"143 169 CURVE SMOOTH",
"143 232 LINE SMOOTH",
"143 284 OFFCURVE",
"169 313 OFFCURVE",
"215 313 CURVE SMOOTH"
);
},
{
closed = 1;
nodes = (
"258 612 OFFCURVE",
"281 585 OFFCURVE",
"281 537 CURVE SMOOTH",
"281 486 LINE SMOOTH",
"281 438 OFFCURVE",
"258 411 OFFCURVE",
"215 411 CURVE SMOOTH",
"172 411 OFFCURVE",
"149 438 OFFCURVE",
"149 486 CURVE SMOOTH",
"149 537 LINE SMOOTH",
"149 585 OFFCURVE",
"172 612 OFFCURVE",
"215 612 CURVE SMOOTH"
);
}
);
width = 430;
}
);
},
{
color = 0;
glyphname = zero.dnom;
lastChange = "2018-04-04 05:25:25 +0000";
layers = (
{
background = {
paths = (
{
closed = 1;
nodes = (
"70 422 OFFCURVE",
"29 380 OFFCURVE",
"29 312 CURVE SMOOTH",
"29 100 LINE SMOOTH",
"29 32 OFFCURVE",
"70 -10 OFFCURVE",
"136 -10 CURVE SMOOTH",
"202 -10 OFFCURVE",
"243 32 OFFCURVE",
"243 100 CURVE SMOOTH",
"243 312 LINE SMOOTH",
"243 380 OFFCURVE",
"202 422 OFFCURVE",
"136 422 CURVE SMOOTH"
);
},
{
closed = 1;
nodes = (
"159 357 OFFCURVE",
"171 342 OFFCURVE",
"171 312 CURVE SMOOTH",
"171 100 LINE SMOOTH",
"171 70 OFFCURVE",
"159 55 OFFCURVE",
"136 55 CURVE SMOOTH",
"113 55 OFFCURVE",
"101 70 OFFCURVE",
"101 100 CURVE SMOOTH",
"101 312 LINE SMOOTH",
"101 342 OFFCURVE",
"113 357 OFFCURVE",
"136 357 CURVE SMOOTH"
);
}
);
};
layerId = "959C6BA0-AD18-4631-88F4-5A4A3C51B359";
paths = (
{
closed = 1;
nodes = (
"70 422 OFFCURVE",
"29 380 OFFCURVE",
"29 312 CURVE SMOOTH",
"29 100 LINE SMOOTH",
"29 32 OFFCURVE",
"70 -10 OFFCURVE",
"136 -10 CURVE SMOOTH",
"202 -10 OFFCURVE",
"243 32 OFFCURVE",
"243 100 CURVE SMOOTH",
"243 312 LINE SMOOTH",
"243 380 OFFCURVE",
"202 422 OFFCURVE",
"136 422 CURVE SMOOTH"
);
},
{
closed = 1;
nodes = (
"159 357 OFFCURVE",
"171 342 OFFCURVE",
"171 312 CURVE SMOOTH",
"171 100 LINE SMOOTH",
"171 70 OFFCURVE",
"159 55 OFFCURVE",
"136 55 CURVE SMOOTH",
"113 55 OFFCURVE",
"101 70 OFFCURVE",
"101 100 CURVE SMOOTH",
"101 312 LINE SMOOTH",
"101 342 OFFCURVE",
"113 357 OFFCURVE",
"136 357 CURVE SMOOTH"
);
}
);
width = 272;
}
);
},
{
color = 0;
glyphname = one.dnom;
lastChange = "2018-04-04 05:25:25 +0000";
layers = (
{
background = {
paths = (
{
closed = 1;
nodes = (
"110 412 LINE",
"95 378 OFFCURVE",
"64 361 OFFCURVE",
"11 359 CURVE",
"11 308 LINE",
"89 308 LINE",
"89 0 LINE",
"161 0 LINE",
"161 412 LINE"
);
}
);
};
layerId = "959C6BA0-AD18-4631-88F4-5A4A3C51B359";
paths = (
{
closed = 1;
nodes = (
"110 412 LINE",
"95 378 OFFCURVE",
"64 361 OFFCURVE",
"11 359 CURVE",
"11 308 LINE",
"89 308 LINE",
"89 0 LINE",
"161 0 LINE",
"161 412 LINE"
);
}
);
width = 196;
}
);
},
{
color = 0;
glyphname = two.dnom;
lastChange = "2018-04-04 05:25:25 +0000";
layers = (
{
background = {
paths = (
{
closed = 1;
nodes = (
"53 422 OFFCURVE",
"15 382 OFFCURVE",
"15 318 CURVE SMOOTH",
"15 289 LINE",
"84 286 LINE",
"84 308 LINE SMOOTH",
"84 343 OFFCURVE",
"92 357 OFFCURVE",
"116 357 CURVE SMOOTH",
"137 357 OFFCURVE",
"147 345 OFFCURVE",
"147 318 CURVE SMOOTH",
"147 309 LINE SMOOTH",
"147 275 OFFCURVE",
"139 251 OFFCURVE",
"110 207 CURVE SMOOTH",
"15 58 LINE",
"15 0 LINE",
"219 0 LINE",
"219 66 LINE",
"99 66 LINE",
"166 170 LINE SMOOTH",
"208 236 OFFCURVE",
"219 266 OFFCURVE",
"219 307 CURVE SMOOTH",
"219 323 LINE SMOOTH",
"219 385 OFFCURVE",
"181 422 OFFCURVE",
"117 422 CURVE SMOOTH"
);
}
);
};
layerId = "959C6BA0-AD18-4631-88F4-5A4A3C51B359";
paths = (
{
closed = 1;
nodes = (
"53 422 OFFCURVE",
"15 382 OFFCURVE",
"15 318 CURVE SMOOTH",
"15 289 LINE",
"84 286 LINE",
"84 308 LINE SMOOTH",
"84 343 OFFCURVE",
"92 357 OFFCURVE",
"116 357 CURVE SMOOTH",
"137 357 OFFCURVE",
"147 345 OFFCURVE",
"147 318 CURVE SMOOTH",
"147 309 LINE SMOOTH",
"147 275 OFFCURVE",
"139 251 OFFCURVE",
"110 207 CURVE SMOOTH",
"15 58 LINE",
"15 0 LINE",
"219 0 LINE",
"219 66 LINE",
"99 66 LINE",
"166 170 LINE SMOOTH",
"208 236 OFFCURVE",
"219 266 OFFCURVE",
"219 307 CURVE SMOOTH",
"219 323 LINE SMOOTH",
"219 385 OFFCURVE",
"181 422 OFFCURVE",
"117 422 CURVE SMOOTH"
);
}
);
width = 237;
}
);
},
{
color = 0;
glyphname = three.dnom;
lastChange = "2018-04-04 05:25:25 +0000";
layers = (
{
background = {
paths = (
{
closed = 1;
nodes = (
"57 422 OFFCURVE",
"19 382 OFFCURVE",
"19 315 CURVE SMOOTH",
"19 293 LINE",
"89 290 LINE",
"89 308 LINE SMOOTH",
"89 343 OFFCURVE",
"99 357 OFFCURVE",
"122 357 CURVE SMOOTH",
"144 357 OFFCURVE",
"155 343 OFFCURVE",
"155 313 CURVE SMOOTH",
"155 294 LINE SMOOTH",
"155 260 OFFCURVE",
"145 246 OFFCURVE",
"117 246 CURVE SMOOTH",
"87 246 LINE",
"87 181 LINE",
"117 181 LINE SMOOTH",
"148 181 OFFCURVE",
"160 166 OFFCURVE",
"160 130 CURVE SMOOTH",
"160 101 LINE SMOOTH",
"160 70 OFFCURVE",
"148 55 OFFCURVE",
"124 55 CURVE SMOOTH",
"99 55 OFFCURVE",
"88 69 OFFCURVE",
"88 104 CURVE SMOOTH",
"88 122 LINE",
"18 119 LINE",
"18 97 LINE SMOOTH",
"18 30 OFFCURVE",
"57 -10 OFFCURVE",
"125 -10 CURVE SMOOTH",
"193 -10 OFFCURVE",
"232 30 OFFCURVE",
"232 97 CURVE SMOOTH",
"232 125 LINE SMOOTH",
"232 169 OFFCURVE",
"217 200 OFFCURVE",
"185 215 CURVE",
"185 217 LINE",
"213 231 OFFCURVE",
"227 257 OFFCURVE",
"227 295 CURVE SMOOTH",
"227 315 LINE SMOOTH",
"227 382 OFFCURVE",
"189 422 OFFCURVE",
"123 422 CURVE SMOOTH"
);
}
);
};
layerId = "959C6BA0-AD18-4631-88F4-5A4A3C51B359";
paths = (
{
closed = 1;
nodes = (
"57 422 OFFCURVE",
"19 382 OFFCURVE",
"19 315 CURVE SMOOTH",
"19 293 LINE",
"89 290 LINE",
"89 308 LINE SMOOTH",
"89 343 OFFCURVE",
"99 357 OFFCURVE",
"122 357 CURVE SMOOTH",
"144 357 OFFCURVE",
"155 343 OFFCURVE",
"155 313 CURVE SMOOTH",
"155 294 LINE SMOOTH",
"155 260 OFFCURVE",
"145 246 OFFCURVE",
"117 246 CURVE SMOOTH",
"87 246 LINE",
"87 181 LINE",
"117 181 LINE SMOOTH",
"148 181 OFFCURVE",
"160 166 OFFCURVE",
"160 130 CURVE SMOOTH",
"160 101 LINE SMOOTH",
"160 70 OFFCURVE",
"148 55 OFFCURVE",
"124 55 CURVE SMOOTH",
"99 55 OFFCURVE",
"88 69 OFFCURVE",
"88 104 CURVE SMOOTH",
"88 122 LINE",
"18 119 LINE",
"18 97 LINE SMOOTH",
"18 30 OFFCURVE",
"57 -10 OFFCURVE",
"125 -10 CURVE SMOOTH",
"193 -10 OFFCURVE",
"232 30 OFFCURVE",
"232 97 CURVE SMOOTH",
"232 125 LINE SMOOTH",
"232 169 OFFCURVE",
"217 200 OFFCURVE",
"185 215 CURVE",
"185 217 LINE",
"213 231 OFFCURVE",
"227 257 OFFCURVE",
"227 295 CURVE SMOOTH",
"227 315 LINE SMOOTH",
"227 382 OFFCURVE",
"189 422 OFFCURVE",
"123 422 CURVE SMOOTH"
);
}
);
width = 251;
}
);
},
{
color = 0;
glyphname = four.dnom;
lastChange = "2018-04-04 05:25:25 +0000";
layers = (
{
background = {
paths = (
{
closed = 1;
nodes = (
"141 412 LINE",
"8 146 LINE",
"8 87 LINE",
"142 87 LINE",
"142 0 LINE",
"214 0 LINE",
"214 87 LINE",
"245 87 LINE",
"245 152 LINE",
"214 152 LINE",
"214 412 LINE"
);
},
{
closed = 1;
nodes = (
"142 152 LINE",
"77 152 LINE",
"140 283 LINE",
"142 283 LINE"
);
}
);
};
layerId = "959C6BA0-AD18-4631-88F4-5A4A3C51B359";
paths = (
{
closed = 1;
nodes = (
"141 412 LINE",
"8 146 LINE",
"8 87 LINE",
"142 87 LINE",
"142 0 LINE",
"214 0 LINE",
"214 87 LINE",
"245 87 LINE",
"245 152 LINE",
"214 152 LINE",
"214 412 LINE"
);
},
{
closed = 1;
nodes = (
"142 152 LINE",
"77 152 LINE",
"140 283 LINE",
"142 283 LINE"
);
}
);
width = 257;
}
);
},
{
color = 0;
glyphname = five.dnom;
lastChange = "2018-04-04 05:25:25 +0000";
layers = (
{
background = {
paths = (
{
closed = 1;
nodes = (
"122 277 OFFCURVE",
"107 272 OFFCURVE",
"97 263 CURVE",
"95 263 LINE",
"98.785 345 LINE",
"216 345 LINE",
"216 412 LINE",
"38 412 LINE",
"24 173 LINE",
"90 171 LINE",
"91 181 LINE SMOOTH",
"93 201 OFFCURVE",
"106 212 OFFCURVE",
"125 212 CURVE SMOOTH",
"148 212 OFFCURVE",
"160 196 OFFCURVE",
"160 166 CURVE SMOOTH",
"160 101 LINE SMOOTH",
"160 71 OFFCURVE",
"149 55 OFFCURVE",
"124 55 CURVE SMOOTH",
"101 55 OFFCURVE",
"90 69 OFFCURVE",
"90 103 CURVE SMOOTH",
"90 113 LINE",
"20 110 LINE",
"20 97 LINE SMOOTH",
"20 30 OFFCURVE",
"59 -10 OFFCURVE",
"126 -10 CURVE SMOOTH",
"193 -10 OFFCURVE",
"232 30 OFFCURVE",
"232 97 CURVE SMOOTH",
"232 170 LINE SMOOTH",
"232 237 OFFCURVE",
"198 277 OFFCURVE",
"142 277 CURVE SMOOTH"
);
}
);
};
layerId = "959C6BA0-AD18-4631-88F4-5A4A3C51B359";
paths = (
{
closed = 1;
nodes = (
"122 277 OFFCURVE",
"107 272 OFFCURVE",
"97 263 CURVE",
"95 263 LINE",
"98.785 345 LINE",
"216 345 LINE",
"216 412 LINE",
"38 412 LINE",
"24 173 LINE",
"90 171 LINE",
"91 181 LINE SMOOTH",
"93 201 OFFCURVE",
"106 212 OFFCURVE",
"125 212 CURVE SMOOTH",
"148 212 OFFCURVE",
"160 196 OFFCURVE",
"160 166 CURVE SMOOTH",
"160 101 LINE SMOOTH",
"160 71 OFFCURVE",
"149 55 OFFCURVE",
"124 55 CURVE SMOOTH",
"101 55 OFFCURVE",
"90 69 OFFCURVE",
"90 103 CURVE SMOOTH",
"90 113 LINE",
"20 110 LINE",
"20 97 LINE SMOOTH",
"20 30 OFFCURVE",
"59 -10 OFFCURVE",
"126 -10 CURVE SMOOTH",
"193 -10 OFFCURVE",
"232 30 OFFCURVE",
"232 97 CURVE SMOOTH",
"232 170 LINE SMOOTH",
"232 237 OFFCURVE",
"198 277 OFFCURVE",
"142 277 CURVE SMOOTH"
);
}
);
width = 250;
}
);
},
{
color = 0;
glyphname = six.dnom;
lastChange = "2018-04-04 05:25:25 +0000";
layers = (
{
background = {
paths = (
{
closed = 1;
nodes = (
"68 422 OFFCURVE",
"29 383 OFFCURVE",
"29 317 CURVE SMOOTH",
"29 100 LINE SMOOTH",
"29 32 OFFCURVE",
"70 -10 OFFCURVE",
"136 -10 CURVE SMOOTH",
"202 -10 OFFCURVE",
"243 32 OFFCURVE",
"243 100 CURVE SMOOTH",
"243 153 LINE SMOOTH",
"243 223 OFFCURVE",
"204 259 OFFCURVE",
"156 259 CURVE SMOOTH",
"132 259 OFFCURVE",
"114 250 OFFCURVE",
"103 241 CURVE",
"101 241 LINE",
"101 316 LINE SMOOTH",
"101 344 OFFCURVE",
"112 357 OFFCURVE",
"135 357 CURVE SMOOTH",
"159 357 OFFCURVE",
"169 343 OFFCURVE",
"169 310 CURVE SMOOTH",
"169 298 LINE",
"240 301 LINE",
"240 319 LINE SMOOTH",
"240 384 OFFCURVE",
"201 422 OFFCURVE",
"135 422 CURVE SMOOTH"
);
},
{
closed = 1;
nodes = (
"159 194 OFFCURVE",
"171 179 OFFCURVE",
"171 149 CURVE SMOOTH",
"171 100 LINE SMOOTH",
"171 70 OFFCURVE",
"159 55 OFFCURVE",
"136 55 CURVE SMOOTH",
"113 55 OFFCURVE",
"101 70 OFFCURVE",
"101 100 CURVE SMOOTH",
"101 149 LINE SMOOTH",
"101 179 OFFCURVE",
"113 194 OFFCURVE",
"136 194 CURVE SMOOTH"
);
}
);
};
layerId = "959C6BA0-AD18-4631-88F4-5A4A3C51B359";
paths = (
{
closed = 1;
nodes = (
"68 422 OFFCURVE",
"29 383 OFFCURVE",
"29 317 CURVE SMOOTH",
"29 100 LINE SMOOTH",
"29 32 OFFCURVE",
"70 -10 OFFCURVE",
"136 -10 CURVE SMOOTH",
"202 -10 OFFCURVE",
"243 32 OFFCURVE",
"243 100 CURVE SMOOTH",
"243 153 LINE SMOOTH",
"243 223 OFFCURVE",
"204 259 OFFCURVE",
"156 259 CURVE SMOOTH",
"132 259 OFFCURVE",
"114 250 OFFCURVE",
"103 241 CURVE",
"101 241 LINE",
"101 316 LINE SMOOTH",
"101 344 OFFCURVE",
"112 357 OFFCURVE",
"135 357 CURVE SMOOTH",
"159 357 OFFCURVE",
"169 343 OFFCURVE",
"169 310 CURVE SMOOTH",
"169 298 LINE",
"240 301 LINE",
"240 319 LINE SMOOTH",
"240 384 OFFCURVE",
"201 422 OFFCURVE",
"135 422 CURVE SMOOTH"
);
},
{
closed = 1;
nodes = (
"159 194 OFFCURVE",
"171 179 OFFCURVE",
"171 149 CURVE SMOOTH",
"171 100 LINE SMOOTH",
"171 70 OFFCURVE",
"159 55 OFFCURVE",
"136 55 CURVE SMOOTH",
"113 55 OFFCURVE",
"101 70 OFFCURVE",
"101 100 CURVE SMOOTH",
"101 149 LINE SMOOTH",
"101 179 OFFCURVE",
"113 194 OFFCURVE",
"136 194 CURVE SMOOTH"
);
}
);
width = 267;
}
);
},
{
color = 0;
glyphname = seven.dnom;
lastChange = "2018-04-04 05:25:25 +0000";
layers = (
{
background = {
paths = (
{
closed = 1;
nodes = (
"9 412 LINE",
"9 343 LINE",
"142 343 LINE",
"22 0 LINE",
"96 0 LINE",
"215 349 LINE",
"215 412 LINE"
);
}
);
};
layerId = "959C6BA0-AD18-4631-88F4-5A4A3C51B359";
paths = (
{
closed = 1;
nodes = (
"9 412 LINE",
"9 343 LINE",
"142 343 LINE",
"22 0 LINE",
"96 0 LINE",
"215 349 LINE",
"215 412 LINE"
);
}
);
width = 220;
}
);
},
{
color = 0;
glyphname = eight.dnom;
lastChange = "2018-04-04 05:25:25 +0000";
layers = (
{
background = {
paths = (
{
closed = 1;
nodes = (
"62 422 OFFCURVE",
"22 381 OFFCURVE",
"22 315 CURVE SMOOTH",
"22 295 LINE SMOOTH",
"22 257 OFFCURVE",
"36 231 OFFCURVE",
"65 217 CURVE",
"65 215 LINE",
"34 200 OFFCURVE",
"18 169 OFFCURVE",
"18 125 CURVE SMOOTH",
"18 97 LINE SMOOTH",
"18 31 OFFCURVE",
"59 -10 OFFCURVE",
"128 -10 CURVE SMOOTH",
"197 -10 OFFCURVE",
"238 31 OFFCURVE",
"238 97 CURVE SMOOTH",
"238 125 LINE SMOOTH",
"238 169 OFFCURVE",
"222 200 OFFCURVE",
"191 215 CURVE",
"191 217 LINE",
"220 231 OFFCURVE",
"234 257 OFFCURVE",
"234 295 CURVE SMOOTH",
"234 315 LINE SMOOTH",
"234 381 OFFCURVE",
"194 422 OFFCURVE",
"128 422 CURVE SMOOTH"
);
},
{
closed = 1;
nodes = (
"152 181 OFFCURVE",
"166 165 OFFCURVE",
"166 135 CURVE SMOOTH",
"166 101 LINE SMOOTH",
"166 71 OFFCURVE",
"152 55 OFFCURVE",
"128 55 CURVE SMOOTH",
"104 55 OFFCURVE",
"90 71 OFFCURVE",
"90 101 CURVE SMOOTH",
"90 135 LINE SMOOTH",
"90 165 OFFCURVE",
"104 181 OFFCURVE",
"128 181 CURVE SMOOTH"
);
},
{
closed = 1;
nodes = (
"150 357 OFFCURVE",
"162 342 OFFCURVE",
"162 315 CURVE SMOOTH",
"162 288 LINE SMOOTH",
"162 260 OFFCURVE",
"150 246 OFFCURVE",
"128 246 CURVE SMOOTH",
"106 246 OFFCURVE",
"94 260 OFFCURVE",
"94 288 CURVE SMOOTH",
"94 315 LINE SMOOTH",
"94 342 OFFCURVE",
"106 357 OFFCURVE",
"128 357 CURVE SMOOTH"
);
}
);
};
layerId = "959C6BA0-AD18-4631-88F4-5A4A3C51B359";
paths = (
{
closed = 1;
nodes = (
"62 422 OFFCURVE",
"22 381 OFFCURVE",
"22 315 CURVE SMOOTH",
"22 295 LINE SMOOTH",
"22 257 OFFCURVE",
"36 231 OFFCURVE",
"65 217 CURVE",
"65 215 LINE",
"34 200 OFFCURVE",
"18 169 OFFCURVE",
"18 125 CURVE SMOOTH",
"18 97 LINE SMOOTH",
"18 31 OFFCURVE",
"59 -10 OFFCURVE",
"128 -10 CURVE SMOOTH",
"197 -10 OFFCURVE",
"238 31 OFFCURVE",
"238 97 CURVE SMOOTH",
"238 125 LINE SMOOTH",
"238 169 OFFCURVE",
"222 200 OFFCURVE",
"191 215 CURVE",
"191 217 LINE",
"220 231 OFFCURVE",
"234 257 OFFCURVE",
"234 295 CURVE SMOOTH",
"234 315 LINE SMOOTH",
"234 381 OFFCURVE",
"194 422 OFFCURVE",
"128 422 CURVE SMOOTH"
);
},
{
closed = 1;
nodes = (
"152 181 OFFCURVE",
"166 165 OFFCURVE",
"166 135 CURVE SMOOTH",
"166 101 LINE SMOOTH",
"166 71 OFFCURVE",
"152 55 OFFCURVE",
"128 55 CURVE SMOOTH",
"104 55 OFFCURVE",
"90 71 OFFCURVE",
"90 101 CURVE SMOOTH",
"90 135 LINE SMOOTH",
"90 165 OFFCURVE",
"104 181 OFFCURVE",
"128 181 CURVE SMOOTH"
);
},
{
closed = 1;
nodes = (
"150 357 OFFCURVE",
"162 342 OFFCURVE",
"162 315 CURVE SMOOTH",
"162 288 LINE SMOOTH",
"162 260 OFFCURVE",
"150 246 OFFCURVE",
"128 246 CURVE SMOOTH",
"106 246 OFFCURVE",
"94 260 OFFCURVE",
"94 288 CURVE SMOOTH",
"94 315 LINE SMOOTH",
"94 342 OFFCURVE",
"106 357 OFFCURVE",
"128 357 CURVE SMOOTH"
);
}
);
width = 256;
}
);
},
{
color = 0;
glyphname = fraction;
lastChange = "2018-04-04 05:25:25 +0000";
layers = (
{
background = {
paths = (
{
closed = 1;
nodes = (
"153 710 LINE",
"-99 -10 LINE",
"-33 -10 LINE",
"219 710 LINE"
);
}
);
};
layerId = "959C6BA0-AD18-4631-88F4-5A4A3C51B359";
paths = (
{
closed = 1;
nodes = (
"153 710 LINE",
"-99 -10 LINE",
"-33 -10 LINE",
"219 710 LINE"
);
}
);
width = 120;
}
);
unicode = 2044;
},
{
color = 0;
glyphname = asterisk;
lastChange = "2018-04-04 05:25:25 +0000";
layers = (
{
background = {
paths = (
{
closed = 1;
nodes = (
"135 700 LINE",
"142 596 LINE",
"46 636 LINE",
"17 549 LINE",
"120 524 LINE",
"52 444 LINE",
"125 392 LINE",
"180 481 LINE",
"235 392 LINE",
"308 444 LINE",
"240 524 LINE",
"343 549 LINE",
"314 636 LINE",
"218 596 LINE",
"225 700 LINE"
);
}
);
};
layerId = "959C6BA0-AD18-4631-88F4-5A4A3C51B359";
paths = (
{
closed = 1;
nodes = (
"135 700 LINE",
"142 596 LINE",
"46 636 LINE",
"17 549 LINE",
"120 524 LINE",
"52 444 LINE",
"125 392 LINE",
"180 481 LINE",
"235 392 LINE",
"308 444 LINE",
"240 524 LINE",
"343 549 LINE",
"314 636 LINE",
"218 596 LINE",
"225 700 LINE"
);
}
);
width = 351;
}
);
unicode = 002A;
},
{
color = 0;
glyphname = backslash;
lastChange = "2018-04-04 05:25:25 +0000";
layers = (
{
background = {
paths = (
{
closed = 1;
nodes = (
"19 750 LINE",
"271 -50 LINE",
"357 -50 LINE",
"105 750 LINE"
);
}
);
};
layerId = "959C6BA0-AD18-4631-88F4-5A4A3C51B359";
paths = (
{
closed = 1;
nodes = (
"19 750 LINE",
"271 -50 LINE",
"357 -50 LINE",
"105 750 LINE"
);
}
);
width = 376;
}
);
unicode = 005C;
},
{
color = 0;
glyphname = periodcentered;
lastChange = "2018-04-04 05:25:25 +0000";
layers = (
{
background = {
paths = (
{
closed = 1;
nodes = (
"57 406 LINE",
"57 294 LINE",
"169 294 LINE",
"169 406 LINE"
);
}
);
};
layerId = "959C6BA0-AD18-4631-88F4-5A4A3C51B359";
paths = (
{
closed = 1;
nodes = (
"57 406 LINE",
"57 294 LINE",
"169 294 LINE",
"169 406 LINE"
);
}
);
width = 226;
}
);
leftKerningGroup = hyphen;
rightKerningGroup = hyphen;
unicode = 00B7;
},
{
color = 0;
glyphname = bullet;
lastChange = "2018-04-04 05:25:25 +0000";
layers = (
{
background = {
paths = (
{
closed = 1;
nodes = (
"134 500 OFFCURVE",
"70 436 OFFCURVE",
"70 350 CURVE SMOOTH",
"70 264 OFFCURVE",
"134 200 OFFCURVE",
"220 200 CURVE SMOOTH",
"306 200 OFFCURVE",
"370 264 OFFCURVE",
"370 350 CURVE SMOOTH",
"370 436 OFFCURVE",
"306 500 OFFCURVE",
"220 500 CURVE SMOOTH"
);
}
);
};
layerId = "959C6BA0-AD18-4631-88F4-5A4A3C51B359";
paths = (
{
closed = 1;
nodes = (
"134 500 OFFCURVE",
"70 436 OFFCURVE",
"70 350 CURVE SMOOTH",
"70 264 OFFCURVE",
"134 200 OFFCURVE",
"220 200 CURVE SMOOTH",
"306 200 OFFCURVE",
"370 264 OFFCURVE",
"370 350 CURVE SMOOTH",
"370 436 OFFCURVE",
"306 500 OFFCURVE",
"220 500 CURVE SMOOTH"
);
}
);
width = 440;
}
);
unicode = 2022;
},
{
color = 0;
glyphname = comma;
lastChange = "2018-04-04 05:25:25 +0000";
layers = (
{
background = {
paths = (
{
closed = 1;
nodes = (
"57 112 LINE",
"57 0 LINE",
"93 0 LINE",
"57 -112 LINE",
"112 -112 LINE",
"169 10 LINE",
"169 112 LINE"
);
}
);
};
layerId = "959C6BA0-AD18-4631-88F4-5A4A3C51B359";
paths = (
{
closed = 1;
nodes = (
"57 112 LINE",
"57 0 LINE",
"93 0 LINE",
"57 -112 LINE",
"112 -112 LINE",
"169 10 LINE",
"169 112 LINE"
);
}
);
width = 226;
}
);
leftKerningGroup = period;
rightKerningGroup = period;
unicode = 002C;
},
{
color = 0;
glyphname = ellipsis;
lastChange = "2018-04-04 05:25:25 +0000";
layers = (
{
background = {
paths = (
{
closed = 1;
nodes = (
"611 112 LINE",
"611 0 LINE",
"723 0 LINE",
"723 112 LINE"
);
},
{
closed = 1;
nodes = (
"77 112 LINE",
"77 0 LINE",
"189 0 LINE",
"189 112 LINE"
);
},
{
closed = 1;
nodes = (
"344 112 LINE",
"344 0 LINE",
"456 0 LINE",
"456 112 LINE"
);
}
);
};
layerId = "959C6BA0-AD18-4631-88F4-5A4A3C51B359";
paths = (
{
closed = 1;
nodes = (
"611 112 LINE",
"611 0 LINE",
"723 0 LINE",
"723 112 LINE"
);
},
{
closed = 1;
nodes = (
"77 112 LINE",
"77 0 LINE",
"189 0 LINE",
"189 112 LINE"
);
},
{
closed = 1;
nodes = (
"344 112 LINE",
"344 0 LINE",
"456 0 LINE",
"456 112 LINE"
);
}
);
width = 800;
}
);
leftKerningGroup = period;
rightKerningGroup = period;
unicode = 2026;
},
{
color = 0;
glyphname = exclam;
lastChange = "2018-04-04 05:25:25 +0000";
layers = (
{
background = {
paths = (
{
closed = 1;
nodes = (
"56 700 LINE",
"68 174 LINE",
"158 174 LINE",
"170 700 LINE"
);
},
{
closed = 1;
nodes = (
"57 112 LINE",
"57 0 LINE",
"169 0 LINE",
"169 112 LINE"
);
}
);
};
layerId = "959C6BA0-AD18-4631-88F4-5A4A3C51B359";
paths = (
{
closed = 1;
nodes = (
"56 700 LINE",
"68 174 LINE",
"158 174 LINE",
"170 700 LINE"
);
},
{
closed = 1;
nodes = (
"57 112 LINE",
"57 0 LINE",
"169 0 LINE",
"169 112 LINE"
);
}
);
width = 226;
}
);
unicode = 0021;
},
{
color = 0;
glyphname = numbersign;
lastChange = "2018-04-04 05:25:25 +0000";
layers = (
{
background = {
paths = (
{
closed = 1;
nodes = (
"320 700 LINE",
"302 529 LINE",
"221 529 LINE",
"239 700 LINE",
"149 700 LINE",
"131 529 LINE",
"65 529 LINE",
"55 436 LINE",
"121 436 LINE",
"103 269 LINE",
"37 269 LINE",
"28 176 LINE",
"94 176 LINE",
"75 0 LINE",
"165 0 LINE",
"184 176 LINE",
"265 176 LINE",
"246 0 LINE",
"336 0 LINE",
"355 176 LINE",
"421 176 LINE",
"430 269 LINE",
"364 269 LINE",
"382 436 LINE",
"448 436 LINE",
"458 529 LINE",
"392 529 LINE",
"410 700 LINE"
);
},
{
closed = 1;
nodes = (
"274 269 LINE",
"193 269 LINE",
"211 436 LINE",
"292 436 LINE"
);
}
);
};
layerId = "959C6BA0-AD18-4631-88F4-5A4A3C51B359";
paths = (
{
closed = 1;
nodes = (
"320 700 LINE",
"302 529 LINE",
"221 529 LINE",
"239 700 LINE",
"149 700 LINE",
"131 529 LINE",
"65 529 LINE",
"55 436 LINE",
"121 436 LINE",
"103 269 LINE",
"37 269 LINE",
"28 176 LINE",
"94 176 LINE",
"75 0 LINE",
"165 0 LINE",
"184 176 LINE",
"265 176 LINE",
"246 0 LINE",
"336 0 LINE",
"355 176 LINE",
"421 176 LINE",
"430 269 LINE",
"364 269 LINE",
"382 436 LINE",
"448 436 LINE",
"458 529 LINE",
"392 529 LINE",
"410 700 LINE"
);
},
{
closed = 1;
nodes = (
"274 269 LINE",
"193 269 LINE",
"211 436 LINE",
"292 436 LINE"
);
}
);
width = 486;
}
);
unicode = 0023;
},
{
color = 0;
glyphname = period;
lastChange = "2018-04-04 05:25:25 +0000";
layers = (
{
background = {
paths = (
{
closed = 1;
nodes = (
"57 112 LINE",
"57 0 LINE",
"169 0 LINE",
"169 112 LINE"
);
}
);
};
layerId = "959C6BA0-AD18-4631-88F4-5A4A3C51B359";
paths = (
{
closed = 1;
nodes = (
"57 112 LINE",
"57 0 LINE",
"169 0 LINE",
"169 112 LINE"
);
}
);
width = 226;
}
);
leftKerningGroup = period;
rightKerningGroup = period;
unicode = 002E;
},
{
color = 0;
glyphname = question;
lastChange = "2018-04-04 05:25:25 +0000";
layers = (
{
background = {
paths = (
{
closed = 1;
nodes = (
"82 710 OFFCURVE",
"22 651 OFFCURVE",
"22 548 CURVE SMOOTH",
"22 534 LINE",
"124 524 LINE",
"124 540 LINE SMOOTH",
"124 589 OFFCURVE",
"142 612 OFFCURVE",
"179 612 CURVE SMOOTH",
"210 612 OFFCURVE",
"232 593 OFFCURVE",
"232 544 CURVE SMOOTH",
"232 530 LINE SMOOTH",
"232 494 OFFCURVE",
"221 468 OFFCURVE",
"183 419 CURVE SMOOTH",
"128 350 OFFCURVE",
"112 304 OFFCURVE",
"112 207 CURVE SMOOTH",
"112 175 LINE",
"208 175 LINE",
"208 207 LINE SMOOTH",
"208 273 OFFCURVE",
"223 309 OFFCURVE",
"274 373 CURVE SMOOTH",
"324 435 OFFCURVE",
"338 475 OFFCURVE",
"338 532 CURVE SMOOTH",
"338 548 LINE SMOOTH",
"338 658 OFFCURVE",
"278 710 OFFCURVE",
"180 710 CURVE SMOOTH"
);
},
{
closed = 1;
nodes = (
"104 112 LINE",
"104 0 LINE",
"216 0 LINE",
"216 112 LINE"
);
}
);
};
layerId = "959C6BA0-AD18-4631-88F4-5A4A3C51B359";
paths = (
{
closed = 1;
nodes = (
"82 710 OFFCURVE",
"22 651 OFFCURVE",
"22 548 CURVE SMOOTH",
"22 534 LINE",
"124 524 LINE",
"124 540 LINE SMOOTH",
"124 589 OFFCURVE",
"142 612 OFFCURVE",
"179 612 CURVE SMOOTH",
"210 612 OFFCURVE",
"232 593 OFFCURVE",
"232 544 CURVE SMOOTH",
"232 530 LINE SMOOTH",
"232 494 OFFCURVE",
"221 468 OFFCURVE",
"183 419 CURVE SMOOTH",
"128 350 OFFCURVE",
"112 304 OFFCURVE",
"112 207 CURVE SMOOTH",
"112 175 LINE",
"208 175 LINE",
"208 207 LINE SMOOTH",
"208 273 OFFCURVE",
"223 309 OFFCURVE",
"274 373 CURVE SMOOTH",
"324 435 OFFCURVE",
"338 475 OFFCURVE",
"338 532 CURVE SMOOTH",
"338 548 LINE SMOOTH",
"338 658 OFFCURVE",
"278 710 OFFCURVE",
"180 710 CURVE SMOOTH"
);
},
{
closed = 1;
nodes = (
"104 112 LINE",
"104 0 LINE",
"216 0 LINE",
"216 112 LINE"
);
}
);
width = 369;
}
);
unicode = 003F;
},
{
color = 0;
glyphname = quotesingle;
lastChange = "2018-04-04 05:25:25 +0000";
layers = (
{
background = {
paths = (
{
closed = 1;
nodes = (
"50 700 LINE",
"65 476 LINE",
"147 476 LINE",
"162 700 LINE"
);
}
);
};
layerId = "959C6BA0-AD18-4631-88F4-5A4A3C51B359";
paths = (
{
closed = 1;
nodes = (
"50 700 LINE",
"65 476 LINE",
"147 476 LINE",
"162 700 LINE"
);
}
);
width = 212;
}
);
leftKerningGroup = quoteright;
rightKerningGroup = quoteright;
unicode = 0027;
},
{
color = 0;
glyphname = slash;
lastChange = "2018-04-04 05:25:25 +0000";
layers = (
{
background = {
paths = (
{
closed = 1;
nodes = (
"271 750 LINE",
"19 -50 LINE",
"105 -50 LINE",
"357 750 LINE"
);
}
);
};
layerId = "959C6BA0-AD18-4631-88F4-5A4A3C51B359";
paths = (
{
closed = 1;
nodes = (
"271 750 LINE",
"19 -50 LINE",
"105 -50 LINE",
"357 750 LINE"
);
}
);
width = 376;
}
);
unicode = 002F;
},
{
color = 0;
glyphname = underscore;
lastChange = "2018-04-04 05:25:25 +0000";
layers = (
{
background = {
paths = (
{
closed = 1;
nodes = (
"0 -50 LINE",
"0 -122 LINE",
"440 -122 LINE",
"440 -50 LINE"
);
}
);
};
layerId = "959C6BA0-AD18-4631-88F4-5A4A3C51B359";
paths = (
{
closed = 1;
nodes = (
"0 -50 LINE",
"0 -122 LINE",
"440 -122 LINE",
"440 -50 LINE"
);
}
);
width = 440;
}
);
unicode = 005F;
},
{
color = 0;
glyphname = braceleft;
lastChange = "2018-04-04 05:25:25 +0000";
layers = (
{
background = {
paths = (
{
closed = 1;
nodes = (
"228 700 LINE SMOOTH",
"130 700 OFFCURVE",
"87 663 OFFCURVE",
"87 562 CURVE SMOOTH",
"87 450 LINE SMOOTH",
"87 405 OFFCURVE",
"72 388 OFFCURVE",
"28 388 CURVE",
"28 312 LINE",
"72 312 OFFCURVE",
"87 295 OFFCURVE",
"87 250 CURVE SMOOTH",
"87 138 LINE SMOOTH",
"87 37 OFFCURVE",
"130 0 OFFCURVE",
"228 0 CURVE SMOOTH",
"259 0 LINE",
"259 76 LINE",
"209 76 OFFCURVE",
"193 94 OFFCURVE",
"193 144 CURVE SMOOTH",
"193 260 LINE SMOOTH",
"193 304 OFFCURVE",
"176 334 OFFCURVE",
"140 349 CURVE",
"140 351 LINE",
"176 366 OFFCURVE",
"193 396 OFFCURVE",
"193 440 CURVE SMOOTH",
"193 556 LINE SMOOTH",
"193 606 OFFCURVE",
"209 624 OFFCURVE",
"259 624 CURVE",
"259 700 LINE"
);
}
);
};
layerId = "959C6BA0-AD18-4631-88F4-5A4A3C51B359";
paths = (
{
closed = 1;
nodes = (
"228 700 LINE SMOOTH",
"130 700 OFFCURVE",
"87 663 OFFCURVE",
"87 562 CURVE SMOOTH",
"87 450 LINE SMOOTH",
"87 405 OFFCURVE",
"72 388 OFFCURVE",
"28 388 CURVE",
"28 312 LINE",
"72 312 OFFCURVE",
"87 295 OFFCURVE",
"87 250 CURVE SMOOTH",
"87 138 LINE SMOOTH",
"87 37 OFFCURVE",
"130 0 OFFCURVE",
"228 0 CURVE SMOOTH",
"259 0 LINE",
"259 76 LINE",
"209 76 OFFCURVE",
"193 94 OFFCURVE",
"193 144 CURVE SMOOTH",
"193 260 LINE SMOOTH",
"193 304 OFFCURVE",
"176 334 OFFCURVE",
"140 349 CURVE",
"140 351 LINE",
"176 366 OFFCURVE",
"193 396 OFFCURVE",
"193 440 CURVE SMOOTH",
"193 556 LINE SMOOTH",
"193 606 OFFCURVE",
"209 624 OFFCURVE",
"259 624 CURVE",
"259 700 LINE"
);
}
);
width = 298;
}
);
leftKerningGroup = braceleft;
rightKerningGroup = braceleft;
unicode = 007B;
},
{
color = 0;
glyphname = bracketleft;
lastChange = "2018-04-04 05:25:25 +0000";
layers = (
{
background = {
paths = (
{
closed = 1;
nodes = (
"67 700 LINE",
"67 0 LINE",
"259 0 LINE",
"259 76 LINE",
"173 76 LINE",
"173 624 LINE",
"259 624 LINE",
"259 700 LINE"
);
}
);
};
layerId = "959C6BA0-AD18-4631-88F4-5A4A3C51B359";
paths = (
{
closed = 1;
nodes = (
"67 700 LINE",
"67 0 LINE",
"259 0 LINE",
"259 76 LINE",
"173 76 LINE",
"173 624 LINE",
"259 624 LINE",
"259 700 LINE"
);
}
);
width = 298;
}
);
leftKerningGroup = braceleft;
rightKerningGroup = braceleft;
unicode = 005B;
},
{
color = 0;
glyphname = parenleft;
lastChange = "2018-04-04 05:25:25 +0000";
layers = (
{
background = {
paths = (
{
closed = 1;
nodes = (
"169 700 LINE",
"92 611 OFFCURVE",
"52 492 OFFCURVE",
"52 350 CURVE SMOOTH",
"52 208 OFFCURVE",
"92 89 OFFCURVE",
"169 0 CURVE",
"273 0 LINE",
"196 102 OFFCURVE",
"158 217 OFFCURVE",
"158 350 CURVE SMOOTH",
"158 483 OFFCURVE",
"196 598 OFFCURVE",
"273 700 CURVE"
);
}
);
};
layerId = "959C6BA0-AD18-4631-88F4-5A4A3C51B359";
paths = (
{
closed = 1;
nodes = (
"169 700 LINE",
"92 611 OFFCURVE",
"52 492 OFFCURVE",
"52 350 CURVE SMOOTH",
"52 208 OFFCURVE",
"92 89 OFFCURVE",
"169 0 CURVE",
"273 0 LINE",
"196 102 OFFCURVE",
"158 217 OFFCURVE",
"158 350 CURVE SMOOTH",
"158 483 OFFCURVE",
"196 598 OFFCURVE",
"273 700 CURVE"
);
}
);
width = 298;
}
);
leftKerningGroup = braceleft;
rightKerningGroup = braceleft;
unicode = 0028;
},
{
color = 0;
glyphname = emdash;
lastChange = "2018-04-04 05:25:25 +0000";
layers = (
{
background = {
paths = (
{
closed = 1;
nodes = (
"30 391 LINE",
"30 309 LINE",
"770 309 LINE",
"770 391 LINE"
);
}
);
};
layerId = "959C6BA0-AD18-4631-88F4-5A4A3C51B359";
paths = (
{
closed = 1;
nodes = (
"30 391 LINE",
"30 309 LINE",
"770 309 LINE",
"770 391 LINE"
);
}
);
width = 800;
}
);
leftKerningGroup = hyphen;
rightKerningGroup = hyphen;
unicode = 2014;
},
{
color = 0;
glyphname = endash;
lastChange = "2018-04-04 05:25:25 +0000";
layers = (
{
background = {
paths = (
{
closed = 1;
nodes = (
"30 391 LINE",
"30 309 LINE",
"410 309 LINE",
"410 391 LINE"
);
}
);
};
layerId = "959C6BA0-AD18-4631-88F4-5A4A3C51B359";
paths = (
{
closed = 1;
nodes = (
"30 391 LINE",
"30 309 LINE",
"410 309 LINE",
"410 391 LINE"
);
}
);
width = 440;
}
);
leftKerningGroup = hyphen;
rightKerningGroup = hyphen;
unicode = 2013;
},
{
color = 0;
glyphname = hyphen;
lastChange = "2018-04-04 05:25:25 +0000";
layers = (
{
background = {
paths = (
{
closed = 1;
nodes = (
"40 400 LINE",
"40 298 LINE",
"253 298 LINE",
"253 400 LINE"
);
}
);
};
layerId = "959C6BA0-AD18-4631-88F4-5A4A3C51B359";
paths = (
{
closed = 1;
nodes = (
"40 400 LINE",
"40 298 LINE",
"253 298 LINE",
"253 400 LINE"
);
}
);
width = 293;
}
);
leftKerningGroup = hyphen;
rightKerningGroup = hyphen;
unicode = 002D;
},
{
color = 0;
glyphname = guilsinglright;
lastChange = "2018-04-04 05:25:25 +0000";
layers = (
{
background = {
paths = (
{
closed = 1;
nodes = (
"45 395 LINE",
"107 350 LINE",
"45 305 LINE",
"45 195 LINE",
"209 320 LINE",
"209 380 LINE",
"45 505 LINE"
);
}
);
};
layerId = "959C6BA0-AD18-4631-88F4-5A4A3C51B359";
paths = (
{
closed = 1;
nodes = (
"45 395 LINE",
"107 350 LINE",
"45 305 LINE",
"45 195 LINE",
"209 320 LINE",
"209 380 LINE",
"45 505 LINE"
);
}
);
width = 244;
}
);
leftKerningGroup = guilsinglright;
rightKerningGroup = guilsinglright;
unicode = 203A;
},
{
color = 0;
glyphname = cent;
lastChange = "2018-04-04 05:25:25 +0000";
layers = (
{
background = {
paths = (
{
closed = 1;
nodes = (
"281 424 LINE",
"383 429 LINE",
"383 442 LINE SMOOTH",
"383 533 OFFCURVE",
"338 591 OFFCURVE",
"260 606 CURVE",
"260 669 LINE",
"176 669 LINE",
"176 606 LINE",
"99 591 OFFCURVE",
"55 533 OFFCURVE",
"55 442 CURVE SMOOTH",
"55 258 LINE SMOOTH",
"55 167 OFFCURVE",
"99 109 OFFCURVE",
"176 94 CURVE",
"176 21 LINE",
"260 21 LINE",
"260 94 LINE",
"338 109 OFFCURVE",
"383 167 OFFCURVE",
"383 258 CURVE SMOOTH",
"383 292 LINE",
"281 297 LINE",
"281 269 LINE SMOOTH",
"281 213 OFFCURVE",
"260 188 OFFCURVE",
"221 188 CURVE SMOOTH",
"182 188 OFFCURVE",
"161 213 OFFCURVE",
"161 259 CURVE SMOOTH",
"161 441 LINE SMOOTH",
"161 487 OFFCURVE",
"182 512 OFFCURVE",
"221 512 CURVE SMOOTH",
"260 512 OFFCURVE",
"281 487 OFFCURVE",
"281 431 CURVE SMOOTH"
);
}
);
};
layerId = "959C6BA0-AD18-4631-88F4-5A4A3C51B359";
paths = (
{
closed = 1;
nodes = (
"281 424 LINE",
"383 429 LINE",
"383 442 LINE SMOOTH",
"383 533 OFFCURVE",
"338 591 OFFCURVE",
"260 606 CURVE",
"260 669 LINE",
"176 669 LINE",
"176 606 LINE",
"99 591 OFFCURVE",
"55 533 OFFCURVE",
"55 442 CURVE SMOOTH",
"55 258 LINE SMOOTH",
"55 167 OFFCURVE",
"99 109 OFFCURVE",
"176 94 CURVE",
"176 21 LINE",
"260 21 LINE",
"260 94 LINE",
"338 109 OFFCURVE",
"383 167 OFFCURVE",
"383 258 CURVE SMOOTH",
"383 292 LINE",
"281 297 LINE",
"281 269 LINE SMOOTH",
"281 213 OFFCURVE",
"260 188 OFFCURVE",
"221 188 CURVE SMOOTH",
"182 188 OFFCURVE",
"161 213 OFFCURVE",
"161 259 CURVE SMOOTH",
"161 441 LINE SMOOTH",
"161 487 OFFCURVE",
"182 512 OFFCURVE",
"221 512 CURVE SMOOTH",
"260 512 OFFCURVE",
"281 487 OFFCURVE",
"281 431 CURVE SMOOTH"
);
}
);
width = 430;
}
);
unicode = 00A2;
},
{
color = 5;
glyphname = currency;
lastChange = "2018-04-04 05:25:37 +0000";
layers = (
{
background = {
hints = (
{
origin = "{0, 12}";
target = "{1, 8}";
},
{
origin = "{1, 2}";
target = "{0, 30}";
},
{
horizontal = 1;
origin = "{0, 21}";
target = "{1, 5}";
},
{
horizontal = 1;
origin = "{1, 11}";
target = "{0, 3}";
}
);
paths = (
{
closed = 1;
nodes = (
"281 461 LINE",
"262 471 OFFCURVE",
"240 476 OFFCURVE",
"215 476 CURVE SMOOTH",
"190 476 OFFCURVE",
"168 471 OFFCURVE",
"149 461 CURVE",
"72 538 LINE",
"14 480 LINE",
"91 403 LINE",
"82 385 OFFCURVE",
"77 363 OFFCURVE",
"77 340 CURVE SMOOTH",
"77 317 OFFCURVE",
"82 295 OFFCURVE",
"91 277 CURVE",
"14 200 LINE",
"72 142 LINE",
"149 219 LINE",
"168 209 OFFCURVE",
"190 204 OFFCURVE",
"215 204 CURVE SMOOTH",
"240 204 OFFCURVE",
"262 209 OFFCURVE",
"281 219 CURVE",
"358 142 LINE",
"416 200 LINE",
"339 277 LINE",
"348 295 OFFCURVE",
"353 317 OFFCURVE",
"353 340 CURVE SMOOTH",
"353 363 OFFCURVE",
"348 385 OFFCURVE",
"339 403 CURVE",
"416 480 LINE",
"358 538 LINE"
);
},
{
closed = 1;
nodes = (
"247 395 OFFCURVE",
"267 371 OFFCURVE",
"267 340 CURVE SMOOTH",
"267 309 OFFCURVE",
"247 285 OFFCURVE",
"215 285 CURVE SMOOTH",
"183 285 OFFCURVE",
"163 309 OFFCURVE",
"163 340 CURVE SMOOTH",
"163 371 OFFCURVE",
"183 395 OFFCURVE",
"215 395 CURVE SMOOTH"
);
}
);
};
hints = (
{
origin = "{0, 30}";
target = "{1, 2}";
},
{
origin = "{1, 8}";
target = "{0, 12}";
},
{
horizontal = 1;
origin = "{0, 3}";
target = "{1, 11}";
},
{
horizontal = 1;
origin = "{1, 5}";
target = "{0, 21}";
}
);
layerId = "959C6BA0-AD18-4631-88F4-5A4A3C51B359";
paths = (
{
closed = 1;
nodes = (
"149 219 LINE",
"168 209 OFFCURVE",
"190 204 OFFCURVE",
"215 204 CURVE SMOOTH",
"240 204 OFFCURVE",
"262 209 OFFCURVE",
"281 219 CURVE",
"358 142 LINE",
"416 200 LINE",
"339 277 LINE",
"348 295 OFFCURVE",
"353 317 OFFCURVE",
"353 340 CURVE SMOOTH",
"353 363 OFFCURVE",
"348 385 OFFCURVE",
"339 403 CURVE",
"416 480 LINE",
"358 538 LINE",
"281 461 LINE",
"262 471 OFFCURVE",
"240 476 OFFCURVE",
"215 476 CURVE SMOOTH",
"190 476 OFFCURVE",
"168 471 OFFCURVE",
"149 461 CURVE",
"72 538 LINE",
"14 480 LINE",
"91 403 LINE",
"82 385 OFFCURVE",
"77 363 OFFCURVE",
"77 340 CURVE SMOOTH",
"77 317 OFFCURVE",
"82 295 OFFCURVE",
"91 277 CURVE",
"14 200 LINE",
"72 142 LINE"
);
},
{
closed = 1;
nodes = (
"183 285 OFFCURVE",
"163 309 OFFCURVE",
"163 340 CURVE SMOOTH",
"163 371 OFFCURVE",
"183 395 OFFCURVE",
"215 395 CURVE SMOOTH",
"247 395 OFFCURVE",
"267 371 OFFCURVE",
"267 340 CURVE SMOOTH",
"267 309 OFFCURVE",
"247 285 OFFCURVE",
"215 285 CURVE SMOOTH"
);
}
);
width = 430;
}
);
unicode = 00A4;
},
{
color = 0;
glyphname = dollar;
lastChange = "2018-04-04 05:25:25 +0000";
layers = (
{
background = {
paths = (
{
closed = 1;
nodes = (
"172 759 LINE",
"172 696 LINE",
"99 682 OFFCURVE",
"56 628 OFFCURVE",
"56 541 CURVE SMOOTH",
"56 526 LINE SMOOTH",
"56 450 OFFCURVE",
"89 393 OFFCURVE",
"183 306 CURVE SMOOTH",
"252 243 OFFCURVE",
"273 211 OFFCURVE",
"273 172 CURVE SMOOTH",
"273 157 LINE SMOOTH",
"273 117 OFFCURVE",
"246 98 OFFCURVE",
"215 98 CURVE SMOOTH",
"173 98 OFFCURVE",
"153 121 OFFCURVE",
"153 170 CURVE SMOOTH",
"153 212 LINE",
"51 202 LINE",
"51 162 LINE SMOOTH",
"51 75 OFFCURVE",
"98 20 OFFCURVE",
"172 4 CURVE",
"172 -69 LINE",
"256 -69 LINE",
"256 4 LINE",
"331 17 OFFCURVE",
"379 71 OFFCURVE",
"379 159 CURVE SMOOTH",
"379 176 LINE SMOOTH",
"379 252 OFFCURVE",
"346 309 OFFCURVE",
"252 396 CURVE SMOOTH",
"183 459 OFFCURVE",
"162 491 OFFCURVE",
"162 530 CURVE SMOOTH",
"162 543 LINE SMOOTH",
"162 583 OFFCURVE",
"184 602 OFFCURVE",
"216 602 CURVE SMOOTH",
"254 602 OFFCURVE",
"272 579 OFFCURVE",
"272 530 CURVE SMOOTH",
"272 514 LINE",
"374 524 LINE",
"374 538 LINE SMOOTH",
"374 626 OFFCURVE",
"330 682 OFFCURVE",
"256 696 CURVE",
"256 759 LINE"
);
}
);
};
layerId = "959C6BA0-AD18-4631-88F4-5A4A3C51B359";
paths = (
{
closed = 1;
nodes = (
"172 759 LINE",
"172 696 LINE",
"99 682 OFFCURVE",
"56 628 OFFCURVE",
"56 541 CURVE SMOOTH",
"56 526 LINE SMOOTH",
"56 450 OFFCURVE",
"89 393 OFFCURVE",
"183 306 CURVE SMOOTH",
"252 243 OFFCURVE",
"273 211 OFFCURVE",
"273 172 CURVE SMOOTH",
"273 157 LINE SMOOTH",
"273 117 OFFCURVE",
"246 98 OFFCURVE",
"215 98 CURVE SMOOTH",
"173 98 OFFCURVE",
"153 121 OFFCURVE",
"153 170 CURVE SMOOTH",
"153 212 LINE",
"51 202 LINE",
"51 162 LINE SMOOTH",
"51 75 OFFCURVE",
"98 20 OFFCURVE",
"172 4 CURVE",
"172 -69 LINE",
"256 -69 LINE",
"256 4 LINE",
"331 17 OFFCURVE",
"379 71 OFFCURVE",
"379 159 CURVE SMOOTH",
"379 176 LINE SMOOTH",
"379 252 OFFCURVE",
"346 309 OFFCURVE",
"252 396 CURVE SMOOTH",
"183 459 OFFCURVE",
"162 491 OFFCURVE",
"162 530 CURVE SMOOTH",
"162 543 LINE SMOOTH",
"162 583 OFFCURVE",
"184 602 OFFCURVE",
"216 602 CURVE SMOOTH",
"254 602 OFFCURVE",
"272 579 OFFCURVE",
"272 530 CURVE SMOOTH",
"272 514 LINE",
"374 524 LINE",
"374 538 LINE SMOOTH",
"374 626 OFFCURVE",
"330 682 OFFCURVE",
"256 696 CURVE",
"256 759 LINE"
);
}
);
width = 430;
}
);
unicode = 0024;
},
{
color = 0;
glyphname = euro;
lastChange = "2018-04-04 05:25:25 +0000";
layers = (
{
background = {
paths = (
{
closed = 1;
nodes = (
"122 710 OFFCURVE",
"62 648 OFFCURVE",
"62 542 CURVE SMOOTH",
"62 455 LINE",
"28 455 LINE",
"28 395 LINE",
"62 395 LINE",
"62 325 LINE",
"28 325 LINE",
"28 265 LINE",
"62 265 LINE",
"62 158 LINE SMOOTH",
"62 52 OFFCURVE",
"122 -10 OFFCURVE",
"225 -10 CURVE SMOOTH",
"329 -10 OFFCURVE",
"390 52 OFFCURVE",
"390 158 CURVE SMOOTH",
"390 202 LINE",
"288 207 LINE",
"288 169 LINE SMOOTH",
"288 113 OFFCURVE",
"267 88 OFFCURVE",
"228 88 CURVE SMOOTH",
"189 88 OFFCURVE",
"168 113 OFFCURVE",
"168 159 CURVE SMOOTH",
"168 265 LINE",
"285 265 LINE",
"285 325 LINE",
"168 325 LINE",
"168 395 LINE",
"285 395 LINE",
"285 455 LINE",
"168 455 LINE",
"168 541 LINE SMOOTH",
"168 587 OFFCURVE",
"189 612 OFFCURVE",
"228 612 CURVE SMOOTH",
"267 612 OFFCURVE",
"288 587 OFFCURVE",
"288 531 CURVE SMOOTH",
"288 514 LINE",
"390 519 LINE",
"390 542 LINE SMOOTH",
"390 648 OFFCURVE",
"329 710 OFFCURVE",
"225 710 CURVE SMOOTH"
);
}
);
};
layerId = "959C6BA0-AD18-4631-88F4-5A4A3C51B359";
paths = (
{
closed = 1;
nodes = (
"122 710 OFFCURVE",
"62 648 OFFCURVE",
"62 542 CURVE SMOOTH",
"62 455 LINE",
"28 455 LINE",
"28 395 LINE",
"62 395 LINE",
"62 325 LINE",
"28 325 LINE",
"28 265 LINE",
"62 265 LINE",
"62 158 LINE SMOOTH",
"62 52 OFFCURVE",
"122 -10 OFFCURVE",
"225 -10 CURVE SMOOTH",
"329 -10 OFFCURVE",
"390 52 OFFCURVE",
"390 158 CURVE SMOOTH",
"390 202 LINE",
"288 207 LINE",
"288 169 LINE SMOOTH",
"288 113 OFFCURVE",
"267 88 OFFCURVE",
"228 88 CURVE SMOOTH",
"189 88 OFFCURVE",
"168 113 OFFCURVE",
"168 159 CURVE SMOOTH",
"168 265 LINE",
"285 265 LINE",
"285 325 LINE",
"168 325 LINE",
"168 395 LINE",
"285 395 LINE",
"285 455 LINE",
"168 455 LINE",
"168 541 LINE SMOOTH",
"168 587 OFFCURVE",
"189 612 OFFCURVE",
"228 612 CURVE SMOOTH",
"267 612 OFFCURVE",
"288 587 OFFCURVE",
"288 531 CURVE SMOOTH",
"288 514 LINE",
"390 519 LINE",
"390 542 LINE SMOOTH",
"390 648 OFFCURVE",
"329 710 OFFCURVE",
"225 710 CURVE SMOOTH"
);
}
);
width = 430;
}
);
unicode = 20AC;
},
{
color = 5;
glyphname = florin;
lastChange = "2018-04-04 05:25:34 +0000";
layers = (
{
background = {
hints = (
{
horizontal = 1;
origin = "{0, 17}";
target = "{0, 10}";
},
{
horizontal = 1;
origin = "{0, 5}";
target = "{0, 4}";
},
{
horizontal = 1;
origin = "{0, 35}";
target = "{0, 28}";
},
{
origin = "{0, 2}";
target = "{0, 25}";
}
);
paths = (
{
closed = 1;
nodes = (
"214 710 OFFCURVE",
"161 649 OFFCURVE",
"161 537 CURVE SMOOTH",
"161 459 LINE",
"56 459 LINE",
"56 371 LINE",
"161 371 LINE",
"161 166 LINE SMOOTH",
"161 112 OFFCURVE",
"140 88 OFFCURVE",
"91 88 CURVE SMOOTH",
"70 88 OFFCURVE",
"52 92 OFFCURVE",
"39 96 CURVE",
"33 -1 LINE",
"55 -7 OFFCURVE",
"79 -10 OFFCURVE",
"104 -10 CURVE SMOOTH",
"214 -10 OFFCURVE",
"267 51 OFFCURVE",
"267 163 CURVE SMOOTH",
"267 371 LINE",
"382 371 LINE",
"382 459 LINE",
"267 459 LINE",
"267 534 LINE SMOOTH",
"267 588 OFFCURVE",
"288 612 OFFCURVE",
"337 612 CURVE SMOOTH",
"358 612 OFFCURVE",
"376 608 OFFCURVE",
"389 604 CURVE",
"395 701 LINE",
"373 707 OFFCURVE",
"349 710 OFFCURVE",
"324 710 CURVE SMOOTH"
);
}
);
};
hints = (
{
horizontal = 1;
origin = "{0, 35}";
target = "{0, 28}";
},
{
horizontal = 1;
origin = "{0, 23}";
target = "{0, 22}";
},
{
horizontal = 1;
origin = "{0, 17}";
target = "{0, 10}";
},
{
origin = "{0, 20}";
target = "{0, 7}";
}
);
layerId = "959C6BA0-AD18-4631-88F4-5A4A3C51B359";
paths = (
{
closed = 1;
nodes = (
"214 -10 OFFCURVE",
"267 51 OFFCURVE",
"267 163 CURVE SMOOTH",
"267 371 LINE",
"382 371 LINE",
"382 459 LINE",
"267 459 LINE",
"267 534 LINE SMOOTH",
"267 588 OFFCURVE",
"288 612 OFFCURVE",
"337 612 CURVE SMOOTH",
"358 612 OFFCURVE",
"376 608 OFFCURVE",
"389 604 CURVE",
"395 701 LINE",
"373 707 OFFCURVE",
"349 710 OFFCURVE",
"324 710 CURVE SMOOTH",
"214 710 OFFCURVE",
"161 649 OFFCURVE",
"161 537 CURVE SMOOTH",
"161 459 LINE",
"56 459 LINE",
"56 371 LINE",
"161 371 LINE",
"161 166 LINE SMOOTH",
"161 112 OFFCURVE",
"140 88 OFFCURVE",
"91 88 CURVE SMOOTH",
"70 88 OFFCURVE",
"52 92 OFFCURVE",
"39 96 CURVE",
"33 -1 LINE",
"55 -7 OFFCURVE",
"79 -10 OFFCURVE",
"104 -10 CURVE SMOOTH"
);
}
);
width = 430;
}
);
unicode = 0192;
},
{
color = 0;
glyphname = rupeeIndian;
lastChange = "2018-04-04 05:25:25 +0000";
layers = (
{
background = {
paths = (
{
closed = 1;
nodes = (
"46 700 LINE",
"26 617 LINE",
"151 617 LINE SMOOTH",
"200 617 OFFCURVE",
"223 592 OFFCURVE",
"225 539 CURVE",
"46 539 LINE",
"26 456 LINE",
"225 456 LINE",
"223 403 OFFCURVE",
"200 378 OFFCURVE",
"151 378 CURVE SMOOTH",
"64 378 LINE",
"64 300 LINE",
"281 0 LINE",
"403 0 LINE",
"188 297 LINE",
"276 307 OFFCURVE",
"326 362 OFFCURVE",
"331 456 CURVE",
"382 456 LINE",
"402 539 LINE",
"330 539 LINE",
"328 571 OFFCURVE",
"320 597 OFFCURVE",
"304 617 CURVE",
"382 617 LINE",
"402 700 LINE"
);
}
);
};
layerId = "959C6BA0-AD18-4631-88F4-5A4A3C51B359";
paths = (
{
closed = 1;
nodes = (
"46 700 LINE",
"26 617 LINE",
"151 617 LINE SMOOTH",
"200 617 OFFCURVE",
"223 592 OFFCURVE",
"225 539 CURVE",
"46 539 LINE",
"26 456 LINE",
"225 456 LINE",
"223 403 OFFCURVE",
"200 378 OFFCURVE",
"151 378 CURVE SMOOTH",
"64 378 LINE",
"64 300 LINE",
"281 0 LINE",
"403 0 LINE",
"188 297 LINE",
"276 307 OFFCURVE",
"326 362 OFFCURVE",
"331 456 CURVE",
"382 456 LINE",
"402 539 LINE",
"330 539 LINE",
"328 571 OFFCURVE",
"320 597 OFFCURVE",
"304 617 CURVE",
"382 617 LINE",
"402 700 LINE"
);
}
);
width = 430;
}
);
unicode = 20B9;
},
{
color = 5;
glyphname = sterling;
lastChange = "2018-04-04 05:25:39 +0000";
layers = (
{
background = {
hints = (
{
horizontal = 1;
origin = "{0, 32}";
target = "{0, 33}";
},
{
horizontal = 1;
origin = "{0, 6}";
target = "{0, 7}";
},
{
horizontal = 1;
origin = "{0, 19}";
target = "{0, 12}";
},
{
origin = "{0, 27}";
target = "{0, 4}";
}
);
paths = (
{
closed = 1;
nodes = (
"168 101 LINE",
"168 103 LINE",
"208 148 OFFCURVE",
"219 195 OFFCURVE",
"219 264 CURVE SMOOTH",
"219 313 LINE",
"371 313 LINE",
"371 411 LINE",
"219 411 LINE",
"219 534 LINE SMOOTH",
"219 588 OFFCURVE",
"240 612 OFFCURVE",
"290 612 CURVE SMOOTH",
"313 612 OFFCURVE",
"332 607 OFFCURVE",
"363 594 CURVE",
"371 690 LINE",
"345 703 OFFCURVE",
"313 710 OFFCURVE",
"276 710 CURVE SMOOTH",
"166 710 OFFCURVE",
"113 649 OFFCURVE",
"113 537 CURVE SMOOTH",
"113 411 LINE",
"35 411 LINE",
"35 313 LINE",
"113 313 LINE",
"113 278 LINE SMOOTH",
"113 196 OFFCURVE",
"98 143 OFFCURVE",
"35 91 CURVE",
"35 1 LINE",
"391 1 LINE",
"391 101 LINE"
);
}
);
};
hints = (
{
horizontal = 1;
origin = "{0, 0}";
target = "{0, 1}";
},
{
horizontal = 1;
origin = "{0, 8}";
target = "{0, 9}";
},
{
horizontal = 1;
origin = "{0, 21}";
target = "{0, 14}";
},
{
origin = "{0, 29}";
target = "{0, 6}";
}
);
layerId = "959C6BA0-AD18-4631-88F4-5A4A3C51B359";
paths = (
{
closed = 1;
nodes = (
"391 1 LINE",
"391 101 LINE",
"168 101 LINE",
"168 103 LINE",
"208 148 OFFCURVE",
"219 195 OFFCURVE",
"219 264 CURVE SMOOTH",
"219 313 LINE",
"371 313 LINE",
"371 411 LINE",
"219 411 LINE",
"219 534 LINE SMOOTH",
"219 588 OFFCURVE",
"240 612 OFFCURVE",
"290 612 CURVE SMOOTH",
"313 612 OFFCURVE",
"332 607 OFFCURVE",
"363 594 CURVE",
"371 690 LINE",
"345 703 OFFCURVE",
"313 710 OFFCURVE",
"276 710 CURVE SMOOTH",
"166 710 OFFCURVE",
"113 649 OFFCURVE",
"113 537 CURVE SMOOTH",
"113 411 LINE",
"35 411 LINE",
"35 313 LINE",
"113 313 LINE",
"113 278 LINE SMOOTH",
"113 196 OFFCURVE",
"98 143 OFFCURVE",
"35 91 CURVE",
"35 1 LINE"
);
}
);
width = 430;
}
);
unicode = 00A3;
},
{
color = 0;
glyphname = yen;
lastChange = "2018-04-04 05:25:25 +0000";
layers = (
{
background = {
paths = (
{
closed = 1;
nodes = (
"302 700 LINE",
"219 458 LINE",
"217 458 LINE",
"130 700 LINE",
"18 700 LINE",
"156 340 LINE",
"56 340 LINE",
"56 268 LINE",
"163 268 LINE",
"163 200 LINE",
"56 200 LINE",
"56 128 LINE",
"163 128 LINE",
"163 0 LINE",
"269 0 LINE",
"269 128 LINE",
"376 128 LINE",
"376 200 LINE",
"269 200 LINE",
"269 268 LINE",
"376 268 LINE",
"376 340 LINE",
"276 340 LINE",
"412 700 LINE"
);
}
);
};
layerId = "959C6BA0-AD18-4631-88F4-5A4A3C51B359";
paths = (
{
closed = 1;
nodes = (
"302 700 LINE",
"219 458 LINE",
"217 458 LINE",
"130 700 LINE",
"18 700 LINE",
"156 340 LINE",
"56 340 LINE",
"56 268 LINE",
"163 268 LINE",
"163 200 LINE",
"56 200 LINE",
"56 128 LINE",
"163 128 LINE",
"163 0 LINE",
"269 0 LINE",
"269 128 LINE",
"376 128 LINE",
"376 200 LINE",
"269 200 LINE",
"269 268 LINE",
"376 268 LINE",
"376 340 LINE",
"276 340 LINE",
"412 700 LINE"
);
}
);
width = 430;
}
);
unicode = 00A5;
},
{
color = 0;
glyphname = bulletoperator;
lastChange = "2018-04-04 05:25:25 +0000";
layers = (
{
background = {
paths = (
{
closed = 1;
nodes = (
"57 406 LINE",
"57 294 LINE",
"169 294 LINE",
"169 406 LINE"
);
}
);
};
layerId = "959C6BA0-AD18-4631-88F4-5A4A3C51B359";
paths = (
{
closed = 1;
nodes = (
"57 406 LINE",
"57 294 LINE",
"169 294 LINE",
"169 406 LINE"
);
}
);
width = 226;
}
);
unicode = 2219;
},
{
color = 0;
glyphname = plus;
lastChange = "2018-04-04 05:25:25 +0000";
layers = (
{
background = {
paths = (
{
closed = 1;
nodes = (
"174 557 LINE",
"174 391 LINE",
"20 391 LINE",
"20 309 LINE",
"174 309 LINE",
"174 143 LINE",
"256 143 LINE",
"256 309 LINE",
"410 309 LINE",
"410 391 LINE",
"256 391 LINE",
"256 557 LINE"
);
}
);
};
layerId = "959C6BA0-AD18-4631-88F4-5A4A3C51B359";
paths = (
{
closed = 1;
nodes = (
"174 557 LINE",
"174 391 LINE",
"20 391 LINE",
"20 309 LINE",
"174 309 LINE",
"174 143 LINE",
"256 143 LINE",
"256 309 LINE",
"410 309 LINE",
"410 391 LINE",
"256 391 LINE",
"256 557 LINE"
);
}
);
width = 430;
}
);
unicode = 002B;
},
{
color = 0;
glyphname = minus;
lastChange = "2018-04-04 05:25:25 +0000";
layers = (
{
background = {
paths = (
{
closed = 1;
nodes = (
"20 391 LINE",
"20 309 LINE",
"410 309 LINE",
"410 391 LINE"
);
}
);
};
layerId = "959C6BA0-AD18-4631-88F4-5A4A3C51B359";
paths = (
{
closed = 1;
nodes = (
"20 391 LINE",
"20 309 LINE",
"410 309 LINE",
"410 391 LINE"
);
}
);
width = 430;
}
);
unicode = 2212;
},
{
color = 0;
glyphname = multiply;
lastChange = "2018-04-04 05:25:25 +0000";
layers = (
{
background = {
paths = (
{
closed = 1;
nodes = (
"215 408 LINE",
"85 540 LINE",
"27 482 LINE",
"157 350 LINE",
"27 218 LINE",
"85 160 LINE",
"215 292 LINE",
"345 160 LINE",
"403 218 LINE",
"273 350 LINE",
"403 482 LINE",
"345 540 LINE"
);
}
);
};
layerId = "959C6BA0-AD18-4631-88F4-5A4A3C51B359";
paths = (
{
closed = 1;
nodes = (
"215 408 LINE",
"85 540 LINE",
"27 482 LINE",
"157 350 LINE",
"27 218 LINE",
"85 160 LINE",
"215 292 LINE",
"345 160 LINE",
"403 218 LINE",
"273 350 LINE",
"403 482 LINE",
"345 540 LINE"
);
}
);
width = 430;
}
);
unicode = 00D7;
},
{
color = 0;
glyphname = divide;
lastChange = "2018-04-04 05:25:25 +0000";
layers = (
{
background = {
paths = (
{
closed = 1;
nodes = (
"20 391 LINE",
"20 309 LINE",
"410 309 LINE",
"410 391 LINE"
);
},
{
closed = 1;
nodes = (
"164 239 LINE",
"164 137 LINE",
"266 137 LINE",
"266 239 LINE"
);
},
{
closed = 1;
nodes = (
"164 563 LINE",
"164 461 LINE",
"266 461 LINE",
"266 563 LINE"
);
}
);
};
layerId = "959C6BA0-AD18-4631-88F4-5A4A3C51B359";
paths = (
{
closed = 1;
nodes = (
"20 391 LINE",
"20 309 LINE",
"410 309 LINE",
"410 391 LINE"
);
},
{
closed = 1;
nodes = (
"164 239 LINE",
"164 137 LINE",
"266 137 LINE",
"266 239 LINE"
);
},
{
closed = 1;
nodes = (
"164 563 LINE",
"164 461 LINE",
"266 461 LINE",
"266 563 LINE"
);
}
);
width = 430;
}
);
unicode = 00F7;
},
{
color = 0;
glyphname = notequal;
lastChange = "2018-04-04 05:25:25 +0000";
layers = (
{
background = {
paths = (
{
closed = 1;
nodes = (
"321 576 LINE",
"254 476 LINE",
"20 476 LINE",
"20 394 LINE",
"199 394 LINE",
"140 306 LINE",
"20 306 LINE",
"20 224 LINE",
"85 224 LINE",
"18 124 LINE",
"109 124 LINE",
"176 224 LINE",
"410 224 LINE",
"410 306 LINE",
"231 306 LINE",
"290 394 LINE",
"410 394 LINE",
"410 476 LINE",
"345 476 LINE",
"412 576 LINE"
);
}
);
};
layerId = "959C6BA0-AD18-4631-88F4-5A4A3C51B359";
paths = (
{
closed = 1;
nodes = (
"321 576 LINE",
"254 476 LINE",
"20 476 LINE",
"20 394 LINE",
"199 394 LINE",
"140 306 LINE",
"20 306 LINE",
"20 224 LINE",
"85 224 LINE",
"18 124 LINE",
"109 124 LINE",
"176 224 LINE",
"410 224 LINE",
"410 306 LINE",
"231 306 LINE",
"290 394 LINE",
"410 394 LINE",
"410 476 LINE",
"345 476 LINE",
"412 576 LINE"
);
}
);
width = 430;
}
);
unicode = 2260;
},
{
color = 0;
glyphname = greater;
lastChange = "2018-04-04 05:25:25 +0000";
layers = (
{
background = {
paths = (
{
closed = 1;
nodes = (
"20 460 LINE",
"291 349 LINE",
"20 240 LINE",
"20 149 LINE",
"410 310 LINE",
"410 388 LINE",
"20 551 LINE"
);
}
);
};
layerId = "959C6BA0-AD18-4631-88F4-5A4A3C51B359";
paths = (
{
closed = 1;
nodes = (
"20 460 LINE",
"291 349 LINE",
"20 240 LINE",
"20 149 LINE",
"410 310 LINE",
"410 388 LINE",
"20 551 LINE"
);
}
);
width = 430;
}
);
unicode = 003E;
},
{
color = 0;
glyphname = less;
lastChange = "2018-04-04 05:25:25 +0000";
layers = (
{
background = {
paths = (
{
closed = 1;
nodes = (
"20 388 LINE",
"20 310 LINE",
"410 149 LINE",
"410 240 LINE",
"139 349 LINE",
"410 460 LINE",
"410 551 LINE"
);
}
);
};
layerId = "959C6BA0-AD18-4631-88F4-5A4A3C51B359";
paths = (
{
closed = 1;
nodes = (
"20 388 LINE",
"20 310 LINE",
"410 149 LINE",
"410 240 LINE",
"139 349 LINE",
"410 460 LINE",
"410 551 LINE"
);
}
);
width = 430;
}
);
unicode = 003C;
},
{
color = 0;
glyphname = greaterequal;
lastChange = "2018-04-04 05:25:25 +0000";
layers = (
{
background = {
paths = (
{
closed = 1;
nodes = (
"20 460 LINE",
"291 349 LINE",
"20 240 LINE",
"20 149 LINE",
"410 310 LINE",
"410 388 LINE",
"20 551 LINE"
);
},
{
closed = 1;
nodes = (
"20 82 LINE",
"20 0 LINE",
"410 0 LINE",
"410 82 LINE"
);
}
);
};
layerId = "959C6BA0-AD18-4631-88F4-5A4A3C51B359";
paths = (
{
closed = 1;
nodes = (
"20 460 LINE",
"291 349 LINE",
"20 240 LINE",
"20 149 LINE",
"410 310 LINE",
"410 388 LINE",
"20 551 LINE"
);
},
{
closed = 1;
nodes = (
"20 82 LINE",
"20 0 LINE",
"410 0 LINE",
"410 82 LINE"
);
}
);
width = 430;
}
);
unicode = 2265;
},
{
color = 0;
glyphname = lessequal;
lastChange = "2018-04-04 05:25:25 +0000";
layers = (
{
background = {
paths = (
{
closed = 1;
nodes = (
"20 388 LINE",
"20 310 LINE",
"410 149 LINE",
"410 240 LINE",
"139 349 LINE",
"410 460 LINE",
"410 551 LINE"
);
},
{
closed = 1;
nodes = (
"20 82 LINE",
"20 0 LINE",
"410 0 LINE",
"410 82 LINE"
);
}
);
};
layerId = "959C6BA0-AD18-4631-88F4-5A4A3C51B359";
paths = (
{
closed = 1;
nodes = (
"20 388 LINE",
"20 310 LINE",
"410 149 LINE",
"410 240 LINE",
"139 349 LINE",
"410 460 LINE",
"410 551 LINE"
);
},
{
closed = 1;
nodes = (
"20 82 LINE",
"20 0 LINE",
"410 0 LINE",
"410 82 LINE"
);
}
);
width = 430;
}
);
unicode = 2264;
},
{
color = 0;
glyphname = plusminus;
lastChange = "2018-04-04 05:25:25 +0000";
layers = (
{
background = {
paths = (
{
closed = 1;
nodes = (
"174 557 LINE",
"174 391 LINE",
"20 391 LINE",
"20 309 LINE",
"174 309 LINE",
"174 143 LINE",
"256 143 LINE",
"256 309 LINE",
"410 309 LINE",
"410 391 LINE",
"256 391 LINE",
"256 557 LINE"
);
},
{
closed = 1;
nodes = (
"20 82 LINE",
"20 0 LINE",
"410 0 LINE",
"410 82 LINE"
);
}
);
};
layerId = "959C6BA0-AD18-4631-88F4-5A4A3C51B359";
paths = (
{
closed = 1;
nodes = (
"174 557 LINE",
"174 391 LINE",
"20 391 LINE",
"20 309 LINE",
"174 309 LINE",
"174 143 LINE",
"256 143 LINE",
"256 309 LINE",
"410 309 LINE",
"410 391 LINE",
"256 391 LINE",
"256 557 LINE"
);
},
{
closed = 1;
nodes = (
"20 82 LINE",
"20 0 LINE",
"410 0 LINE",
"410 82 LINE"
);
}
);
width = 430;
}
);
unicode = 00B1;
},
{
color = 0;
glyphname = asciitilde;
lastChange = "2018-04-04 05:25:25 +0000";
layers = (
{
background = {
paths = (
{
closed = 1;
nodes = (
"334 377 OFFCURVE",
"320 367 OFFCURVE",
"289 367 CURVE SMOOTH",
"276 367 OFFCURVE",
"261 373 OFFCURVE",
"233 389 CURVE SMOOTH",
"197 410 OFFCURVE",
"173 418 OFFCURVE",
"146 418 CURVE SMOOTH",
"95 418 OFFCURVE",
"57 401 OFFCURVE",
"8 333 CURVE",
"63 279 LINE",
"98 323 OFFCURVE",
"112 333 OFFCURVE",
"143 333 CURVE SMOOTH",
"156 333 OFFCURVE",
"171 327 OFFCURVE",
"199 311 CURVE SMOOTH",
"235 290 OFFCURVE",
"259 282 OFFCURVE",
"286 282 CURVE SMOOTH",
"337 282 OFFCURVE",
"375 299 OFFCURVE",
"424 367 CURVE",
"369 421 LINE"
);
}
);
};
layerId = "959C6BA0-AD18-4631-88F4-5A4A3C51B359";
paths = (
{
closed = 1;
nodes = (
"334 377 OFFCURVE",
"320 367 OFFCURVE",
"289 367 CURVE SMOOTH",
"276 367 OFFCURVE",
"261 373 OFFCURVE",
"233 389 CURVE SMOOTH",
"197 410 OFFCURVE",
"173 418 OFFCURVE",
"146 418 CURVE SMOOTH",
"95 418 OFFCURVE",
"57 401 OFFCURVE",
"8 333 CURVE",
"63 279 LINE",
"98 323 OFFCURVE",
"112 333 OFFCURVE",
"143 333 CURVE SMOOTH",
"156 333 OFFCURVE",
"171 327 OFFCURVE",
"199 311 CURVE SMOOTH",
"235 290 OFFCURVE",
"259 282 OFFCURVE",
"286 282 CURVE SMOOTH",
"337 282 OFFCURVE",
"375 299 OFFCURVE",
"424 367 CURVE",
"369 421 LINE"
);
}
);
width = 432;
}
);
unicode = 007E;
},
{
color = 0;
glyphname = logicalnot;
lastChange = "2018-04-04 05:25:25 +0000";
layers = (
{
background = {
paths = (
{
closed = 1;
nodes = (
"20 391 LINE",
"20 309 LINE",
"328 309 LINE",
"328 143 LINE",
"410 143 LINE",
"410 391 LINE"
);
}
);
};
layerId = "959C6BA0-AD18-4631-88F4-5A4A3C51B359";
paths = (
{
closed = 1;
nodes = (
"20 391 LINE",
"20 309 LINE",
"328 309 LINE",
"328 143 LINE",
"410 143 LINE",
"410 391 LINE"
);
}
);
width = 430;
}
);
unicode = 00AC;
},
{
color = 0;
glyphname = infinity;
lastChange = "2018-04-04 05:25:25 +0000";
layers = (
{
background = {
paths = (
{
closed = 1;
nodes = (
"331 625 LINE",
"331 509 LINE",
"286 509 LINE SMOOTH",
"119 509 OFFCURVE",
"31 415 OFFCURVE",
"31 283 CURVE SMOOTH",
"31 148 OFFCURVE",
"123 60 OFFCURVE",
"255 60 CURVE SMOOTH",
"395 60 OFFCURVE",
"488 158 OFFCURVE",
"488 314 CURVE SMOOTH",
"488 360 LINE",
"620 360 LINE",
"620 509 LINE",
"488 509 LINE",
"488 625 LINE"
);
},
{
closed = 1;
nodes = (
"331 311 LINE SMOOTH",
"331 248 OFFCURVE",
"302 215 OFFCURVE",
"258 215 CURVE SMOOTH",
"218 215 OFFCURVE",
"193 241 OFFCURVE",
"193 283 CURVE SMOOTH",
"193 329 OFFCURVE",
"225 360 OFFCURVE",
"285 360 CURVE SMOOTH",
"331 360 LINE"
);
}
);
};
layerId = "959C6BA0-AD18-4631-88F4-5A4A3C51B359";
paths = (
{
closed = 1;
nodes = (
"331 625 LINE",
"331 509 LINE",
"286 509 LINE SMOOTH",
"119 509 OFFCURVE",
"31 415 OFFCURVE",
"31 283 CURVE SMOOTH",
"31 148 OFFCURVE",
"123 60 OFFCURVE",
"255 60 CURVE SMOOTH",
"395 60 OFFCURVE",
"488 158 OFFCURVE",
"488 314 CURVE SMOOTH",
"488 360 LINE",
"620 360 LINE",
"620 509 LINE",
"488 509 LINE",
"488 625 LINE"
);
},
{
closed = 1;
nodes = (
"331 311 LINE SMOOTH",
"331 248 OFFCURVE",
"302 215 OFFCURVE",
"258 215 CURVE SMOOTH",
"218 215 OFFCURVE",
"193 241 OFFCURVE",
"193 283 CURVE SMOOTH",
"193 329 OFFCURVE",
"225 360 OFFCURVE",
"285 360 CURVE SMOOTH",
"331 360 LINE"
);
}
);
width = 641;
}
);
unicode = 221E;
},
{
color = 0;
glyphname = micro;
lastChange = "2018-04-04 05:25:25 +0000";
layers = (
{
background = {
paths = (
{
closed = 1;
nodes = (
"277 412 LINE",
"277 157 LINE SMOOTH",
"277 107 OFFCURVE",
"255 88 OFFCURVE",
"220 88 CURVE SMOOTH",
"185 88 OFFCURVE",
"163 107 OFFCURVE",
"163 157 CURVE SMOOTH",
"163 412 LINE",
"57 412 LINE",
"57 -123 LINE",
"163 -123 LINE",
"163 -8 LINE",
"170 -10 OFFCURVE",
"178 -10 OFFCURVE",
"187 -10 CURVE SMOOTH",
"231 -10 OFFCURVE",
"266 10 OFFCURVE",
"286 48 CURVE",
"288 48 LINE",
"303 0 LINE",
"383 0 LINE",
"383 412 LINE"
);
}
);
};
layerId = "959C6BA0-AD18-4631-88F4-5A4A3C51B359";
leftMetricsKey = "=H";
rightMetricsKey = "=H";
paths = (
{
closed = 1;
nodes = (
"277 412 LINE",
"277 157 LINE SMOOTH",
"277 107 OFFCURVE",
"255 88 OFFCURVE",
"220 88 CURVE SMOOTH",
"185 88 OFFCURVE",
"163 107 OFFCURVE",
"163 157 CURVE SMOOTH",
"163 412 LINE",
"57 412 LINE",
"57 -123 LINE",
"163 -123 LINE",
"163 -8 LINE",
"170 -10 OFFCURVE",
"178 -10 OFFCURVE",
"187 -10 CURVE SMOOTH",
"231 -10 OFFCURVE",
"266 10 OFFCURVE",
"286 48 CURVE",
"288 48 LINE",
"303 0 LINE",
"383 0 LINE",
"383 412 LINE"
);
}
);
width = 440;
}
);
leftMetricsKey = H;
rightMetricsKey = H;
unicode = 00B5;
},
{
color = 0;
glyphname = percent;
lastChange = "2018-04-04 05:25:25 +0000";
layers = (
{
background = {
paths = (
{
closed = 1;
nodes = (
"423 710 LINE",
"91 -10 LINE",
"157 -10 LINE",
"489 710 LINE"
);
},
{
closed = 1;
nodes = (
"378 362 OFFCURVE",
"337 320 OFFCURVE",
"337 252 CURVE SMOOTH",
"337 100 LINE SMOOTH",
"337 32 OFFCURVE",
"378 -10 OFFCURVE",
"444 -10 CURVE SMOOTH",
"510 -10 OFFCURVE",
"551 32 OFFCURVE",
"551 100 CURVE SMOOTH",
"551 252 LINE SMOOTH",
"551 320 OFFCURVE",
"510 362 OFFCURVE",
"444 362 CURVE SMOOTH"
);
},
{
closed = 1;
nodes = (
"467 297 OFFCURVE",
"479 282 OFFCURVE",
"479 252 CURVE SMOOTH",
"479 100 LINE SMOOTH",
"479 70 OFFCURVE",
"467 55 OFFCURVE",
"444 55 CURVE SMOOTH",
"421 55 OFFCURVE",
"409 70 OFFCURVE",
"409 100 CURVE SMOOTH",
"409 252 LINE SMOOTH",
"409 282 OFFCURVE",
"421 297 OFFCURVE",
"444 297 CURVE SMOOTH"
);
},
{
closed = 1;
nodes = (
"70 710 OFFCURVE",
"29 668 OFFCURVE",
"29 600 CURVE SMOOTH",
"29 448 LINE SMOOTH",
"29 380 OFFCURVE",
"70 338 OFFCURVE",
"136 338 CURVE SMOOTH",
"202 338 OFFCURVE",
"243 380 OFFCURVE",
"243 448 CURVE SMOOTH",
"243 600 LINE SMOOTH",
"243 668 OFFCURVE",
"202 710 OFFCURVE",
"136 710 CURVE SMOOTH"
);
},
{
closed = 1;
nodes = (
"159 645 OFFCURVE",
"171 630 OFFCURVE",
"171 600 CURVE SMOOTH",
"171 448 LINE SMOOTH",
"171 418 OFFCURVE",
"159 403 OFFCURVE",
"136 403 CURVE SMOOTH",
"113 403 OFFCURVE",
"101 418 OFFCURVE",
"101 448 CURVE SMOOTH",
"101 600 LINE SMOOTH",
"101 630 OFFCURVE",
"113 645 OFFCURVE",
"136 645 CURVE SMOOTH"
);
}
);
};
layerId = "959C6BA0-AD18-4631-88F4-5A4A3C51B359";
paths = (
{
closed = 1;
nodes = (
"423 710 LINE",
"91 -10 LINE",
"157 -10 LINE",
"489 710 LINE"
);
},
{
closed = 1;
nodes = (
"378 362 OFFCURVE",
"337 320 OFFCURVE",
"337 252 CURVE SMOOTH",
"337 100 LINE SMOOTH",
"337 32 OFFCURVE",
"378 -10 OFFCURVE",
"444 -10 CURVE SMOOTH",
"510 -10 OFFCURVE",
"551 32 OFFCURVE",
"551 100 CURVE SMOOTH",
"551 252 LINE SMOOTH",
"551 320 OFFCURVE",
"510 362 OFFCURVE",
"444 362 CURVE SMOOTH"
);
},
{
closed = 1;
nodes = (
"467 297 OFFCURVE",
"479 282 OFFCURVE",
"479 252 CURVE SMOOTH",
"479 100 LINE SMOOTH",
"479 70 OFFCURVE",
"467 55 OFFCURVE",
"444 55 CURVE SMOOTH",
"421 55 OFFCURVE",
"409 70 OFFCURVE",
"409 100 CURVE SMOOTH",
"409 252 LINE SMOOTH",
"409 282 OFFCURVE",
"421 297 OFFCURVE",
"444 297 CURVE SMOOTH"
);
},
{
closed = 1;
nodes = (
"70 710 OFFCURVE",
"29 668 OFFCURVE",
"29 600 CURVE SMOOTH",
"29 448 LINE SMOOTH",
"29 380 OFFCURVE",
"70 338 OFFCURVE",
"136 338 CURVE SMOOTH",
"202 338 OFFCURVE",
"243 380 OFFCURVE",
"243 448 CURVE SMOOTH",
"243 600 LINE SMOOTH",
"243 668 OFFCURVE",
"202 710 OFFCURVE",
"136 710 CURVE SMOOTH"
);
},
{
closed = 1;
nodes = (
"159 645 OFFCURVE",
"171 630 OFFCURVE",
"171 600 CURVE SMOOTH",
"171 448 LINE SMOOTH",
"171 418 OFFCURVE",
"159 403 OFFCURVE",
"136 403 CURVE SMOOTH",
"113 403 OFFCURVE",
"101 418 OFFCURVE",
"101 448 CURVE SMOOTH",
"101 600 LINE SMOOTH",
"101 630 OFFCURVE",
"113 645 OFFCURVE",
"136 645 CURVE SMOOTH"
);
}
);
width = 580;
}
);
unicode = 0025;
},
{
color = 0;
glyphname = perthousand;
lastChange = "2018-04-04 05:25:25 +0000";
layers = (
{
background = {
paths = (
{
closed = 1;
nodes = (
"423 710 LINE",
"91 -10 LINE",
"157 -10 LINE",
"489 710 LINE"
);
},
{
closed = 1;
nodes = (
"378 362 OFFCURVE",
"337 320 OFFCURVE",
"337 252 CURVE SMOOTH",
"337 100 LINE SMOOTH",
"337 32 OFFCURVE",
"378 -10 OFFCURVE",
"444 -10 CURVE SMOOTH",
"510 -10 OFFCURVE",
"551 32 OFFCURVE",
"551 100 CURVE SMOOTH",
"551 252 LINE SMOOTH",
"551 320 OFFCURVE",
"510 362 OFFCURVE",
"444 362 CURVE SMOOTH"
);
},
{
closed = 1;
nodes = (
"467 297 OFFCURVE",
"479 282 OFFCURVE",
"479 252 CURVE SMOOTH",
"479 100 LINE SMOOTH",
"479 70 OFFCURVE",
"467 55 OFFCURVE",
"444 55 CURVE SMOOTH",
"421 55 OFFCURVE",
"409 70 OFFCURVE",
"409 100 CURVE SMOOTH",
"409 252 LINE SMOOTH",
"409 282 OFFCURVE",
"421 297 OFFCURVE",
"444 297 CURVE SMOOTH"
);
},
{
closed = 1;
nodes = (
"70 710 OFFCURVE",
"29 668 OFFCURVE",
"29 600 CURVE SMOOTH",
"29 448 LINE SMOOTH",
"29 380 OFFCURVE",
"70 338 OFFCURVE",
"136 338 CURVE SMOOTH",
"202 338 OFFCURVE",
"243 380 OFFCURVE",
"243 448 CURVE SMOOTH",
"243 600 LINE SMOOTH",
"243 668 OFFCURVE",
"202 710 OFFCURVE",
"136 710 CURVE SMOOTH"
);
},
{
closed = 1;
nodes = (
"159 645 OFFCURVE",
"171 630 OFFCURVE",
"171 600 CURVE SMOOTH",
"171 448 LINE SMOOTH",
"171 418 OFFCURVE",
"159 403 OFFCURVE",
"136 403 CURVE SMOOTH",
"113 403 OFFCURVE",
"101 418 OFFCURVE",
"101 448 CURVE SMOOTH",
"101 600 LINE SMOOTH",
"101 630 OFFCURVE",
"113 645 OFFCURVE",
"136 645 CURVE SMOOTH"
);
},
{
closed = 1;
nodes = (
"637 362 OFFCURVE",
"596 320 OFFCURVE",
"596 252 CURVE SMOOTH",
"596 100 LINE SMOOTH",
"596 32 OFFCURVE",
"637 -10 OFFCURVE",
"703 -10 CURVE SMOOTH",
"769 -10 OFFCURVE",
"810 32 OFFCURVE",
"810 100 CURVE SMOOTH",
"810 252 LINE SMOOTH",
"810 320 OFFCURVE",
"769 362 OFFCURVE",
"703 362 CURVE SMOOTH"
);
},
{
closed = 1;
nodes = (
"726 297 OFFCURVE",
"738 282 OFFCURVE",
"738 252 CURVE SMOOTH",
"738 100 LINE SMOOTH",
"738 70 OFFCURVE",
"726 55 OFFCURVE",
"703 55 CURVE SMOOTH",
"680 55 OFFCURVE",
"668 70 OFFCURVE",
"668 100 CURVE SMOOTH",
"668 252 LINE SMOOTH",
"668 282 OFFCURVE",
"680 297 OFFCURVE",
"703 297 CURVE SMOOTH"
);
}
);
};
layerId = "959C6BA0-AD18-4631-88F4-5A4A3C51B359";
paths = (
{
closed = 1;
nodes = (
"423 710 LINE",
"91 -10 LINE",
"157 -10 LINE",
"489 710 LINE"
);
},
{
closed = 1;
nodes = (
"378 362 OFFCURVE",
"337 320 OFFCURVE",
"337 252 CURVE SMOOTH",
"337 100 LINE SMOOTH",
"337 32 OFFCURVE",
"378 -10 OFFCURVE",
"444 -10 CURVE SMOOTH",
"510 -10 OFFCURVE",
"551 32 OFFCURVE",
"551 100 CURVE SMOOTH",
"551 252 LINE SMOOTH",
"551 320 OFFCURVE",
"510 362 OFFCURVE",
"444 362 CURVE SMOOTH"
);
},
{
closed = 1;
nodes = (
"467 297 OFFCURVE",
"479 282 OFFCURVE",
"479 252 CURVE SMOOTH",
"479 100 LINE SMOOTH",
"479 70 OFFCURVE",
"467 55 OFFCURVE",
"444 55 CURVE SMOOTH",
"421 55 OFFCURVE",
"409 70 OFFCURVE",
"409 100 CURVE SMOOTH",
"409 252 LINE SMOOTH",
"409 282 OFFCURVE",
"421 297 OFFCURVE",
"444 297 CURVE SMOOTH"
);
},
{
closed = 1;
nodes = (
"70 710 OFFCURVE",
"29 668 OFFCURVE",
"29 600 CURVE SMOOTH",
"29 448 LINE SMOOTH",
"29 380 OFFCURVE",
"70 338 OFFCURVE",
"136 338 CURVE SMOOTH",
"202 338 OFFCURVE",
"243 380 OFFCURVE",
"243 448 CURVE SMOOTH",
"243 600 LINE SMOOTH",
"243 668 OFFCURVE",
"202 710 OFFCURVE",
"136 710 CURVE SMOOTH"
);
},
{
closed = 1;
nodes = (
"159 645 OFFCURVE",
"171 630 OFFCURVE",
"171 600 CURVE SMOOTH",
"171 448 LINE SMOOTH",
"171 418 OFFCURVE",
"159 403 OFFCURVE",
"136 403 CURVE SMOOTH",
"113 403 OFFCURVE",
"101 418 OFFCURVE",
"101 448 CURVE SMOOTH",
"101 600 LINE SMOOTH",
"101 630 OFFCURVE",
"113 645 OFFCURVE",
"136 645 CURVE SMOOTH"
);
},
{
closed = 1;
nodes = (
"637 362 OFFCURVE",
"596 320 OFFCURVE",
"596 252 CURVE SMOOTH",
"596 100 LINE SMOOTH",
"596 32 OFFCURVE",
"637 -10 OFFCURVE",
"703 -10 CURVE SMOOTH",
"769 -10 OFFCURVE",
"810 32 OFFCURVE",
"810 100 CURVE SMOOTH",
"810 252 LINE SMOOTH",
"810 320 OFFCURVE",
"769 362 OFFCURVE",
"703 362 CURVE SMOOTH"
);
},
{
closed = 1;
nodes = (
"726 297 OFFCURVE",
"738 282 OFFCURVE",
"738 252 CURVE SMOOTH",
"738 100 LINE SMOOTH",
"738 70 OFFCURVE",
"726 55 OFFCURVE",
"703 55 CURVE SMOOTH",
"680 55 OFFCURVE",
"668 70 OFFCURVE",
"668 100 CURVE SMOOTH",
"668 252 LINE SMOOTH",
"668 282 OFFCURVE",
"680 297 OFFCURVE",
"703 297 CURVE SMOOTH"
);
}
);
width = 839;
}
);
unicode = 2030;
},
{
color = 0;
glyphname = at;
lastChange = "2018-04-04 05:25:25 +0000";
layers = (
{
background = {
paths = (
{
closed = 1;
nodes = (
"170 710 OFFCURVE",
"31 562 OFFCURVE",
"31 340 CURVE SMOOTH",
"31 134 OFFCURVE",
"177 -10 OFFCURVE",
"389 -10 CURVE SMOOTH",
"465 -10 OFFCURVE",
"533 8 OFFCURVE",
"585 44 CURVE",
"552 121 LINE",
"507 91 OFFCURVE",
"451 76 OFFCURVE",
"391 76 CURVE SMOOTH",
"230 76 OFFCURVE",
"125 182 OFFCURVE",
"125 340 CURVE SMOOTH",
"125 513 OFFCURVE",
"224 624 OFFCURVE",
"379 624 CURVE SMOOTH",
"522 624 OFFCURVE",
"622 531 OFFCURVE",
"622 374 CURVE SMOOTH",
"622 299 OFFCURVE",
"600 249 OFFCURVE",
"556 249 CURVE SMOOTH",
"529 249 OFFCURVE",
"517 267 OFFCURVE",
"517 304 CURVE SMOOTH",
"517 522 LINE",
"444 522 LINE",
"439 480 LINE",
"437 480 LINE",
"414 516 OFFCURVE",
"382 534 OFFCURVE",
"340 534 CURVE SMOOTH",
"265 534 OFFCURVE",
"224 488 OFFCURVE",
"224 399 CURVE SMOOTH",
"224 300 LINE SMOOTH",
"224 212 OFFCURVE",
"265 166 OFFCURVE",
"340 166 CURVE SMOOTH",
"387 166 OFFCURVE",
"421 185 OFFCURVE",
"445 226 CURVE",
"447 226 LINE",
"463 185 OFFCURVE",
"496 166 OFFCURVE",
"547 166 CURVE SMOOTH",
"652 166 OFFCURVE",
"710 252 OFFCURVE",
"710 383 CURVE SMOOTH",
"710 581 OFFCURVE",
"571 710 OFFCURVE",
"378 710 CURVE SMOOTH"
);
},
{
closed = 1;
nodes = (
"390 450 OFFCURVE",
"409 435 OFFCURVE",
"423 401 CURVE",
"423 299 LINE",
"409 265 OFFCURVE",
"390 250 OFFCURVE",
"363 250 CURVE SMOOTH",
"332 250 OFFCURVE",
"318 269 OFFCURVE",
"318 310 CURVE SMOOTH",
"318 389 LINE SMOOTH",
"318 430 OFFCURVE",
"332 450 OFFCURVE",
"363 450 CURVE SMOOTH"
);
}
);
};
layerId = "959C6BA0-AD18-4631-88F4-5A4A3C51B359";
paths = (
{
closed = 1;
nodes = (
"170 710 OFFCURVE",
"31 562 OFFCURVE",
"31 340 CURVE SMOOTH",
"31 134 OFFCURVE",
"177 -10 OFFCURVE",
"389 -10 CURVE SMOOTH",
"465 -10 OFFCURVE",
"533 8 OFFCURVE",
"585 44 CURVE",
"552 121 LINE",
"507 91 OFFCURVE",
"451 76 OFFCURVE",
"391 76 CURVE SMOOTH",
"230 76 OFFCURVE",
"125 182 OFFCURVE",
"125 340 CURVE SMOOTH",
"125 513 OFFCURVE",
"224 624 OFFCURVE",
"379 624 CURVE SMOOTH",
"522 624 OFFCURVE",
"622 531 OFFCURVE",
"622 374 CURVE SMOOTH",
"622 299 OFFCURVE",
"600 249 OFFCURVE",
"556 249 CURVE SMOOTH",
"529 249 OFFCURVE",
"517 267 OFFCURVE",
"517 304 CURVE SMOOTH",
"517 522 LINE",
"444 522 LINE",
"439 480 LINE",
"437 480 LINE",
"414 516 OFFCURVE",
"382 534 OFFCURVE",
"340 534 CURVE SMOOTH",
"265 534 OFFCURVE",
"224 488 OFFCURVE",
"224 399 CURVE SMOOTH",
"224 300 LINE SMOOTH",
"224 212 OFFCURVE",
"265 166 OFFCURVE",
"340 166 CURVE SMOOTH",
"387 166 OFFCURVE",
"421 185 OFFCURVE",
"445 226 CURVE",
"447 226 LINE",
"463 185 OFFCURVE",
"496 166 OFFCURVE",
"547 166 CURVE SMOOTH",
"652 166 OFFCURVE",
"710 252 OFFCURVE",
"710 383 CURVE SMOOTH",
"710 581 OFFCURVE",
"571 710 OFFCURVE",
"378 710 CURVE SMOOTH"
);
},
{
closed = 1;
nodes = (
"390 450 OFFCURVE",
"409 435 OFFCURVE",
"423 401 CURVE",
"423 299 LINE",
"409 265 OFFCURVE",
"390 250 OFFCURVE",
"363 250 CURVE SMOOTH",
"332 250 OFFCURVE",
"318 269 OFFCURVE",
"318 310 CURVE SMOOTH",
"318 389 LINE SMOOTH",
"318 430 OFFCURVE",
"332 450 OFFCURVE",
"363 450 CURVE SMOOTH"
);
}
);
width = 738;
}
);
unicode = 0040;
},
{
color = 0;
glyphname = ampersand;
lastChange = "2018-04-04 05:25:25 +0000";
layers = (
{
background = {
paths = (
{
closed = 1;
nodes = (
"105 710 OFFCURVE",
"53 656 OFFCURVE",
"53 555 CURVE SMOOTH",
"53 549 LINE SMOOTH",
"53 494 OFFCURVE",
"68 448 OFFCURVE",
"116 368 CURVE",
"59 303 OFFCURVE",
"39 249 OFFCURVE",
"39 186 CURVE SMOOTH",
"39 161 LINE SMOOTH",
"39 50 OFFCURVE",
"107 -10 OFFCURVE",
"213 -10 CURVE SMOOTH",
"263 -10 OFFCURVE",
"303 3 OFFCURVE",
"333 32 CURVE",
"353 0 LINE",
"479 0 LINE",
"393 129 LINE",
"405 158 OFFCURVE",
"409 193 OFFCURVE",
"409 233 CURVE SMOOTH",
"409 348 LINE",
"317 353 LINE",
"317 250 LINE",
"315 250 LINE",
"243 362 LINE",
"325 444 OFFCURVE",
"351 487 OFFCURVE",
"351 553 CURVE SMOOTH",
"351 558 LINE SMOOTH",
"351 653 OFFCURVE",
"299 710 OFFCURVE",
"202 710 CURVE SMOOTH"
);
},
{
closed = 1;
nodes = (
"280 113 LINE",
"264 96 OFFCURVE",
"243 88 OFFCURVE",
"218 88 CURVE SMOOTH",
"175 88 OFFCURVE",
"145 113 OFFCURVE",
"145 171 CURVE SMOOTH",
"145 187 LINE SMOOTH",
"145 218 OFFCURVE",
"152 244 OFFCURVE",
"172 281 CURVE",
"174 281 LINE"
);
},
{
closed = 1;
nodes = (
"234 612 OFFCURVE",
"251 591 OFFCURVE",
"251 555 CURVE SMOOTH",
"251 550 LINE SMOOTH",
"251 517 OFFCURVE",
"237 492 OFFCURVE",
"192 442 CURVE",
"190 442 LINE",
"164 492 OFFCURVE",
"155 520 OFFCURVE",
"155 548 CURVE SMOOTH",
"155 553 LINE SMOOTH",
"155 592 OFFCURVE",
"173 612 OFFCURVE",
"203 612 CURVE SMOOTH"
);
}
);
};
layerId = "959C6BA0-AD18-4631-88F4-5A4A3C51B359";
paths = (
{
closed = 1;
nodes = (
"105 710 OFFCURVE",
"53 656 OFFCURVE",
"53 555 CURVE SMOOTH",
"53 549 LINE SMOOTH",
"53 494 OFFCURVE",
"68 448 OFFCURVE",
"116 368 CURVE",
"59 303 OFFCURVE",
"39 249 OFFCURVE",
"39 186 CURVE SMOOTH",
"39 161 LINE SMOOTH",
"39 50 OFFCURVE",
"107 -10 OFFCURVE",
"213 -10 CURVE SMOOTH",
"263 -10 OFFCURVE",
"303 3 OFFCURVE",
"333 32 CURVE",
"353 0 LINE",
"479 0 LINE",
"393 129 LINE",
"405 158 OFFCURVE",
"409 193 OFFCURVE",
"409 233 CURVE SMOOTH",
"409 348 LINE",
"317 353 LINE",
"317 250 LINE",
"315 250 LINE",
"243 362 LINE",
"325 444 OFFCURVE",
"351 487 OFFCURVE",
"351 553 CURVE SMOOTH",
"351 558 LINE SMOOTH",
"351 653 OFFCURVE",
"299 710 OFFCURVE",
"202 710 CURVE SMOOTH"
);
},
{
closed = 1;
nodes = (
"280 113 LINE",
"264 96 OFFCURVE",
"243 88 OFFCURVE",
"218 88 CURVE SMOOTH",
"175 88 OFFCURVE",
"145 113 OFFCURVE",
"145 171 CURVE SMOOTH",
"145 187 LINE SMOOTH",
"145 218 OFFCURVE",
"152 244 OFFCURVE",
"172 281 CURVE",
"174 281 LINE"
);
},
{
closed = 1;
nodes = (
"234 612 OFFCURVE",
"251 591 OFFCURVE",
"251 555 CURVE SMOOTH",
"251 550 LINE SMOOTH",
"251 517 OFFCURVE",
"237 492 OFFCURVE",
"192 442 CURVE",
"190 442 LINE",
"164 492 OFFCURVE",
"155 520 OFFCURVE",
"155 548 CURVE SMOOTH",
"155 553 LINE SMOOTH",
"155 592 OFFCURVE",
"173 612 OFFCURVE",
"203 612 CURVE SMOOTH"
);
}
);
width = 479;
}
);
unicode = 0026;
},
{
color = 0;
glyphname = paragraph;
lastChange = "2018-04-04 05:25:25 +0000";
layers = (
{
background = {
paths = (
{
closed = 1;
nodes = (
"193 700 LINE SMOOTH",
"89 700 OFFCURVE",
"33 644 OFFCURVE",
"33 539 CURVE SMOOTH",
"33 497 LINE SMOOTH",
"33 393 OFFCURVE",
"89 336 OFFCURVE",
"193 336 CURVE SMOOTH",
"196 336 LINE",
"196 -100 LINE",
"280 -100 LINE",
"280 611 LINE",
"350 611 LINE",
"350 -100 LINE",
"434 -100 LINE",
"434 700 LINE"
);
}
);
};
layerId = "959C6BA0-AD18-4631-88F4-5A4A3C51B359";
paths = (
{
closed = 1;
nodes = (
"193 700 LINE SMOOTH",
"89 700 OFFCURVE",
"33 644 OFFCURVE",
"33 539 CURVE SMOOTH",
"33 497 LINE SMOOTH",
"33 393 OFFCURVE",
"89 336 OFFCURVE",
"193 336 CURVE SMOOTH",
"196 336 LINE",
"196 -100 LINE",
"280 -100 LINE",
"280 611 LINE",
"350 611 LINE",
"350 -100 LINE",
"434 -100 LINE",
"434 700 LINE"
);
}
);
width = 501;
}
);
unicode = 00B6;
},
{
color = 0;
glyphname = section;
lastChange = "2018-04-04 05:25:25 +0000";
layers = (
{
background = {
paths = (
{
closed = 1;
nodes = (
"98 710 OFFCURVE",
"38 657 OFFCURVE",
"38 569 CURVE SMOOTH",
"38 551 LINE SMOOTH",
"38 498 OFFCURVE",
"55 462 OFFCURVE",
"101 429 CURVE",
"101 427 LINE",
"57 400 OFFCURVE",
"31 359 OFFCURVE",
"31 307 CURVE SMOOTH",
"31 292 LINE SMOOTH",
"31 215 OFFCURVE",
"67 173 OFFCURVE",
"175 126 CURVE SMOOTH",
"248 94 OFFCURVE",
"268 76 OFFCURVE",
"268 43 CURVE SMOOTH",
"268 34 LINE SMOOTH",
"268 2 OFFCURVE",
"244 -18 OFFCURVE",
"205 -18 CURVE SMOOTH",
"162 -18 OFFCURVE",
"136 7 OFFCURVE",
"136 51 CURVE SMOOTH",
"136 66 LINE",
"40 56 LINE",
"40 49 LINE SMOOTH",
"40 -50 OFFCURVE",
"105 -110 OFFCURVE",
"210 -110 CURVE SMOOTH",
"308 -110 OFFCURVE",
"368 -57 OFFCURVE",
"368 31 CURVE SMOOTH",
"368 49 LINE SMOOTH",
"368 102 OFFCURVE",
"351 138 OFFCURVE",
"305 171 CURVE",
"305 173 LINE",
"349 200 OFFCURVE",
"375 241 OFFCURVE",
"375 293 CURVE SMOOTH",
"375 308 LINE SMOOTH",
"375 385 OFFCURVE",
"339 427 OFFCURVE",
"231 474 CURVE SMOOTH",
"158 506 OFFCURVE",
"138 524 OFFCURVE",
"138 557 CURVE SMOOTH",
"138 566 LINE SMOOTH",
"138 598 OFFCURVE",
"162 618 OFFCURVE",
"201 618 CURVE SMOOTH",
"244 618 OFFCURVE",
"270 593 OFFCURVE",
"270 549 CURVE SMOOTH",
"270 534 LINE",
"366 544 LINE",
"366 551 LINE SMOOTH",
"366 650 OFFCURVE",
"301 710 OFFCURVE",
"196 710 CURVE SMOOTH"
);
},
{
closed = 1;
nodes = (
"256 353 OFFCURVE",
"275 335 OFFCURVE",
"275 302 CURVE SMOOTH",
"275 283 LINE SMOOTH",
"275 254 OFFCURVE",
"254 228 OFFCURVE",
"221 216 CURVE",
"150 247 OFFCURVE",
"131 265 OFFCURVE",
"131 298 CURVE SMOOTH",
"131 317 LINE SMOOTH",
"131 346 OFFCURVE",
"152 372 OFFCURVE",
"185 384 CURVE"
);
}
);
};
layerId = "959C6BA0-AD18-4631-88F4-5A4A3C51B359";
paths = (
{
closed = 1;
nodes = (
"98 710 OFFCURVE",
"38 657 OFFCURVE",
"38 569 CURVE SMOOTH",
"38 551 LINE SMOOTH",
"38 498 OFFCURVE",
"55 462 OFFCURVE",
"101 429 CURVE",
"101 427 LINE",
"57 400 OFFCURVE",
"31 359 OFFCURVE",
"31 307 CURVE SMOOTH",
"31 292 LINE SMOOTH",
"31 215 OFFCURVE",
"67 173 OFFCURVE",
"175 126 CURVE SMOOTH",
"248 94 OFFCURVE",
"268 76 OFFCURVE",
"268 43 CURVE SMOOTH",
"268 34 LINE SMOOTH",
"268 2 OFFCURVE",
"244 -18 OFFCURVE",
"205 -18 CURVE SMOOTH",
"162 -18 OFFCURVE",
"136 7 OFFCURVE",
"136 51 CURVE SMOOTH",
"136 66 LINE",
"40 56 LINE",
"40 49 LINE SMOOTH",
"40 -50 OFFCURVE",
"105 -110 OFFCURVE",
"210 -110 CURVE SMOOTH",
"308 -110 OFFCURVE",
"368 -57 OFFCURVE",
"368 31 CURVE SMOOTH",
"368 49 LINE SMOOTH",
"368 102 OFFCURVE",
"351 138 OFFCURVE",
"305 171 CURVE",
"305 173 LINE",
"349 200 OFFCURVE",
"375 241 OFFCURVE",
"375 293 CURVE SMOOTH",
"375 308 LINE SMOOTH",
"375 385 OFFCURVE",
"339 427 OFFCURVE",
"231 474 CURVE SMOOTH",
"158 506 OFFCURVE",
"138 524 OFFCURVE",
"138 557 CURVE SMOOTH",
"138 566 LINE SMOOTH",
"138 598 OFFCURVE",
"162 618 OFFCURVE",
"201 618 CURVE SMOOTH",
"244 618 OFFCURVE",
"270 593 OFFCURVE",
"270 549 CURVE SMOOTH",
"270 534 LINE",
"366 544 LINE",
"366 551 LINE SMOOTH",
"366 650 OFFCURVE",
"301 710 OFFCURVE",
"196 710 CURVE SMOOTH"
);
},
{
closed = 1;
nodes = (
"256 353 OFFCURVE",
"275 335 OFFCURVE",
"275 302 CURVE SMOOTH",
"275 283 LINE SMOOTH",
"275 254 OFFCURVE",
"254 228 OFFCURVE",
"221 216 CURVE",
"150 247 OFFCURVE",
"131 265 OFFCURVE",
"131 298 CURVE SMOOTH",
"131 317 LINE SMOOTH",
"131 346 OFFCURVE",
"152 372 OFFCURVE",
"185 384 CURVE"
);
}
);
width = 406;
}
);
unicode = 00A7;
},
{
color = 0;
glyphname = copyright;
lastChange = "2018-04-04 05:25:25 +0000";
layers = (
{
background = {
paths = (
{
closed = 1;
nodes = (
"167 710 OFFCURVE",
"31 566 OFFCURVE",
"31 350 CURVE SMOOTH",
"31 134 OFFCURVE",
"167 -10 OFFCURVE",
"371 -10 CURVE SMOOTH",
"575 -10 OFFCURVE",
"711 134 OFFCURVE",
"711 350 CURVE SMOOTH",
"711 566 OFFCURVE",
"575 710 OFFCURVE",
"371 710 CURVE SMOOTH"
);
},
{
closed = 1;
nodes = (
"528 636 OFFCURVE",
"629 524 OFFCURVE",
"629 350 CURVE SMOOTH",
"629 176 OFFCURVE",
"528 64 OFFCURVE",
"371 64 CURVE SMOOTH",
"214 64 OFFCURVE",
"113 176 OFFCURVE",
"113 350 CURVE SMOOTH",
"113 524 OFFCURVE",
"214 636 OFFCURVE",
"371 636 CURVE SMOOTH"
);
},
{
closed = 1;
nodes = (
"299 569 OFFCURVE",
"257 526 OFFCURVE",
"257 453 CURVE SMOOTH",
"257 247 LINE SMOOTH",
"257 174 OFFCURVE",
"299 131 OFFCURVE",
"370 131 CURVE SMOOTH",
"442 131 OFFCURVE",
"485 174 OFFCURVE",
"485 247 CURVE SMOOTH",
"485 294 LINE",
"405 297 LINE",
"405 252 LINE SMOOTH",
"405 221 OFFCURVE",
"395 207 OFFCURVE",
"373 207 CURVE SMOOTH",
"352 207 OFFCURVE",
"342 219 OFFCURVE",
"342 245 CURVE SMOOTH",
"342 455 LINE SMOOTH",
"342 481 OFFCURVE",
"352 493 OFFCURVE",
"373 493 CURVE SMOOTH",
"395 493 OFFCURVE",
"405 479 OFFCURVE",
"405 448 CURVE SMOOTH",
"405 415 LINE",
"485 419 LINE",
"485 453 LINE SMOOTH",
"485 526 OFFCURVE",
"442 569 OFFCURVE",
"370 569 CURVE SMOOTH"
);
}
);
};
layerId = "959C6BA0-AD18-4631-88F4-5A4A3C51B359";
paths = (
{
closed = 1;
nodes = (
"167 710 OFFCURVE",
"31 566 OFFCURVE",
"31 350 CURVE SMOOTH",
"31 134 OFFCURVE",
"167 -10 OFFCURVE",
"371 -10 CURVE SMOOTH",
"575 -10 OFFCURVE",
"711 134 OFFCURVE",
"711 350 CURVE SMOOTH",
"711 566 OFFCURVE",
"575 710 OFFCURVE",
"371 710 CURVE SMOOTH"
);
},
{
closed = 1;
nodes = (
"528 636 OFFCURVE",
"629 524 OFFCURVE",
"629 350 CURVE SMOOTH",
"629 176 OFFCURVE",
"528 64 OFFCURVE",
"371 64 CURVE SMOOTH",
"214 64 OFFCURVE",
"113 176 OFFCURVE",
"113 350 CURVE SMOOTH",
"113 524 OFFCURVE",
"214 636 OFFCURVE",
"371 636 CURVE SMOOTH"
);
},
{
closed = 1;
nodes = (
"299 569 OFFCURVE",
"257 526 OFFCURVE",
"257 453 CURVE SMOOTH",
"257 247 LINE SMOOTH",
"257 174 OFFCURVE",
"299 131 OFFCURVE",
"370 131 CURVE SMOOTH",
"442 131 OFFCURVE",
"485 174 OFFCURVE",
"485 247 CURVE SMOOTH",
"485 294 LINE",
"405 297 LINE",
"405 252 LINE SMOOTH",
"405 221 OFFCURVE",
"395 207 OFFCURVE",
"373 207 CURVE SMOOTH",
"352 207 OFFCURVE",
"342 219 OFFCURVE",
"342 245 CURVE SMOOTH",
"342 455 LINE SMOOTH",
"342 481 OFFCURVE",
"352 493 OFFCURVE",
"373 493 CURVE SMOOTH",
"395 493 OFFCURVE",
"405 479 OFFCURVE",
"405 448 CURVE SMOOTH",
"405 415 LINE",
"485 419 LINE",
"485 453 LINE SMOOTH",
"485 526 OFFCURVE",
"442 569 OFFCURVE",
"370 569 CURVE SMOOTH"
);
}
);
width = 742;
}
);
leftKerningGroup = copyright;
rightKerningGroup = copyright;
unicode = 00A9;
},
{
color = 0;
glyphname = registered;
lastChange = "2018-04-04 05:25:25 +0000";
layers = (
{
background = {
paths = (
{
closed = 1;
nodes = (
"167 710 OFFCURVE",
"31 566 OFFCURVE",
"31 350 CURVE SMOOTH",
"31 134 OFFCURVE",
"167 -10 OFFCURVE",
"371 -10 CURVE SMOOTH",
"575 -10 OFFCURVE",
"711 134 OFFCURVE",
"711 350 CURVE SMOOTH",
"711 566 OFFCURVE",
"575 710 OFFCURVE",
"371 710 CURVE SMOOTH"
);
},
{
closed = 1;
nodes = (
"528 636 OFFCURVE",
"629 524 OFFCURVE",
"629 350 CURVE SMOOTH",
"629 176 OFFCURVE",
"528 64 OFFCURVE",
"371 64 CURVE SMOOTH",
"214 64 OFFCURVE",
"113 176 OFFCURVE",
"113 350 CURVE SMOOTH",
"113 524 OFFCURVE",
"214 636 OFFCURVE",
"371 636 CURVE SMOOTH"
);
},
{
closed = 1;
nodes = (
"260 563 LINE",
"260 137 LINE",
"345 137 LINE",
"345 308 LINE",
"367 308 LINE",
"423 137 LINE",
"513 137 LINE",
"445 324 LINE",
"479 342 OFFCURVE",
"496 376 OFFCURVE",
"496 425 CURVE SMOOTH",
"496 446 LINE SMOOTH",
"496 523 OFFCURVE",
"454 563 OFFCURVE",
"373 563 CURVE SMOOTH"
);
},
{
closed = 1;
nodes = (
"398 487 OFFCURVE",
"410 473 OFFCURVE",
"410 440 CURVE SMOOTH",
"410 432 LINE SMOOTH",
"410 398 OFFCURVE",
"398 384 OFFCURVE",
"371 384 CURVE SMOOTH",
"345 384 LINE",
"345 487 LINE",
"371 487 LINE SMOOTH"
);
}
);
};
layerId = "959C6BA0-AD18-4631-88F4-5A4A3C51B359";
paths = (
{
closed = 1;
nodes = (
"167 710 OFFCURVE",
"31 566 OFFCURVE",
"31 350 CURVE SMOOTH",
"31 134 OFFCURVE",
"167 -10 OFFCURVE",
"371 -10 CURVE SMOOTH",
"575 -10 OFFCURVE",
"711 134 OFFCURVE",
"711 350 CURVE SMOOTH",
"711 566 OFFCURVE",
"575 710 OFFCURVE",
"371 710 CURVE SMOOTH"
);
},
{
closed = 1;
nodes = (
"528 636 OFFCURVE",
"629 524 OFFCURVE",
"629 350 CURVE SMOOTH",
"629 176 OFFCURVE",
"528 64 OFFCURVE",
"371 64 CURVE SMOOTH",
"214 64 OFFCURVE",
"113 176 OFFCURVE",
"113 350 CURVE SMOOTH",
"113 524 OFFCURVE",
"214 636 OFFCURVE",
"371 636 CURVE SMOOTH"
);
},
{
closed = 1;
nodes = (
"260 563 LINE",
"260 137 LINE",
"345 137 LINE",
"345 308 LINE",
"367 308 LINE",
"423 137 LINE",
"513 137 LINE",
"445 324 LINE",
"479 342 OFFCURVE",
"496 376 OFFCURVE",
"496 425 CURVE SMOOTH",
"496 446 LINE SMOOTH",
"496 523 OFFCURVE",
"454 563 OFFCURVE",
"373 563 CURVE SMOOTH"
);
},
{
closed = 1;
nodes = (
"398 487 OFFCURVE",
"410 473 OFFCURVE",
"410 440 CURVE SMOOTH",
"410 432 LINE SMOOTH",
"410 398 OFFCURVE",
"398 384 OFFCURVE",
"371 384 CURVE SMOOTH",
"345 384 LINE",
"345 487 LINE",
"371 487 LINE SMOOTH"
);
}
);
width = 742;
}
);
leftKerningGroup = copyright;
rightKerningGroup = copyright;
unicode = 00AE;
},
{
color = 0;
glyphname = published;
lastChange = "2018-04-04 05:25:25 +0000";
layers = (
{
background = {
paths = (
{
closed = 1;
nodes = (
"167 710 OFFCURVE",
"31 566 OFFCURVE",
"31 350 CURVE SMOOTH",
"31 134 OFFCURVE",
"167 -10 OFFCURVE",
"371 -10 CURVE SMOOTH",
"575 -10 OFFCURVE",
"711 134 OFFCURVE",
"711 350 CURVE SMOOTH",
"711 566 OFFCURVE",
"575 710 OFFCURVE",
"371 710 CURVE SMOOTH"
);
},
{
closed = 1;
nodes = (
"528 636 OFFCURVE",
"629 524 OFFCURVE",
"629 350 CURVE SMOOTH",
"629 176 OFFCURVE",
"528 64 OFFCURVE",
"371 64 CURVE SMOOTH",
"214 64 OFFCURVE",
"113 176 OFFCURVE",
"113 350 CURVE SMOOTH",
"113 524 OFFCURVE",
"214 636 OFFCURVE",
"371 636 CURVE SMOOTH"
);
},
{
closed = 1;
nodes = (
"270 563 LINE",
"270 137 LINE",
"356 137 LINE",
"356 304 LINE",
"383 304 LINE SMOOTH",
"465 304 OFFCURVE",
"507 344 OFFCURVE",
"507 423 CURVE SMOOTH",
"507 444 LINE SMOOTH",
"507 523 OFFCURVE",
"465 563 OFFCURVE",
"383 563 CURVE SMOOTH"
);
},
{
closed = 1;
nodes = (
"408 487 OFFCURVE",
"420 473 OFFCURVE",
"420 440 CURVE SMOOTH",
"420 428 LINE SMOOTH",
"420 394 OFFCURVE",
"408 380 OFFCURVE",
"381 380 CURVE SMOOTH",
"356 380 LINE",
"356 487 LINE",
"381 487 LINE SMOOTH"
);
}
);
};
layerId = "959C6BA0-AD18-4631-88F4-5A4A3C51B359";
paths = (
{
closed = 1;
nodes = (
"167 710 OFFCURVE",
"31 566 OFFCURVE",
"31 350 CURVE SMOOTH",
"31 134 OFFCURVE",
"167 -10 OFFCURVE",
"371 -10 CURVE SMOOTH",
"575 -10 OFFCURVE",
"711 134 OFFCURVE",
"711 350 CURVE SMOOTH",
"711 566 OFFCURVE",
"575 710 OFFCURVE",
"371 710 CURVE SMOOTH"
);
},
{
closed = 1;
nodes = (
"528 636 OFFCURVE",
"629 524 OFFCURVE",
"629 350 CURVE SMOOTH",
"629 176 OFFCURVE",
"528 64 OFFCURVE",
"371 64 CURVE SMOOTH",
"214 64 OFFCURVE",
"113 176 OFFCURVE",
"113 350 CURVE SMOOTH",
"113 524 OFFCURVE",
"214 636 OFFCURVE",
"371 636 CURVE SMOOTH"
);
},
{
closed = 1;
nodes = (
"270 563 LINE",
"270 137 LINE",
"356 137 LINE",
"356 304 LINE",
"383 304 LINE SMOOTH",
"465 304 OFFCURVE",
"507 344 OFFCURVE",
"507 423 CURVE SMOOTH",
"507 444 LINE SMOOTH",
"507 523 OFFCURVE",
"465 563 OFFCURVE",
"383 563 CURVE SMOOTH"
);
},
{
closed = 1;
nodes = (
"408 487 OFFCURVE",
"420 473 OFFCURVE",
"420 440 CURVE SMOOTH",
"420 428 LINE SMOOTH",
"420 394 OFFCURVE",
"408 380 OFFCURVE",
"381 380 CURVE SMOOTH",
"356 380 LINE",
"356 487 LINE",
"381 487 LINE SMOOTH"
);
}
);
width = 742;
}
);
leftKerningGroup = copyright;
rightKerningGroup = copyright;
unicode = 2117;
},
{
color = 0;
glyphname = trademark;
lastChange = "2018-04-04 05:25:25 +0000";
layers = (
{
background = {
paths = (
{
closed = 1;
nodes = (
"418 700 LINE",
"377 523 LINE",
"375 523 LINE",
"333 700 LINE",
"242 700 LINE",
"242 314 LINE",
"310 314 LINE",
"310 550 LINE",
"312 550 LINE",
"355 370 LINE",
"395 370 LINE",
"438 550 LINE",
"440 550 LINE",
"440 314 LINE",
"511 314 LINE",
"511 700 LINE"
);
},
{
closed = 1;
nodes = (
"11 700 LINE",
"11 634 LINE",
"76 634 LINE",
"76 314 LINE",
"147 314 LINE",
"147 634 LINE",
"213 634 LINE",
"213 700 LINE"
);
}
);
};
layerId = "959C6BA0-AD18-4631-88F4-5A4A3C51B359";
leftMetricsKey = "=T";
rightMetricsKey = "=M";
paths = (
{
closed = 1;
nodes = (
"418 700 LINE",
"377 523 LINE",
"375 523 LINE",
"333 700 LINE",
"242 700 LINE",
"242 314 LINE",
"310 314 LINE",
"310 550 LINE",
"312 550 LINE",
"355 370 LINE",
"395 370 LINE",
"438 550 LINE",
"440 550 LINE",
"440 314 LINE",
"511 314 LINE",
"511 700 LINE"
);
},
{
closed = 1;
nodes = (
"11 700 LINE",
"11 634 LINE",
"76 634 LINE",
"76 314 LINE",
"147 314 LINE",
"147 634 LINE",
"213 634 LINE",
"213 700 LINE"
);
}
);
width = 568;
}
);
leftMetricsKey = T;
rightMetricsKey = M;
unicode = 2122;
},
{
color = 0;
glyphname = degree;
lastChange = "2018-04-04 05:25:25 +0000";
layers = (
{
background = {
paths = (
{
closed = 1;
nodes = (
"75 710 OFFCURVE",
"29 664 OFFCURVE",
"29 600 CURVE SMOOTH",
"29 536 OFFCURVE",
"75 490 OFFCURVE",
"139 490 CURVE SMOOTH",
"203 490 OFFCURVE",
"249 536 OFFCURVE",
"249 600 CURVE SMOOTH",
"249 664 OFFCURVE",
"203 710 OFFCURVE",
"139 710 CURVE SMOOTH"
);
},
{
closed = 1;
nodes = (
"164 644 OFFCURVE",
"180 627 OFFCURVE",
"180 600 CURVE SMOOTH",
"180 573 OFFCURVE",
"164 556 OFFCURVE",
"139 556 CURVE SMOOTH",
"114 556 OFFCURVE",
"98 573 OFFCURVE",
"98 600 CURVE SMOOTH",
"98 627 OFFCURVE",
"114 644 OFFCURVE",
"139 644 CURVE SMOOTH"
);
}
);
};
layerId = "959C6BA0-AD18-4631-88F4-5A4A3C51B359";
paths = (
{
closed = 1;
nodes = (
"75 710 OFFCURVE",
"29 664 OFFCURVE",
"29 600 CURVE SMOOTH",
"29 536 OFFCURVE",
"75 490 OFFCURVE",
"139 490 CURVE SMOOTH",
"203 490 OFFCURVE",
"249 536 OFFCURVE",
"249 600 CURVE SMOOTH",
"249 664 OFFCURVE",
"203 710 OFFCURVE",
"139 710 CURVE SMOOTH"
);
},
{
closed = 1;
nodes = (
"164 644 OFFCURVE",
"180 627 OFFCURVE",
"180 600 CURVE SMOOTH",
"180 573 OFFCURVE",
"164 556 OFFCURVE",
"139 556 CURVE SMOOTH",
"114 556 OFFCURVE",
"98 573 OFFCURVE",
"98 600 CURVE SMOOTH",
"98 627 OFFCURVE",
"114 644 OFFCURVE",
"139 644 CURVE SMOOTH"
);
}
);
width = 278;
}
);
unicode = 00B0;
},
{
color = 0;
glyphname = bar;
lastChange = "2018-04-04 05:25:25 +0000";
layers = (
{
background = {
paths = (
{
closed = 1;
nodes = (
"77 850 LINE",
"77 -150 LINE",
"158 -150 LINE",
"158 850 LINE"
);
}
);
};
layerId = "959C6BA0-AD18-4631-88F4-5A4A3C51B359";
paths = (
{
closed = 1;
nodes = (
"77 850 LINE",
"77 -150 LINE",
"158 -150 LINE",
"158 850 LINE"
);
}
);
width = 235;
}
);
unicode = 007C;
},
{
color = 0;
glyphname = brokenbar;
lastChange = "2018-04-04 05:25:25 +0000";
layers = (
{
background = {
paths = (
{
closed = 1;
nodes = (
"77 850 LINE",
"77 450 LINE",
"158 450 LINE",
"158 850 LINE"
);
},
{
closed = 1;
nodes = (
"77 250 LINE",
"77 -150 LINE",
"158 -150 LINE",
"158 250 LINE"
);
}
);
};
layerId = "959C6BA0-AD18-4631-88F4-5A4A3C51B359";
paths = (
{
closed = 1;
nodes = (
"77 850 LINE",
"77 450 LINE",
"158 450 LINE",
"158 850 LINE"
);
},
{
closed = 1;
nodes = (
"77 250 LINE",
"77 -150 LINE",
"158 -150 LINE",
"158 250 LINE"
);
}
);
width = 235;
}
);
unicode = 00A6;
},
{
color = 5;
glyphname = dagger;
lastChange = "2018-04-04 05:25:25 +0000";
layers = (
{
background = {
hints = (
{
horizontal = 1;
origin = "{0, 6}";
target = up;
type = BottomGhost;
},
{
horizontal = 1;
origin = "{0, 11}";
target = down;
type = TopGhost;
},
{
origin = "{0, 0}";
target = "{0, 11}";
},
{
horizontal = 1;
origin = "{0, 7}";
target = "{0, 10}";
}
);
paths = (
{
closed = 1;
nodes = (
"161 700 LINE",
"161 507.66 LINE",
"23 515 LINE",
"23 415 LINE",
"161 422.34 LINE",
"161 -100 LINE",
"261 -100 LINE",
"261 422.34 LINE",
"399 415 LINE",
"399 515 LINE",
"261 507.66 LINE",
"261 700 LINE"
);
}
);
};
hints = (
{
horizontal = 1;
origin = "{0, 6}";
target = up;
type = BottomGhost;
},
{
horizontal = 1;
origin = "{0, 11}";
target = down;
type = TopGhost;
},
{
origin = "{0, 0}";
target = "{0, 11}";
},
{
horizontal = 1;
origin = "{0, 7}";
target = "{0, 10}";
}
);
layerId = "959C6BA0-AD18-4631-88F4-5A4A3C51B359";
paths = (
{
closed = 1;
nodes = (
"161 700 LINE",
"161 507.66 LINE",
"23 515 LINE",
"23 415 LINE",
"161 422.34 LINE",
"161 -100 LINE",
"261 -100 LINE",
"261 422.34 LINE",
"399 415 LINE",
"399 515 LINE",
"261 507.66 LINE",
"261 700 LINE"
);
}
);
width = 422;
}
);
unicode = 2020;
},
{
color = 5;
glyphname = daggerdbl;
lastChange = "2018-04-04 05:25:25 +0000";
layers = (
{
background = {
hints = (
{
horizontal = 1;
origin = "{0, 10}";
target = up;
type = BottomGhost;
},
{
horizontal = 1;
origin = "{0, 19}";
target = down;
type = TopGhost;
},
{
origin = "{0, 0}";
target = "{0, 19}";
},
{
horizontal = 1;
origin = "{0, 15}";
target = "{0, 18}";
},
{
horizontal = 1;
origin = "{0, 11}";
target = "{0, 14}";
}
);
paths = (
{
closed = 1;
nodes = (
"161 700 LINE",
"161 507.66 LINE",
"23 515 LINE",
"23 415 LINE",
"161 422.34 LINE",
"161 177.66 LINE",
"23 185 LINE",
"23 85 LINE",
"161 92.34 LINE",
"161 -100 LINE",
"261 -100 LINE",
"261 92.34 LINE",
"399 85 LINE",
"399 185 LINE",
"261 177.66 LINE",
"261 422.34 LINE",
"399 415 LINE",
"399 515 LINE",
"261 507.66 LINE",
"261 700 LINE"
);
}
);
};
hints = (
{
horizontal = 1;
origin = "{0, 10}";
target = up;
type = BottomGhost;
},
{
horizontal = 1;
origin = "{0, 19}";
target = down;
type = TopGhost;
},
{
origin = "{0, 0}";
target = "{0, 19}";
},
{
horizontal = 1;
origin = "{0, 15}";
target = "{0, 18}";
},
{
horizontal = 1;
origin = "{0, 11}";
target = "{0, 14}";
}
);
layerId = "959C6BA0-AD18-4631-88F4-5A4A3C51B359";
paths = (
{
closed = 1;
nodes = (
"161 700 LINE",
"161 507.66 LINE",
"23 515 LINE",
"23 415 LINE",
"161 422.34 LINE",
"161 177.66 LINE",
"23 185 LINE",
"23 85 LINE",
"161 92.34 LINE",
"161 -100 LINE",
"261 -100 LINE",
"261 92.34 LINE",
"399 85 LINE",
"399 185 LINE",
"261 177.66 LINE",
"261 422.34 LINE",
"399 415 LINE",
"399 515 LINE",
"261 507.66 LINE",
"261 700 LINE"
);
}
);
width = 422;
}
);
unicode = 2021;
},
{
color = 0;
glyphname = asciicircum;
lastChange = "2018-04-04 05:25:25 +0000";
layers = (
{
background = {
paths = (
{
closed = 1;
nodes = (
"177 700 LINE",
"18 415 LINE",
"116 415 LINE",
"216 597 LINE",
"315 415 LINE",
"413 415 LINE",
"255 700 LINE"
);
}
);
};
layerId = "959C6BA0-AD18-4631-88F4-5A4A3C51B359";
paths = (
{
closed = 1;
nodes = (
"177 700 LINE",
"18 415 LINE",
"116 415 LINE",
"216 597 LINE",
"315 415 LINE",
"413 415 LINE",
"255 700 LINE"
);
}
);
width = 430;
}
);
unicode = 005E;
},
{
color = 0;
glyphname = commaaccent;
lastChange = "2018-04-04 05:25:25 +0000";
layers = (
{
anchors = (
{
name = _bottom;
position = "{125, 0}";
}
);
background = {
anchors = (
{
name = _bottom;
position = "{125, 0}";
}
);
paths = (
{
closed = 1;
nodes = (
"74 -40 LINE",
"74 -132 LINE",
"107 -132 LINE",
"74 -204 LINE",
"124 -204 LINE",
"176 -123 LINE",
"176 -40 LINE"
);
}
);
};
layerId = "959C6BA0-AD18-4631-88F4-5A4A3C51B359";
paths = (
{
closed = 1;
nodes = (
"74 -40 LINE",
"74 -132 LINE",
"107 -132 LINE",
"74 -204 LINE",
"124 -204 LINE",
"176 -123 LINE",
"176 -40 LINE"
);
}
);
width = 250;
}
);
unicode = 0326;
},
{
color = 0;
glyphname = acute;
lastChange = "2018-04-04 05:25:25 +0000";
layers = (
{
anchors = (
{
name = _top;
position = "{125, 700}";
}
);
background = {
anchors = (
{
name = _top;
position = "{125, 700}";
}
);
paths = (
{
closed = 1;
nodes = (
"132 850 LINE",
"74 740 LINE",
"152 740 LINE",
"239 850 LINE"
);
}
);
};
layerId = "959C6BA0-AD18-4631-88F4-5A4A3C51B359";
paths = (
{
closed = 1;
nodes = (
"132 850 LINE",
"74 740 LINE",
"152 740 LINE",
"239 850 LINE"
);
}
);
width = 250;
}
);
unicode = 00B4;
},
{
color = 0;
glyphname = breve;
lastChange = "2018-04-04 05:25:25 +0000";
layers = (
{
anchors = (
{
name = _top;
position = "{125, 700}";
}
);
background = {
anchors = (
{
name = _top;
position = "{125, 700}";
}
);
paths = (
{
closed = 1;
nodes = (
"172 850 LINE",
"172 825 OFFCURVE",
"154 809 OFFCURVE",
"125 809 CURVE",
"96 809 OFFCURVE",
"78 825 OFFCURVE",
"78 850 CURVE",
"10 850 LINE",
"10 777 OFFCURVE",
"52 735 OFFCURVE",
"125 735 CURVE",
"198 735 OFFCURVE",
"240 777 OFFCURVE",
"240 850 CURVE"
);
}
);
};
layerId = "959C6BA0-AD18-4631-88F4-5A4A3C51B359";
paths = (
{
closed = 1;
nodes = (
"172 850 LINE",
"172 825 OFFCURVE",
"154 809 OFFCURVE",
"125 809 CURVE",
"96 809 OFFCURVE",
"78 825 OFFCURVE",
"78 850 CURVE",
"10 850 LINE",
"10 777 OFFCURVE",
"52 735 OFFCURVE",
"125 735 CURVE",
"198 735 OFFCURVE",
"240 777 OFFCURVE",
"240 850 CURVE"
);
}
);
width = 250;
}
);
unicode = 02D8;
},
{
color = 0;
glyphname = caron;
lastChange = "2018-04-04 05:25:25 +0000";
layers = (
{
anchors = (
{
name = _top;
position = "{125, 700}";
}
);
background = {
anchors = (
{
name = _top;
position = "{125, 700}";
}
);
paths = (
{
closed = 1;
nodes = (
"169 850 LINE",
"125 794.368 LINE",
"81 850 LINE",
"3 850 LINE",
"71 740 LINE",
"179 740 LINE",
"247 850 LINE"
);
}
);
};
layerId = "959C6BA0-AD18-4631-88F4-5A4A3C51B359";
paths = (
{
closed = 1;
nodes = (
"169 850 LINE",
"125 794.368 LINE",
"81 850 LINE",
"3 850 LINE",
"71 740 LINE",
"179 740 LINE",
"247 850 LINE"
);
}
);
width = 250;
}
);
unicode = 02C7;
},
{
color = 0;
glyphname = cedilla;
lastChange = "2018-04-04 05:25:25 +0000";
layers = (
{
anchors = (
{
name = _bottom;
position = "{125, 0}";
}
);
background = {
anchors = (
{
name = _bottom;
position = "{125, 0}";
}
);
paths = (
{
closed = 1;
nodes = (
"102 14 LINE",
"102 -53 LINE",
"112 -53 LINE SMOOTH",
"138 -53 OFFCURVE",
"147 -61 OFFCURVE",
"147 -83 CURVE SMOOTH",
"147 -99 OFFCURVE",
"139 -107 OFFCURVE",
"124 -107 CURVE SMOOTH",
"109 -107 OFFCURVE",
"101 -99 OFFCURVE",
"101 -83 CURVE SMOOTH",
"101 -75 LINE",
"27 -79 LINE",
"27 -85 LINE SMOOTH",
"27 -126 OFFCURVE",
"60 -147 OFFCURVE",
"123 -147 CURVE SMOOTH",
"192 -147 OFFCURVE",
"224 -128 OFFCURVE",
"224 -88 CURVE SMOOTH",
"224 -52 OFFCURVE",
"200 -35 OFFCURVE",
"150 -35 CURVE",
"150 14 LINE"
);
}
);
};
layerId = "959C6BA0-AD18-4631-88F4-5A4A3C51B359";
paths = (
{
closed = 1;
nodes = (
"102 14 LINE",
"102 -53 LINE",
"112 -53 LINE SMOOTH",
"138 -53 OFFCURVE",
"147 -61 OFFCURVE",
"147 -83 CURVE SMOOTH",
"147 -99 OFFCURVE",
"139 -107 OFFCURVE",
"124 -107 CURVE SMOOTH",
"109 -107 OFFCURVE",
"101 -99 OFFCURVE",
"101 -83 CURVE SMOOTH",
"101 -75 LINE",
"27 -79 LINE",
"27 -85 LINE SMOOTH",
"27 -126 OFFCURVE",
"60 -147 OFFCURVE",
"123 -147 CURVE SMOOTH",
"192 -147 OFFCURVE",
"224 -128 OFFCURVE",
"224 -88 CURVE SMOOTH",
"224 -52 OFFCURVE",
"200 -35 OFFCURVE",
"150 -35 CURVE",
"150 14 LINE"
);
}
);
width = 250;
}
);
unicode = 00B8;
},
{
color = 0;
glyphname = circumflex;
lastChange = "2018-04-04 05:25:25 +0000";
layers = (
{
anchors = (
{
name = _top;
position = "{125, 700}";
}
);
background = {
anchors = (
{
name = _top;
position = "{125, 700}";
}
);
paths = (
{
closed = 1;
nodes = (
"71 850 LINE",
"3 740 LINE",
"81 740 LINE",
"125 795.632 LINE",
"169 740 LINE",
"247 740 LINE",
"179 850 LINE"
);
}
);
};
layerId = "959C6BA0-AD18-4631-88F4-5A4A3C51B359";
paths = (
{
closed = 1;
nodes = (
"71 850 LINE",
"3 740 LINE",
"81 740 LINE",
"125 795.632 LINE",
"169 740 LINE",
"247 740 LINE",
"179 850 LINE"
);
}
);
width = 250;
}
);
unicode = 02C6;
},
{
color = 0;
glyphname = dieresis;
lastChange = "2018-04-04 05:25:25 +0000";
layers = (
{
anchors = (
{
name = _top;
position = "{125, 700}";
}
);
background = {
anchors = (
{
name = _top;
position = "{125, 700}";
}
);
paths = (
{
closed = 1;
nodes = (
"151 843 LINE",
"151 747 LINE",
"245 747 LINE",
"245 843 LINE"
);
},
{
closed = 1;
nodes = (
"5 843 LINE",
"5 747 LINE",
"99 747 LINE",
"99 843 LINE"
);
}
);
};
layerId = "959C6BA0-AD18-4631-88F4-5A4A3C51B359";
paths = (
{
closed = 1;
nodes = (
"151 843 LINE",
"151 747 LINE",
"245 747 LINE",
"245 843 LINE"
);
},
{
closed = 1;
nodes = (
"5 843 LINE",
"5 747 LINE",
"99 747 LINE",
"99 843 LINE"
);
}
);
width = 250;
}
);
unicode = 00A8;
},
{
color = 0;
glyphname = dotaccent;
lastChange = "2018-04-04 05:25:25 +0000";
layers = (
{
anchors = (
{
name = _top;
position = "{125, 700}";
}
);
background = {
anchors = (
{
name = _top;
position = "{125, 700}";
}
);
paths = (
{
closed = 1;
nodes = (
"74 847 LINE",
"74 743 LINE",
"176 743 LINE",
"176 847 LINE"
);
}
);
};
layerId = "959C6BA0-AD18-4631-88F4-5A4A3C51B359";
paths = (
{
closed = 1;
nodes = (
"74 847 LINE",
"74 743 LINE",
"176 743 LINE",
"176 847 LINE"
);
}
);
width = 250;
}
);
unicode = 02D9;
},
{
color = 0;
glyphname = grave;
lastChange = "2018-04-04 05:25:25 +0000";
layers = (
{
anchors = (
{
name = _top;
position = "{125, 700}";
}
);
background = {
anchors = (
{
name = _top;
position = "{125, 700}";
}
);
paths = (
{
closed = 1;
nodes = (
"11 850 LINE",
"98 740 LINE",
"176 740 LINE",
"118 850 LINE"
);
}
);
};
layerId = "959C6BA0-AD18-4631-88F4-5A4A3C51B359";
paths = (
{
closed = 1;
nodes = (
"11 850 LINE",
"98 740 LINE",
"176 740 LINE",
"118 850 LINE"
);
}
);
width = 250;
}
);
unicode = 0060;
},
{
color = 0;
glyphname = hungarumlaut;
lastChange = "2018-04-04 05:25:25 +0000";
layers = (
{
anchors = (
{
name = _top;
position = "{125, 700}";
}
);
background = {
anchors = (
{
name = _top;
position = "{125, 700}";
}
);
paths = (
{
closed = 1;
nodes = (
"206 850 LINE",
"148 740 LINE",
"218 740 LINE",
"305 850 LINE"
);
},
{
closed = 1;
nodes = (
"66 850 LINE",
"8 740 LINE",
"78 740 LINE",
"165 850 LINE"
);
}
);
};
layerId = "959C6BA0-AD18-4631-88F4-5A4A3C51B359";
paths = (
{
closed = 1;
nodes = (
"206 850 LINE",
"148 740 LINE",
"218 740 LINE",
"305 850 LINE"
);
},
{
closed = 1;
nodes = (
"66 850 LINE",
"8 740 LINE",
"78 740 LINE",
"165 850 LINE"
);
}
);
width = 250;
}
);
unicode = 02DD;
},
{
color = 0;
glyphname = macron;
lastChange = "2018-04-04 05:25:25 +0000";
layers = (
{
anchors = (
{
name = _top;
position = "{125, 700}";
}
);
background = {
anchors = (
{
name = _top;
position = "{125, 700}";
}
);
paths = (
{
closed = 1;
nodes = (
"29 827 LINE",
"29 763 LINE",
"221 763 LINE",
"221 827 LINE"
);
}
);
};
layerId = "959C6BA0-AD18-4631-88F4-5A4A3C51B359";
paths = (
{
closed = 1;
nodes = (
"29 827 LINE",
"29 763 LINE",
"221 763 LINE",
"221 827 LINE"
);
}
);
width = 250;
}
);
unicode = 00AF;
},
{
color = 0;
glyphname = ogonek;
lastChange = "2018-04-04 05:25:25 +0000";
layers = (
{
anchors = (
{
name = _ogonek;
position = "{202, 0}";
}
);
background = {
anchors = (
{
name = _ogonek;
position = "{202, 0}";
}
);
paths = (
{
closed = 1;
nodes = (
"123 4 LINE",
"70 -21 OFFCURVE",
"47 -52 OFFCURVE",
"47 -86 CURVE SMOOTH",
"47 -126 OFFCURVE",
"78 -147 OFFCURVE",
"134 -147 CURVE SMOOTH",
"159 -147 OFFCURVE",
"179 -143 OFFCURVE",
"202 -131 CURVE",
"197 -70 LINE",
"187 -77 OFFCURVE",
"174 -81 OFFCURVE",
"161 -81 CURVE SMOOTH",
"142 -81 OFFCURVE",
"129 -72 OFFCURVE",
"129 -53 CURVE SMOOTH",
"129 -38 OFFCURVE",
"137 -18 OFFCURVE",
"166 4 CURVE"
);
}
);
};
layerId = "959C6BA0-AD18-4631-88F4-5A4A3C51B359";
paths = (
{
closed = 1;
nodes = (
"123 4 LINE",
"70 -21 OFFCURVE",
"47 -52 OFFCURVE",
"47 -86 CURVE SMOOTH",
"47 -126 OFFCURVE",
"78 -147 OFFCURVE",
"134 -147 CURVE SMOOTH",
"159 -147 OFFCURVE",
"179 -143 OFFCURVE",
"202 -131 CURVE",
"197 -70 LINE",
"187 -77 OFFCURVE",
"174 -81 OFFCURVE",
"161 -81 CURVE SMOOTH",
"142 -81 OFFCURVE",
"129 -72 OFFCURVE",
"129 -53 CURVE SMOOTH",
"129 -38 OFFCURVE",
"137 -18 OFFCURVE",
"166 4 CURVE"
);
}
);
width = 250;
}
);
unicode = 02DB;
},
{
color = 0;
glyphname = ring;
lastChange = "2018-04-04 05:25:25 +0000";
layers = (
{
anchors = (
{
name = _top;
position = "{125, 700}";
}
);
background = {
anchors = (
{
name = _top;
position = "{125, 700}";
}
);
paths = (
{
closed = 1;
nodes = (
"81 883 OFFCURVE",
"49 851 OFFCURVE",
"49 806 CURVE SMOOTH",
"49 762 OFFCURVE",
"81 730 OFFCURVE",
"125 730 CURVE SMOOTH",
"169 730 OFFCURVE",
"201 762 OFFCURVE",
"201 806 CURVE SMOOTH",
"201 851 OFFCURVE",
"169 883 OFFCURVE",
"125 883 CURVE SMOOTH"
);
},
{
closed = 1;
nodes = (
"142 837 OFFCURVE",
"153 825 OFFCURVE",
"153 806 CURVE SMOOTH",
"153 788 OFFCURVE",
"142 776 OFFCURVE",
"125 776 CURVE SMOOTH",
"108 776 OFFCURVE",
"97 788 OFFCURVE",
"97 806 CURVE SMOOTH",
"97 825 OFFCURVE",
"108 837 OFFCURVE",
"125 837 CURVE SMOOTH"
);
}
);
};
layerId = "959C6BA0-AD18-4631-88F4-5A4A3C51B359";
paths = (
{
closed = 1;
nodes = (
"81 883 OFFCURVE",
"49 851 OFFCURVE",
"49 806 CURVE SMOOTH",
"49 762 OFFCURVE",
"81 730 OFFCURVE",
"125 730 CURVE SMOOTH",
"169 730 OFFCURVE",
"201 762 OFFCURVE",
"201 806 CURVE SMOOTH",
"201 851 OFFCURVE",
"169 883 OFFCURVE",
"125 883 CURVE SMOOTH"
);
},
{
closed = 1;
nodes = (
"142 837 OFFCURVE",
"153 825 OFFCURVE",
"153 806 CURVE SMOOTH",
"153 788 OFFCURVE",
"142 776 OFFCURVE",
"125 776 CURVE SMOOTH",
"108 776 OFFCURVE",
"97 788 OFFCURVE",
"97 806 CURVE SMOOTH",
"97 825 OFFCURVE",
"108 837 OFFCURVE",
"125 837 CURVE SMOOTH"
);
}
);
width = 250;
}
);
unicode = 02DA;
},
